{
.appVersion = "3260";
.formatVersion = 3;
date = "2024-04-01 11:20:23 +0000";
familyName = Heap;
fontMaster = (
{
guides = (
{
angle = 180;
pos = (875,439);
},
{
pos = (-134,429);
},
{
pos = (743,-12);
},
{
pos = (58,163);
}
);
id = m01;
metricValues = (
{
over = 16;
pos = 830;
},
{
over = 16;
pos = 760;
},
{
over = 16;
pos = 600;
},
{
over = -16;
},
{
over = -16;
pos = -200;
},
{
}
);
name = Regular;
userData = {
GSCornerRadius = 140;
};
}
);
glyphs = (
{
glyphname = A;
lastChange = "2024-06-02 22:44:06 +0000";
layers = (
{
anchors = (
{
name = bottom;
pos = (360,0);
},
{
name = ogonek;
pos = (648,10);
},
{
name = top;
pos = (360,760);
}
);
background = {
shapes = (
{
closed = 1;
nodes = (
(333,0,l),
(333,90,l),
(60,90,l),
(60,0,l)
);
},
{
closed = 1;
nodes = (
(353,760,l),
(581,1,l),
(681,1,l),
(453,760,l)
);
},
{
closed = 1;
nodes = (
(720,1,l),
(720,90,l),
(447,90,l),
(447,1,l)
);
},
{
closed = 1;
nodes = (
(318,760,l),
(99,0,l),
(194,0,l),
(413,760,l)
);
},
{
closed = 1;
nodes = (
(225,264,l),
(545,264,l),
(545,352,l),
(225,352,l)
);
}
);
};
layerId = m01;
shapes = (
{
closed = 1;
nodes = (
(308,0,l),
(308,80,l),
(55,80,l),
(55,0,l)
);
},
{
closed = 1;
nodes = (
(665,0,l),
(665,80,l),
(412,80,l),
(412,0,l)
);
},
{
closed = 1;
nodes = (
(288,760,l),
(99,0,l),
(186,0,l),
(366,723,l),
(340,723,l),
(528,0,l),
(621,0,l),
(423,760,l)
);
},
{
closed = 1;
nodes = (
(195,267,l),
(515,267,l),
(515,347,l),
(195,347,l)
);
}
);
width = 720;
}
);
metricWidth = "=H";
unicode = 65;
},
{
glyphname = AE;
lastChange = "2024-06-02 23:18:53 +0000";
layers = (
{
layerId = m01;
shapes = (
{
closed = 1;
nodes = (
(291,760,l),
(400,0,l),
(491,0,l),
(382,760,l)
);
},
{
closed = 1;
nodes = (
(234,760,l),
(56,0,l),
(143,0,l),
(321,760,l)
);
},
{
closed = 1;
nodes = (
(165,272,l),
(369,272,l),
(369,352,l),
(165,352,l)
);
},
{
closed = 1;
nodes = (
(446,0,l),
(679,0,l),
(679,80,l),
(446,80,l)
);
},
{
closed = 1;
nodes = (
(237,680,l),
(629,680,l),
(629,760,l),
(237,760,l)
);
},
{
closed = 1;
nodes = (
(396,347,l),
(629,347,l),
(629,427,l),
(396,427,l)
);
}
);
width = 720;
}
);
unicode = 198;
},
{
glyphname = B;
lastChange = "2024-06-02 19:11:39 +0000";
layers = (
{
anchors = (
{
name = bottom;
pos = (360,0);
},
{
name = center;
pos = (180,190);
},
{
name = top;
pos = (360,760);
}
);
background = {
shapes = (
{
closed = 1;
nodes = (
(167,0,l),
(262,0,l),
(262,742,l),
(167,742,l)
);
},
{
closed = 1;
nodes = (
(45,760,l),
(45,680,l),
(324,680,ls),
(459,680,o),
(533,636,o),
(533,545,cs),
(533,448,o),
(459,422,o),
(324,422,cs),
(185,422,l),
(185,334,l),
(324,334,ls),
(434,334,o),
(635,375,o),
(635,546,cs),
(635,711,o),
(517,760,o),
(324,760,cs)
);
},
{
closed = 1;
nodes = (
(537,0,o),
(665,53,o),
(665,214,cs),
(665,381,o),
(459,422,o),
(344,422,cs),
(185,422,l),
(185,334,l),
(344,334,ls),
(479,334,o),
(563,304,o),
(563,210,cs),
(563,124,o),
(479,80,o),
(344,80,cs),
(45,80,l),
(45,0,l),
(344,0,ls)
);
}
);
};
layerId = m01;
shapes = (
{
closed = 1;
nodes = (
(167,0,l),
(262,0,l),
(262,742,l),
(167,742,l)
);
},
{
closed = 1;
nodes = (
(211,342,l),
(429,342,ls),
(494,342,o),
(564,331,o),
(564,213,cs),
(564,95,o),
(494,80,o),
(429,80,cs),
(45,80,l),
(45,0,l),
(431,0,ls),
(552,0,o),
(660,55,o),
(660,213,cs),
(660,371,o),
(552,412,o),
(431,398,c),
(431,362,l),
(496,376,o),
(610,389,o),
(610,547,cs),
(610,705,o),
(502,760,o),
(381,760,cs),
(45,760,l),
(45,680,l),
(379,680,ls),
(444,680,o),
(514,665,o),
(514,547,cs),
(514,429,o),
(444,418,o),
(379,418,cs),
(209,418,l)
);
}
);
width = 720;
}
);
unicode = 66;
},
{
glyphname = C;
lastChange = "2024-06-02 19:41:52 +0000";
layers = (
{
anchors = (
{
name = bottom;
pos = (360,0);
},
{
name = top;
pos = (360,760);
}
);
layerId = m01;
shapes = (
{
closed = 0;
nodes = (
(604,600,l)
);
},
{
closed = 1;
nodes = (
(652,489,l),
(652,760,l),
(574,760,l),
(574,600,l),
(604,600,l),
(586,701,o),
(529,776,o),
(395,776,cs),
(187,776,o),
(60,610,o),
(60,381,cs),
(60,156,o),
(181,-16,o),
(436,-16,cs),
(529,-16,o),
(577,0,o),
(640,26,c),
(611,101,l),
(560,77,o),
(511,64,o),
(434,64,cs),
(231,64,o),
(162,201,o),
(162,381,cs),
(162,559,o),
(230,696,o),
(395,696,cs),
(523,696,o),
(574,586,o),
(574,489,c)
);
}
);
width = 720;
}
);
unicode = 67;
},
{
glyphname = D;
lastChange = "2024-06-02 19:44:33 +0000";
layers = (
{
anchors = (
{
name = bottom;
pos = (360,0);
},
{
name = center;
pos = (180,380);
},
{
name = top;
pos = (360,760);
}
);
background = {
shapes = (
{
closed = 1;
nodes = (
(134,760,l),
(134,0,l),
(229,0,l),
(229,760,l)
);
},
{
closed = 1;
nodes = (
(45,760,l),
(45,670,l),
(303,670,ls),
(498,670,o),
(563,559,o),
(563,381,cs),
(563,199,o),
(498,90,o),
(303,90,cs),
(45,90,l),
(45,0,l),
(303,0,ls),
(551,0,o),
(665,147,o),
(665,381,cs),
(665,620,o),
(551,760,o),
(303,760,cs)
);
}
);
};
layerId = m01;
shapes = (
{
closed = 1;
nodes = (
(134,760,l),
(134,0,l),
(229,0,l),
(229,760,l)
);
},
{
closed = 1;
nodes = (
(579,0,o),
(660,149,o),
(660,381,cs),
(660,619,o),
(579,760,o),
(360,760,c),
(45,760,l),
(45,680,l),
(360,680,ls),
(519,680,o),
(563,558,o),
(563,381,cs),
(563,200,o),
(519,80,o),
(360,80,cs),
(45,80,l),
(45,0,l),
(360,0,l)
);
}
);
width = 720;
}
);
unicode = 68;
},
{
glyphname = Eth;
lastChange = "2024-04-28 22:48:47 +0000";
layers = (
{
layerId = m01;
shapes = (
{
ref = D;
},
{
closed = 1;
nodes = (
(46,344,l),
(402,344,l),
(402,424,l),
(46,424,l)
);
}
);
width = 720;
}
);
unicode = 208;
},
{
glyphname = E;
lastChange = "2024-06-02 22:55:24 +0000";
layers = (
{
anchors = (
{
name = bottom;
pos = (360,0);
},
{
name = ogonek;
pos = (648,10);
},
{
name = top;
pos = (360,760);
},
{
name = topleft;
pos = (20,760);
}
);
layerId = m01;
shapes = (
{
closed = 1;
nodes = (
(45,0,l),
(675,0,l),
(675,279,l),
(590,279,l),
(590,80,l),
(252,80,l),
(252,351,l),
(477,351,l),
(477,439,l),
(252,439,l),
(252,680,l),
(585,680,l),
(585,519,l),
(675,519,l),
(675,760,l),
(45,760,l),
(45,680,l),
(157,680,l),
(157,80,l),
(45,80,l)
);
}
);
width = 720;
}
);
unicode = 69;
},
{
glyphname = F;
lastChange = "2024-06-02 19:49:38 +0000";
layers = (
{
anchors = (
{
name = bottom;
pos = (360,0);
},
{
name = top;
pos = (360,760);
}
);
layerId = m01;
shapes = (
{
closed = 1;
nodes = (
(45,0,l),
(396,0,l),
(396,80,l),
(242,80,l),
(242,359,l),
(477,359,l),
(477,439,l),
(242,439,l),
(242,680,l),
(585,680,l),
(585,509,l),
(675,509,l),
(675,760,l),
(45,760,l),
(45,680,l),
(147,680,l),
(147,80,l),
(45,80,l)
);
}
);
width = 720;
}
);
unicode = 70;
},
{
glyphname = G;
lastChange = "2024-06-02 19:55:23 +0000";
layers = (
{
anchors = (
{
name = bottom;
pos = (360,0);
},
{
name = top;
pos = (360,760);
}
);
layerId = m01;
shapes = (
{
closed = 1;
nodes = (
(177,776,o),
(60,610,o),
(60,381,cs),
(60,147,o),
(177,-16,o),
(370,-16,cs),
(507,-16,o),
(564,2,o),
(632,20,c),
(632,277,l),
(675,277,l),
(675,357,l),
(443,357,l),
(443,277,l),
(542,277,l),
(542,20,l),
(611,94,l),
(540,79,o),
(471,64,o),
(370,64,cs),
(230,64,o),
(157,199,o),
(157,381,cs),
(157,559,o),
(230,696,o),
(370,696,cs),
(498,696,o),
(549,586,o),
(549,489,c),
(627,489,l),
(627,760,l),
(549,760,l),
(549,600,l),
(579,600,l),
(561,701,o),
(504,776,o),
(370,776,cs)
);
},
{
closed = 0;
nodes = (
(579,600,l)
);
}
);
width = 720;
}
);
unicode = 71;
},
{
glyphname = H;
lastChange = "2024-06-02 22:50:00 +0000";
layers = (
{
anchors = (
{
name = bottom;
pos = (360,0);
},
{
name = center;
pos = (360,570);
},
{
name = top;
pos = (360,760);
},
{
name = topleft;
pos = (20,760);
}
);
layerId = m01;
shapes = (
{
closed = 1;
nodes = (
(139,760,l),
(139,0,l),
(234,0,l),
(234,760,l)
);
},
{
closed = 1;
nodes = (
(55,0,l),
(318,0,l),
(318,80,l),
(55,80,l)
);
},
{
closed = 1;
nodes = (
(55,680,l),
(318,680,l),
(318,760,l),
(55,760,l)
);
},
{
closed = 1;
nodes = (
(486,760,l),
(486,-1,l),
(581,-1,l),
(581,760,l)
);
},
{
closed = 1;
nodes = (
(402,-1,l),
(665,-1,l),
(665,79,l),
(402,79,l)
);
},
{
closed = 1;
nodes = (
(402,679,l),
(665,679,l),
(665,760,l),
(402,760,l)
);
},
{
closed = 1;
nodes = (
(174,361,l),
(537,361,l),
(537,441,l),
(174,441,l)
);
}
);
width = 720;
}
);
unicode = 72;
},
{
glyphname = I;
lastChange = "2024-06-02 19:54:22 +0000";
layers = (
{
anchors = (
{
name = bottom;
pos = (360,0);
},
{
name = ogonek;
pos = (347,10);
},
{
name = top;
pos = (360,760);
},
{
name = topleft;
pos = (20,760);
}
);
layerId = m01;
shapes = (
{
closed = 1;
nodes = (
(100,0,l),
(620,0,l),
(620,80,l),
(100,80,l)
);
},
{
closed = 1;
nodes = (
(313,0,l),
(408,0,l),
(408,760,l),
(313,760,l)
);
},
{
closed = 1;
nodes = (
(100,680,l),
(620,680,l),
(620,760,l),
(100,760,l)
);
}
);
width = 720;
}
);
unicode = 73;
},
{
glyphname = J;
lastChange = "2024-06-02 19:55:01 +0000";
layers = (
{
anchors = (
{
name = bottom;
pos = (360,0);
},
{
name = top;
pos = (449,760);
}
);
background = {
shapes = (
{
closed = 0;
nodes = (
(202,670,l),
(662,670,l)
);
},
{
closed = 1;
nodes = (
(415,139,o),
(373,79,o),
(291,79,cs),
(217,79,o),
(168,127,o),
(168,250,c),
(73,250,l),
(73,86,o),
(149,-16,o),
(290,-16,cs),
(417,-16,o),
(510,63,o),
(510,239,cs),
(510,760,l),
(415,760,l),
(415,269,ls)
);
},
{
closed = 1;
nodes = (
(202,670,l),
(662,670,l),
(662,760,l),
(202,760,l)
);
}
);
};
layerId = m01;
shapes = (
{
closed = 1;
nodes = (
(142,680,l),
(612,680,l),
(612,760,l),
(142,760,l)
);
},
{
closed = 0;
nodes = (
(238,-16,l)
);
},
{
closed = 1;
nodes = (
(142,680,l),
(612,680,l),
(612,760,l),
(142,760,l)
);
},
{
closed = 1;
nodes = (
(26,12,l),
(106,-7,o),
(187,-17,o),
(243,-17,cs),
(429,-17,o),
(460,93,o),
(460,218,cs),
(460,760,l),
(365,760,l),
(365,269,ls),
(365,127,o),
(343,62,o),
(253,62,cs),
(207,62,o),
(127,69,o),
(45,90,c)
);
}
);
width = 720;
}
);
unicode = 74;
},
{
glyphname = K;
lastChange = "2024-06-02 20:01:34 +0000";
layers = (
{
anchors = (
{
name = bottom;
pos = (360,0);
},
{
name = top;
pos = (360,760);
}
);
layerId = m01;
shapes = (
{
closed = 1;
nodes = (
(55,760,l),
(55,680,l),
(144,680,l),
(144,80,l),
(55,80,l),
(55,0,l),
(328,0,l),
(328,80,l),
(239,80,l),
(239,680,l),
(328,680,l),
(328,760,l)
);
},
{
closed = 1;
nodes = (
(402,679,l),
(645,679,l),
(645,759,l),
(402,759,l)
);
},
{
closed = 1;
nodes = (
(272,347,l),
(478,347,o),
(384,0,o),
(585,0,c),
(665,0,l),
(665,88,l),
(643,88,l),
(571,88,o),
(559,94,o),
(539,135,cs),
(497,221,o),
(493,396,o),
(351,396,c),
(351,378,l),
(419,378,o),
(468,414,o),
(491,471,cs),
(527,561,o),
(596,729,o),
(596,729,c),
(496,729,l),
(496,729,o),
(445,577,o),
(411,491,cs),
(396,452,o),
(346,427,o),
(294,427,cs),
(280,427,o),
(198,427,o),
(180,427,c),
(180,345,l)
);
}
);
width = 720;
}
);
unicode = 75;
},
{
glyphname = L;
lastChange = "2024-06-02 20:01:10 +0000";
layers = (
{
anchors = (
{
name = bottom;
pos = (360,0);
},
{
name = center;
pos = (360,380);
},
{
name = top;
pos = (360,760);
},
{
name = topright;
pos = (700,760);
}
);
layerId = m01;
shapes = (
{
closed = 1;
nodes = (
(55,0,l),
(665,0,l),
(665,289,l),
(570,289,l),
(570,80,l),
(294,80,l),
(294,680,l),
(444,680,l),
(444,760,l),
(97,760,l),
(97,680,l),
(199,680,l),
(199,80,l),
(55,80,l)
);
}
);
width = 720;
}
);
unicode = 76;
},
{
glyphname = Lslash;
lastChange = "2024-05-09 22:39:51 +0000";
layers = (
{
layerId = m01;
shapes = (
{
closed = 1;
nodes = (
(45,262,l),
(502,438,l),
(502,524,l),
(45,348,l)
);
},
{
ref = L;
}
);
width = 720;
}
);
unicode = 321;
},
{
glyphname = M;
lastChange = "2024-06-02 20:04:47 +0000";
layers = (
{
anchors = (
{
name = bottom;
pos = (360,0);
},
{
name = top;
pos = (360,760);
}
);
background = {
shapes = (
{
closed = 1;
nodes = (
(149,760,l),
(149,0,l),
(244,0,l),
(244,760,l)
);
},
{
closed = 1;
nodes = (
(60,0,l),
(333,0,l),
(333,90,l),
(60,90,l)
);
},
{
closed = 1;
nodes = (
(60,670,l),
(212,670,l),
(339,249,l),
(436,249,l),
(274,760,l),
(200,760,l),
(60,760,l)
);
},
{
closed = 1;
nodes = (
(631,759,l),
(536,759,l),
(536,-1,l),
(631,-1,l)
);
},
{
closed = 1;
nodes = (
(720,-1,l),
(720,89,l),
(447,89,l),
(447,-1,l)
);
},
{
closed = 1;
nodes = (
(580,760,l),
(506,760,l),
(344,249,l),
(436,249,l),
(568,670,l),
(720,670,l),
(720,760,l)
);
}
);
};
layerId = m01;
shapes = (
{
closed = 1;
nodes = (
(131,760,l),
(131,0,l),
(216,0,l),
(216,760,l)
);
},
{
closed = 1;
nodes = (
(55,0,l),
(320,0,l),
(320,80,l),
(55,80,l)
);
},
{
closed = 1;
nodes = (
(55,680,l),
(212,680,l),
(316,279,l),
(401,279,l),
(505,680,l),
(665,680,l),
(665,760,l),
(446,760,l),
(346,381,l),
(369,381,l),
(271,760,l),
(55,760,l)
);
},
{
closed = 1;
nodes = (
(589,759,l),
(498,759,l),
(498,-1,l),
(589,-1,l)
);
},
{
closed = 1;
nodes = (
(665,-1,l),
(665,79,l),
(404,79,l),
(404,-1,l)
);
}
);
width = 720;
}
);
unicode = 77;
},
{
glyphname = N;
lastChange = "2024-07-09 19:43:41 +0000";
layers = (
{
anchors = (
{
name = bottom;
pos = (360,0);
},
{
name = top;
pos = (360,760);
}
);
background = {
anchors = (
{
name = bottom;
pos = (360,0);
},
{
name = top;
pos = (360,760);
}
);
shapes = (
{
closed = 1;
nodes = (
(144,760,l),
(144,80,l),
(55,80,l),
(55,0,l),
(318,0,l),
(318,80,l),
(229,80,l),
(229,760,l)
);
},
{
closed = 1;
nodes = (
(576,-1,l),
(576,759,l),
(491,759,l),
(491,90,l),
(555,93,l),
(229,760,l),
(185,760,l),
(55,760,l),
(55,680,l),
(161,680,l),
(491,-1,l)
);
},
{
closed = 1;
nodes = (
(402,679,l),
(665,679,l),
(665,759,l),
(402,759,l)
);
}
);
};
layerId = m01;
shapes = (
{
closed = 1;
nodes = (
(144,760,l),
(144,80,l),
(55,80,l),
(55,0,l),
(318,0,l),
(318,80,l),
(229,80,l),
(229,760,l)
);
},
{
closed = 1;
nodes = (
(576,-1,l),
(576,759,l),
(491,759,l),
(491,90,l),
(548,93,l),
(272,760,l),
(185,760,l),
(55,760,l),
(55,680,l),
(211,680,l),
(491,-1,l)
);
},
{
closed = 1;
nodes = (
(402,679,l),
(665,679,l),
(665,759,l),
(402,759,l)
);
}
);
width = 720;
}
);
metricWidth = "=H";
unicode = 78;
},
{
glyphname = O;
lastChange = "2024-06-02 19:37:29 +0000";
layers = (
{
anchors = (
{
name = bottom;
pos = (360,0);
},
{
name = center;
pos = (360,380);
},
{
name = ogonek;
pos = (648,10);
},
{
name = top;
pos = (360,760);
},
{
name = topleft;
pos = (20,760);
},
{
name = topright;
pos = (700,760);
}
);
layerId = m01;
shapes = (
{
closed = 1;
nodes = (
(579,-16,o),
(660,147,o),
(660,381,cs),
(660,620,o),
(579,776,o),
(360,776,cs),
(141,776,o),
(60,610,o),
(60,381,cs),
(60,147,o),
(152,-16,o),
(360,-16,cs)
);
},
{
closed = 1;
nodes = (
(201,64,o),
(157,199,o),
(157,381,cs),
(157,559,o),
(201,696,o),
(360,696,cs),
(519,696,o),
(563,559,o),
(563,381,cs),
(563,199,o),
(519,64,o),
(360,64,cs)
);
}
);
width = 720;
}
);
metricWidth = "=H";
unicode = 79;
},
{
glyphname = Oslash;
lastChange = "2024-04-28 22:52:44 +0000";
layers = (
{
layerId = m01;
shapes = (
{
ref = O;
},
{
closed = 1;
nodes = (
(149,96,l),
(243,96,l),
(582,655,l),
(488,655,l)
);
}
);
width = 720;
}
);
unicode = 216;
},
{
glyphname = OE;
lastChange = "2024-04-29 14:43:56 +0000";
layers = (
{
layerId = m01;
shapes = (
{
closed = 1;
nodes = (
(371,0,l),
(466,0,l),
(466,760,l),
(371,760,l)
);
},
{
closed = 1;
nodes = (
(139,760,o),
(45,620,o),
(45,381,cs),
(45,147,o),
(139,0,o),
(307,0,cs),
(665,0,l),
(665,90,l),
(307,90,ls),
(192,90,o),
(147,199,o),
(147,381,cs),
(147,559,o),
(192,670,o),
(307,670,cs),
(665,670,l),
(665,760,l),
(307,760,ls)
);
},
{
closed = 1;
nodes = (
(386,343,l),
(630,343,l),
(630,431,l),
(386,431,l)
);
}
);
width = 720;
}
);
unicode = 338;
},
{
glyphname = P;
lastChange = "2024-05-29 18:13:47 +0000";
layers = (
{
anchors = (
{
name = bottom;
pos = (360,0);
},
{
name = top;
pos = (360,760);
}
);
background = {
anchors = (
{
name = bottom;
pos = (360,0);
},
{
name = top;
pos = (360,760);
}
);
shapes = (
{
closed = 1;
nodes = (
(45,0,l),
(430,0,l),
(430,90,l),
(45,90,l)
);
},
{
closed = 1;
nodes = (
(168,0,l),
(263,0,l),
(263,742,l),
(168,742,l)
);
},
{
closed = 1;
nodes = (
(46,760,l),
(46,670,l),
(344,670,ls),
(484,670,o),
(563,632,o),
(563,526,cs),
(563,412,o),
(484,386,o),
(344,386,cs),
(186,386,l),
(186,298,l),
(344,298,ls),
(537,298,o),
(665,353,o),
(665,526,cs),
(665,700,o),
(537,760,o),
(344,760,cs)
);
}
);
};
layerId = m01;
shapes = (
{
closed = 1;
nodes = (
(45,0,l),
(430,0,l),
(430,80,l),
(45,80,l)
);
},
{
closed = 1;
nodes = (
(168,0,l),
(263,0,l),
(263,742,l),
(168,742,l)
);
},
{
closed = 1;
nodes = (
(46,760,l),
(46,680,l),
(414,680,ls),
(489,680,o),
(568,662,o),
(568,526,cs),
(568,390,o),
(489,376,o),
(414,376,cs),
(186,376,l),
(186,298,l),
(414,298,ls),
(547,298,o),
(665,353,o),
(665,526,cs),
(665,700,o),
(547,760,o),
(414,760,cs)
);
}
);
width = 720;
}
);
metricWidth = "=H";
unicode = 80;
},
{
glyphname = Thorn;
lastChange = "2024-06-02 23:16:37 +0000";
layers = (
{
layerId = m01;
shapes = (
{
closed = 1;
nodes = (
(45,0,l),
(430,0,l),
(430,90,l),
(45,90,l)
);
},
{
closed = 1;
nodes = (
(168,0,l),
(263,0,l),
(263,742,l),
(168,742,l)
);
},
{
closed = 1;
nodes = (
(45,670,l),
(430,670,l),
(430,760,l),
(45,760,l)
);
},
{
closed = 1;
nodes = (
(206,563,l),
(206,485,l),
(414,485,ls),
(519,485,o),
(568,465,o),
(568,395,cs),
(568,324,o),
(519,308,o),
(414,308,cs),
(206,308,l),
(206,231,l),
(414,231,ls),
(547,231,o),
(665,257,o),
(665,395,cs),
(665,534,o),
(547,563,o),
(414,563,cs)
);
}
);
width = 720;
}
);
unicode = 222;
},
{
glyphname = Q;
lastChange = "2024-06-02 20:05:32 +0000";
layers = (
{
anchors = (
{
name = bottom;
pos = (360,0);
},
{
name = top;
pos = (360,760);
}
);
layerId = m01;
shapes = (
{
closed = 1;
nodes = (
(678,-105,l),
(523,-139,o),
(449,-129,o),
(449,37,cs),
(449,56,l),
(354,56,l),
(354,10,ls),
(354,-126,o),
(423,-200,o),
(544,-200,cs),
(595,-200,o),
(652,-196,o),
(697,-184,c)
);
},
{
closed = 1;
nodes = (
(579,-16,o),
(660,147,o),
(660,381,cs),
(660,620,o),
(579,776,o),
(360,776,cs),
(141,776,o),
(60,610,o),
(60,381,cs),
(60,147,o),
(152,-16,o),
(360,-16,cs)
);
},
{
closed = 1;
nodes = (
(201,64,o),
(157,199,o),
(157,381,cs),
(157,559,o),
(201,696,o),
(360,696,cs),
(519,696,o),
(563,559,o),
(563,381,cs),
(563,199,o),
(519,64,o),
(360,64,cs)
);
}
);
width = 720;
}
);
metricWidth = "=H";
unicode = 81;
},
{
glyphname = R;
lastChange = "2024-06-02 20:09:46 +0000";
layers = (
{
anchors = (
{
name = bottom;
pos = (360,0);
},
{
name = top;
pos = (360,760);
}
);
background = {
shapes = (
{
closed = 1;
nodes = (
(15,0,l),
(400,0,l),
(400,80,l),
(15,80,l)
);
},
{
closed = 1;
nodes = (
(138,0,l),
(233,0,l),
(233,742,l),
(138,742,l)
);
},
{
closed = 1;
nodes = (
(16,760,l),
(16,680,l),
(384,680,ls),
(459,680,o),
(538,662,o),
(538,526,cs),
(538,390,o),
(459,376,o),
(384,376,cs),
(156,376,l),
(156,298,l),
(384,298,ls),
(517,298,o),
(635,353,o),
(635,526,cs),
(635,700,o),
(517,760,o),
(384,760,cs)
);
}
);
};
layerId = m01;
shapes = (
{
closed = 1;
nodes = (
(148,0,l),
(243,0,l),
(243,742,l),
(148,742,l)
);
},
{
closed = 1;
nodes = (
(55,0,l),
(336,0,l),
(336,80,l),
(55,80,l)
);
},
{
closed = 1;
nodes = (
(381,338,o),
(419,275,o),
(442,203,cs),
(472,109,o),
(475,0,o),
(578,0,c),
(665,0,l),
(665,80,l),
(643,80,o),
(623,80,o),
(623,80,cs),
(584,80,o),
(573,105,o),
(563,136,cs),
(549,178,o),
(537,246,o),
(506,298,cs),
(482,337,o),
(448,366,o),
(393,366,c),
(272,338,l)
);
},
{
closed = 1;
nodes = (
(55,760,l),
(55,680,l),
(384,680,ls),
(459,680,o),
(538,664,o),
(538,546,cs),
(538,427,o),
(459,415,o),
(384,415,cs),
(156,415,l),
(156,337,l),
(384,337,ls),
(517,337,o),
(635,387,o),
(635,546,cs),
(635,705,o),
(517,760,o),
(384,760,cs)
);
}
);
width = 720;
}
);
metricWidth = "=H";
unicode = 82;
},
{
glyphname = S;
lastChange = "2024-06-03 01:50:14 +0000";
layers = (
{
anchors = (
{
name = bottom;
pos = (360,0);
},
{
name = top;
pos = (360,760);
}
);
layerId = m01;
shapes = (
{
closed = 1;
nodes = (
(85,221,l),
(85,-8,l),
(165,-8,l),
(165,141,l),
(133,140,l),
(157,30,o),
(277,-17,o),
(388,-17,cs),
(556,-17,o),
(645,54,o),
(645,172,cs),
(645,365,o),
(484,401,o),
(356,435,cs),
(241,465,o),
(187,501,o),
(187,581,cs),
(187,661,o),
(241,695,o),
(325,695,cs),
(428,695,o),
(481,645,o),
(525,560,c),
(605,560,l),
(605,759,l),
(525,759,l),
(525,609,l),
(552,610,l),
(541,692,o),
(461,775,o),
(325,775,cs),
(187,775,o),
(91,707,o),
(91,567,cs),
(91,411,o),
(228,363,o),
(339,337,cs),
(439,313,o),
(549,284,o),
(549,180,cs),
(549,92,o),
(484,63,o),
(384,63,cs),
(269,63,o),
(176,124,o),
(165,221,c)
);
}
);
width = 720;
}
);
metricWidth = "=H";
unicode = 83;
},
{
glyphname = Germandbls;
lastChange = "2024-06-02 23:13:20 +0000";
layers = (
{
layerId = m01;
shapes = (
{
closed = 1;
nodes = (
(478,367,o),
(565,355,o),
(565,219,cs),
(565,132,o),
(511,80,o),
(407,80,cs),
(393,80,o),
(367,80,o),
(351,80,c),
(351,0,l),
(368,0,o),
(394,0,o),
(410,0,cs),
(566,0,o),
(660,65,o),
(660,229,cs),
(660,337,o),
(598,408,o),
(470,433,c),
(470,384,l),
(582,421,o),
(621,513,o),
(621,603,cs),
(621,723,o),
(555,830,o),
(388,830,cs),
(198,830,o),
(135,696,o),
(135,542,cs),
(135,80,l),
(55,80,l),
(55,0,l),
(230,0,l),
(230,542,ls),
(230,665,o),
(265,750,o),
(377,750,cs),
(489,750,o),
(528,682,o),
(528,600,cs),
(528,500,o),
(466,443,o),
(353,443,c),
(353,367,l)
);
},
{
closed = 0;
nodes = (
(470,384,l)
);
}
);
width = 720;
}
);
unicode = 7838;
},
{
glyphname = T;
lastChange = "2024-06-02 22:44:58 +0000";
layers = (
{
anchors = (
{
name = bottom;
pos = (360,0);
},
{
name = center;
pos = (360,380);
},
{
name = top;
pos = (360,760);
}
);
layerId = m01;
shapes = (
{
closed = 1;
nodes = (
(110,0,l),
(610,0,l),
(610,80,l),
(408,80,l),
(408,680,l),
(585,680,l),
(585,499,l),
(665,499,l),
(665,760,l),
(55,760,l),
(55,499,l),
(135,499,l),
(135,680,l),
(313,680,l),
(313,80,l),
(110,80,l)
);
}
);
width = 720;
}
);
metricWidth = "=H";
unicode = 84;
},
{
glyphname = U;
lastChange = "2024-06-02 22:47:47 +0000";
layers = (
{
anchors = (
{
name = bottom;
pos = (360,0);
},
{
name = ogonek;
pos = (648,10);
},
{
name = top;
pos = (360,760);
},
{
name = topright;
pos = (700,760);
}
);
layerId = m01;
shapes = (
{
closed = 1;
nodes = (
(55,680,l),
(318,680,l),
(318,760,l),
(55,760,l)
);
},
{
closed = 1;
nodes = (
(581,760,l),
(496,760,l),
(496,282,ls),
(496,159,o),
(472,64,o),
(360,64,cs),
(248,64,o),
(229,159,o),
(229,283,cs),
(229,760,l),
(139,760,l),
(139,283,ls),
(139,123,o),
(175,-16,o),
(360,-16,cs),
(545,-16,o),
(581,123,o),
(581,282,cs)
);
},
{
closed = 1;
nodes = (
(402,679,l),
(665,679,l),
(665,760,l),
(402,760,l)
);
}
);
width = 720;
}
);
metricWidth = "=H";
unicode = 85;
},
{
glyphname = V;
lastChange = "2024-06-02 22:51:03 +0000";
layers = (
{
anchors = (
{
name = bottom;
pos = (360,0);
},
{
name = top;
pos = (360,760);
}
);
background = {
shapes = (
{
closed = 1;
nodes = (
(60,670,l),
(333,670,l),
(333,760,l),
(60,760,l)
);
},
{
closed = 1;
nodes = (
(661,759,l),
(572,759,l),
(379,108,l),
(398,108,l),
(214,760,l),
(119,760,l),
(338,0,l),
(433,0,l)
);
},
{
closed = 1;
nodes = (
(447,669,l),
(720,669,l),
(720,759,l),
(447,759,l)
);
}
);
};
layerId = m01;
shapes = (
{
closed = 1;
nodes = (
(55,680,l),
(308,680,l),
(308,760,l),
(55,760,l)
);
},
{
closed = 1;
nodes = (
(412,680,l),
(665,680,l),
(665,760,l),
(412,760,l)
);
},
{
closed = 1;
nodes = (
(419,0,l),
(611,760,l),
(524,760,l),
(341,37,l),
(387,37,l),
(202,760,l),
(109,760,l),
(304,0,l)
);
}
);
width = 720;
}
);
metricWidth = "=H";
unicode = 86;
},
{
glyphname = W;
lastChange = "2024-06-03 01:49:08 +0000";
layers = (
{
anchors = (
{
name = bottom;
pos = (360,0);
},
{
name = top;
pos = (360,760);
}
);
layerId = m01;
shapes = (
{
closed = 1;
nodes = (
(621,760,l),
(529,760,l),
(457,83,l),
(531,83,l),
(406,540,l),
(322,540,l),
(208,83,l),
(262,83,l),
(190,760,l),
(99,760,l),
(180,0,l),
(260,0,l),
(385,491,l),
(333,491,l),
(460,0,l),
(540,0,l)
);
},
{
closed = 1;
nodes = (
(55,680,l),
(308,680,l),
(308,760,l),
(55,760,l)
);
},
{
closed = 1;
nodes = (
(412,680,l),
(665,680,l),
(665,760,l),
(412,760,l)
);
}
);
width = 720;
}
);
metricWidth = "=H";
unicode = 87;
},
{
glyphname = X;
lastChange = "2024-06-02 22:57:02 +0000";
layers = (
{
anchors = (
{
name = bottom;
pos = (360,0);
},
{
name = top;
pos = (360,760);
}
);
background = {
shapes = (
{
closed = 1;
nodes = (
(60,670,l),
(338,670,l),
(338,760,l),
(60,760,l)
);
},
{
closed = 1;
nodes = (
(184,760,l),
(79,760,l),
(606,0,l),
(711,0,l)
);
},
{
closed = 1;
nodes = (
(447,0,l),
(720,0,l),
(720,90,l),
(447,90,l)
);
},
{
closed = 1;
nodes = (
(442,760,l),
(442,670,l),
(710,670,l),
(710,760,l)
);
},
{
closed = 1;
nodes = (
(422,365,l),
(696,760,l),
(591,760,l),
(366,435,l)
);
},
{
closed = 1;
nodes = (
(50,90,l),
(50,0,l),
(323,0,l),
(323,90,l)
);
},
{
closed = 1;
nodes = (
(356,435,l),
(54,0,l),
(159,0,l),
(412,365,l)
);
}
);
};
layerId = m01;
shapes = (
{
closed = 1;
nodes = (
(190,760,l),
(85,760,l),
(551,0,l),
(656,0,l)
);
},
{
closed = 1;
nodes = (
(402,365,l),
(641,760,l),
(540,760,l),
(350,435,l)
);
},
{
closed = 1;
nodes = (
(336,435,l),
(59,0,l),
(160,0,l),
(388,365,l)
);
},
{
closed = 1;
nodes = (
(55,680,l),
(308,680,l),
(308,760,l),
(55,760,l)
);
},
{
closed = 1;
nodes = (
(412,680,l),
(665,680,l),
(665,760,l),
(412,760,l)
);
},
{
closed = 1;
nodes = (
(55,0,l),
(308,0,l),
(308,80,l),
(55,80,l)
);
},
{
closed = 1;
nodes = (
(412,0,l),
(665,0,l),
(665,80,l),
(412,80,l)
);
}
);
width = 720;
}
);
metricWidth = "=H";
unicode = 88;
},
{
glyphname = Y;
lastChange = "2024-06-02 23:00:09 +0000";
layers = (
{
anchors = (
{
name = bottom;
pos = (360,0);
},
{
name = top;
pos = (360,760);
},
{
name = topleft;
pos = (20,760);
}
);
layerId = m01;
shapes = (
{
closed = 1;
nodes = (
(187,760,l),
(84,760,l),
(313,300,l),
(313,0,l),
(408,0,l),
(408,300,l),
(636,759,l),
(540,759,l),
(324,323,l),
(403,321,l)
);
},
{
closed = 1;
nodes = (
(180,0,l),
(540,0,l),
(540,90,l),
(180,90,l)
);
},
{
closed = 1;
nodes = (
(55,680,l),
(308,680,l),
(308,760,l),
(55,760,l)
);
},
{
closed = 1;
nodes = (
(412,680,l),
(665,680,l),
(665,760,l),
(412,760,l)
);
}
);
width = 720;
}
);
metricWidth = "=H";
unicode = 89;
},
{
glyphname = Z;
lastChange = "2024-06-03 00:35:38 +0000";
layers = (
{
anchors = (
{
name = bottom;
pos = (360,0);
},
{
name = center;
pos = (360,380);
},
{
name = top;
pos = (360,760);
}
);
layerId = m01;
shapes = (
{
closed = 1;
nodes = (
(105,760,l),
(105,680,l),
(635,680,l),
(635,760,l)
);
},
{
closed = 1;
nodes = (
(635,680,l),
(635,760,l),
(578,760,l),
(75,90,l),
(75,0,l),
(635,0,l),
(635,80,l),
(141,80,l),
(143,21,l)
);
},
{
closed = 1;
nodes = (
(105,529,l),
(185,529,l),
(185,760,l),
(105,760,l)
);
},
{
closed = 1;
nodes = (
(555,0,l),
(635,0,l),
(635,261,l),
(555,261,l)
);
}
);
width = 720;
}
);
metricWidth = "=H";
unicode = 90;
},
{
glyphname = a;
lastChange = "2024-07-12 05:36:02 +0000";
layers = (
{
background = {
shapes = (
{
closed = 1;
nodes = (
(559,541,o),
(478,615,o),
(343,615,cs),
(248,615,o),
(157,562,o),
(106,507,c),
(159,438,l),
(217,500,o),
(281,527,o),
(339,527,cs),
(442,527,o),
(471,460,o),
(471,343,cs),
(471,140,ls),
(471,36,o),
(509,0,o),
(591,0,cs),
(639,0,l),
(639,90,l),
(599,90,ls),
(573,90,o),
(559,104,o),
(559,130,cs),
(559,375,ls)
);
},
{
closed = 1;
nodes = (
(531,380,l),
(339,380,o),
(94,373,o),
(94,171,cs),
(94,85,o),
(148,-8,o),
(282,-8,cs),
(420,-8,o),
(490,67,o),
(519,215,c),
(471,302,l),
(471,178,o),
(410,87,o),
(271,87,cs),
(220,87,o),
(182,117,o),
(182,167,cs),
(182,290,o),
(403,299,o),
(531,299,c)
);
}
);
};
layerId = m01;
shapes = (
{
closed = 1;
nodes = (
(559,557,o),
(464,616,o),
(348,616,cs),
(282,616,o),
(209,598,o),
(142,569,c),
(169,492,l),
(222,519,o),
(283,536,o),
(334,536,cs),
(427,536,o),
(475,486,o),
(475,343,cs),
(475,140,ls),
(475,36,o),
(509,0,o),
(591,0,cs),
(639,0,l),
(639,80,l),
(599,80,ls),
(573,80,o),
(559,104,o),
(559,130,cs),
(559,375,ls)
);
},
{
closed = 1;
nodes = (
(531,384,l),
(339,384,o),
(94,373,o),
(94,171,cs),
(94,85,o),
(148,-8,o),
(282,-8,cs),
(412,-8,o),
(490,67,o),
(519,215,c),
(475,302,l),
(475,178,o),
(410,72,o),
(271,72,cs),
(220,72,o),
(180,117,o),
(180,167,cs),
(180,290,o),
(348,306,o),
(531,306,c)
);
}
);
width = 720;
}
);
metricWidth = "=H";
unicode = 97;
},
{
glyphname = ae;
lastChange = "2024-06-02 23:29:59 +0000";
layers = (
{
layerId = m01;
shapes = (
{
closed = 1;
nodes = (
(641,82,l),
(609,69,o),
(559,64,o),
(528,64,cs),
(438,64,o),
(410,162,o),
(410,298,cs),
(410,430,o),
(422,533,o),
(510,533,cs),
(595,533,o),
(596,453,o),
(596,330,c),
(638,358,l),
(332,358,ls),
(190,358,o),
(31,322,o),
(31,155,cs),
(31,82,o),
(65,-8,o),
(199,-8,cs),
(335,-8,o),
(387,84,o),
(387,267,c),
(387,493,o),
(371,615,o),
(215,615,cs),
(176,615,o),
(118,604,o),
(65,574,c),
(99,503,l),
(133,526,o),
(177,537,o),
(213,537,cs),
(302,537,o),
(313,448,o),
(313,302,cs),
(313,134,o),
(261,72,o),
(193,72,cs),
(142,72,o),
(119,120,o),
(119,165,cs),
(119,271,o),
(254,278,o),
(332,278,cs),
(687,278,l),
(687,410,o),
(690,613,o),
(518,613,cs),
(380,613,o),
(313,482,o),
(313,298,cs),
(313,109,o),
(393,-16,o),
(528,-16,cs),
(569,-16,o),
(622,-8,o),
(656,6,c)
);
}
);
width = 720;
}
);
unicode = 230;
},
{
glyphname = b;
lastChange = "2024-05-29 20:13:52 +0000";
layers = (
{
background = {
shapes = (
{
closed = 1;
nodes = (
(216,326,l),
(221,436,o),
(297,524,o),
(389,524,cs),
(500,524,o),
(551,421,o),
(551,307,cs),
(551,184,o),
(508,77,o),
(373,77,cs),
(319,77,o),
(216,99,o),
(216,203,c),
(130,78,l),
(208,15,o),
(280,-16,o),
(363,-16,cs),
(572,-16,o),
(643,120,o),
(643,310,cs),
(643,486,o),
(557,618,o),
(403,618,cs),
(264,618,o),
(160,485,o),
(154,328,c)
);
},
{
closed = 1;
nodes = (
(216,712,l),
(216,800,l),
(42,800,l),
(42,712,l)
);
},
{
closed = 1;
nodes = (
(216,800,l),
(130,800,l),
(130,78,l),
(216,70,l)
);
}
);
};
layerId = m01;
shapes = (
{
closed = 1;
nodes = (
(190,-5,o),
(280,-16,o),
(363,-16,cs),
(552,-16,o),
(639,120,o),
(639,310,cs),
(639,486,o),
(555,618,o),
(401,618,cs),
(262,618,o),
(170,485,o),
(164,328,c),
(216,326,l),
(221,436,o),
(295,531,o),
(387,531,cs),
(498,531,o),
(547,421,o),
(547,307,cs),
(547,184,o),
(488,69,o),
(373,69,cs),
(319,69,o),
(259,73,o),
(204,95,c),
(216,65,l),
(216,800,l),
(130,800,l),
(130,14,l)
);
},
{
closed = 1;
nodes = (
(216,722,l),
(216,800,l),
(42,800,l),
(42,722,l)
);
}
);
width = 720;
}
);
metricWidth = "=H";
unicode = 98;
},
{
glyphname = c;
lastChange = "2024-05-29 19:56:46 +0000";
layers = (
{
background = {
shapes = (
{
closed = 1;
nodes = (
(525,502,l),
(545,501,l),
(506,579,o),
(438,616,o),
(359,616,cs),
(208,616,o),
(85,482,o),
(85,298,cs),
(85,109,o),
(208,-16,o),
(399,-16,cs),
(478,-16,o),
(535,-7,o),
(584,8,c),
(562,96,l),
(513,80,o),
(466,74,o),
(399,74,cs),
(251,74,o),
(177,162,o),
(177,298,cs),
(177,430,o),
(251,523,o),
(359,523,cs),
(439,523,o),
(499,484,o),
(525,395,c),
(600,395,l),
(600,583,l),
(525,583,l)
);
}
);
};
layerId = m01;
shapes = (
{
closed = 1;
nodes = (
(525,502,l),
(575,445,l),
(547,542,o),
(472,616,o),
(359,616,cs),
(208,616,o),
(85,482,o),
(85,298,cs),
(85,109,o),
(198,-16,o),
(399,-16,cs),
(478,-16,o),
(551,6,o),
(611,43,c),
(573,110,l),
(527,84,o),
(466,64,o),
(399,64,cs),
(251,64,o),
(177,156,o),
(177,298,cs),
(177,430,o),
(251,533,o),
(359,533,cs),
(439,533,o),
(499,484,o),
(525,395,c),
(600,395,l),
(600,600,l),
(525,600,l)
);
}
);
width = 720;
}
);
metricWidth = "=H";
unicode = 99;
},
{
glyphname = d;
lastChange = "2024-06-03 01:53:34 +0000";
layers = (
{
anchors = (
{
name = bottom;
pos = (360,0);
},
{
name = center;
pos = (540,664);
},
{
name = top;
pos = (360,600);
},
{
name = topright;
pos = (700,830);
}
);
background = {
anchors = (
{
name = bottom;
pos = (360,0);
},
{
name = center;
pos = (540,664);
},
{
name = top;
pos = (360,600);
},
{
name = topright;
pos = (700,830);
}
);
shapes = (
{
closed = 1;
nodes = (
(586,800,l),
(389,800,l),
(389,712,l),
(499,712,l),
(498,333,ls),
(497,129,o),
(408,71,o),
(320,71,cs),
(209,71,o),
(163,181,o),
(163,295,cs),
(163,465,o),
(240,536,o),
(342,536,cs),
(407,536,o),
(468,524,o),
(513,497,c),
(573,557,l),
(498,600,o),
(437,618,o),
(344,618,cs),
(145,618,o),
(71,472,o),
(71,292,cs),
(71,116,o),
(162,-16,o),
(316,-16,cs),
(437,-16,o),
(514,59,o),
(549,282,c),
(497,169,l),
(497,0,l),
(512,0,l),
(512,-1,l),
(689,-1,l),
(689,87,l),
(583,87,l)
);
}
);
};
layerId = m01;
shapes = (
{
closed = 1;
nodes = (
(500,36,o),
(534,0,o),
(616,0,cs),
(664,0,l),
(664,80,l),
(624,80,ls),
(598,80,o),
(584,104,o),
(584,130,cs),
(584,800,l),
(389,800,l),
(389,720,l),
(498,720,l),
(498,333,ls),
(496,129,o),
(408,71,o),
(320,71,cs),
(209,71,o),
(163,181,o),
(163,295,cs),
(163,465,o),
(240,536,o),
(342,536,cs),
(407,536,o),
(468,524,o),
(513,497,c),
(573,557,l),
(498,600,o),
(437,618,o),
(344,618,cs),
(145,618,o),
(71,472,o),
(71,292,cs),
(71,116,o),
(162,-16,o),
(316,-16,cs),
(437,-16,o),
(514,59,o),
(549,282,c),
(500,140,l)
);
}
);
width = 720;
}
);
metricWidth = "=H";
unicode = 100;
},
{
glyphname = eth;
lastChange = "2024-06-02 23:30:40 +0000";
layers = (
{
layerId = m01;
shapes = (
{
ref = partialdiff;
},
{
closed = 1;
nodes = (
(552,750,l),
(590,680,l),
(266,501,l),
(228,571,l)
);
}
);
width = 720;
}
);
unicode = 240;
},
{
glyphname = e;
lastChange = "2024-06-02 18:53:12 +0000";
layers = (
{
background = {
shapes = (
{
closed = 1;
nodes = (
(558,-16,o),
(685,109,o),
(685,298,cs),
(685,482,o),
(558,613,o),
(390,613,cs),
(222,613,o),
(95,482,o),
(95,298,cs),
(95,109,o),
(222,-16,o),
(390,-16,cs)
);
},
{
closed = 1;
nodes = (
(270,74,o),
(187,162,o),
(187,298,cs),
(187,430,o),
(270,523,o),
(390,523,cs),
(510,523,o),
(593,430,o),
(593,298,cs),
(593,162,o),
(510,74,o),
(390,74,cs)
);
}
);
};
layerId = m01;
shapes = (
{
closed = 1;
nodes = (
(148,355,l),
(148,278,l),
(623,278,l),
(624,290,o),
(624,303,o),
(624,315,cs),
(624,487,o),
(531,613,o),
(369,613,cs),
(209,613,o),
(99,482,o),
(99,298,cs),
(99,115,o),
(203,-16,o),
(407,-16,cs),
(465,-16,o),
(508,-6,o),
(572,13,c),
(550,94,l),
(494,76,o),
(444,66,o),
(397,66,cs),
(264,66,o),
(191,154,o),
(191,298,cs),
(191,430,o),
(243,523,o),
(360,523,cs),
(468,523,o),
(536,463,o),
(536,340,c),
(563,355,l)
);
}
);
width = 720;
}
);
metricWidth = "=H";
unicode = 101;
},
{
glyphname = f;
lastChange = "2024-06-02 23:21:50 +0000";
layers = (
{
background = {
shapes = (
{
closed = 1;
nodes = (
(99,520,l),
(99,430,l),
(569,430,l),
(569,520,l)
);
},
{
closed = 1;
nodes = (
(569,835,o),
(507,846,o),
(449,846,cs),
(314,846,o),
(269,757,o),
(269,612,cs),
(269,0,l),
(354,0,l),
(354,612,ls),
(354,713,o),
(367,764,o),
(462,764,cs),
(503,764,o),
(549,754,o),
(589,745,c),
(605,829,l)
);
},
{
closed = 1;
nodes = (
(99,88,l),
(99,0,l),
(569,0,l),
(569,88,l)
);
}
);
};
layerId = m01;
shapes = (
{
closed = 1;
nodes = (
(99,600,l),
(99,520,l),
(609,520,l),
(609,600,l)
);
},
{
closed = 1;
nodes = (
(575,837,o),
(517,846,o),
(449,846,cs),
(314,846,o),
(269,757,o),
(269,622,cs),
(269,0,l),
(355,0,l),
(355,622,ls),
(355,713,o),
(367,766,o),
(452,766,cs),
(513,766,o),
(549,757,o),
(589,745,c),
(611,826,l)
);
},
{
closed = 1;
nodes = (
(99,80,l),
(99,0,l),
(609,0,l),
(609,80,l)
);
}
);
width = 720;
}
);
metricWidth = "=H";
unicode = 102;
},
{
glyphname = g;
lastChange = "2024-06-03 01:49:33 +0000";
layers = (
{
background = {
shapes = (
{
closed = 1;
nodes = (
(469,184,o),
(561,287,o),
(561,401,cs),
(561,535,o),
(469,616,o),
(326,616,cs),
(183,616,o),
(91,535,o),
(91,401,cs),
(91,277,o),
(183,184,o),
(326,184,cs)
);
},
{
closed = 1;
nodes = (
(235,274,o),
(184,330,o),
(184,401,cs),
(184,483,o),
(235,526,o),
(326,526,cs),
(417,526,o),
(468,483,o),
(468,401,cs),
(468,330,o),
(417,274,o),
(326,274,cs)
);
},
{
closed = 1;
nodes = (
(457,501,l),
(658,532,l),
(643,616,l),
(457,584,l)
);
},
{
closed = 1;
nodes = (
(45,-27,l),
(47,-152,o),
(148,-231,o),
(330,-231,cs),
(551,-231,o),
(613,-156,o),
(614,-77,cs),
(615,16,o),
(564,82,o),
(414,96,cs),
(282,108,o),
(253,118,o),
(304,198,c),
(233,243,l),
(199,197,o),
(179,142,o),
(179,112,cs),
(179,44,o),
(227,22,o),
(366,14,cs),
(468,7,o),
(522,-15,o),
(522,-71,cs),
(522,-126,o),
(459,-144,o),
(330,-144,cs),
(187,-144,o),
(140,-99,o),
(136,-27,c)
);
}
);
};
layerId = m01;
shapes = (
{
closed = 1;
nodes = (
(484,184,o),
(571,287,o),
(571,401,cs),
(571,535,o),
(484,616,o),
(336,616,cs),
(188,616,o),
(101,535,o),
(101,401,cs),
(101,277,o),
(188,184,o),
(336,184,cs)
);
},
{
closed = 1;
nodes = (
(235,264,o),
(193,330,o),
(193,401,cs),
(193,483,o),
(235,536,o),
(336,536,cs),
(437,536,o),
(479,483,o),
(479,401,cs),
(479,330,o),
(437,264,o),
(336,264,cs)
);
},
{
closed = 1;
nodes = (
(467,505,l),
(668,536,l),
(653,616,l),
(467,584,l)
);
},
{
closed = 1;
nodes = (
(67,-140,l),
(134,-200,o),
(253,-231,o),
(360,-231,cs),
(541,-231,o),
(614,-158,o),
(614,-54,cs),
(614,69,o),
(484,111,o),
(293,105,c),
(315,220,l),
(230,223,l),
(193,24,l),
(303,24,o),
(522,51,o),
(522,-64,cs),
(522,-132,o),
(449,-151,o),
(360,-151,cs),
(235,-151,o),
(178,-129,o),
(113,-73,c)
);
}
);
width = 720;
}
);
metricWidth = "=H";
unicode = 103;
},
{
glyphname = h;
lastChange = "2024-05-29 19:28:46 +0000";
layers = (
{
anchors = (
{
name = bottom;
pos = (360,0);
},
{
name = center;
pos = (180,664);
},
{
name = top;
pos = (360,830);
}
);
layerId = m01;
shapes = (
{
closed = 1;
nodes = (
(74,750,l),
(192,750,l),
(192,830,l),
(74,830,l)
);
},
{
closed = 1;
nodes = (
(153,830,l),
(153,0,l),
(239,0,l),
(239,830,l)
);
},
{
closed = 1;
nodes = (
(73,0,l),
(319,0,l),
(319,80,l),
(73,80,l)
);
},
{
closed = 1;
nodes = (
(421,0,l),
(667,0,l),
(667,80,l),
(421,80,l)
);
},
{
closed = 1;
nodes = (
(587,424,ls),
(587,548,o),
(532,615,o),
(436,615,cs),
(367,615,o),
(279,561,o),
(193,463,c),
(239,417,l),
(309,490,o),
(372,532,o),
(422,532,cs),
(480,532,o),
(501,490,o),
(501,392,cs),
(501,60,l),
(587,60,l)
);
}
);
width = 720;
}
);
metricWidth = "=H";
unicode = 104;
},
{
glyphname = i;
lastChange = "2024-05-29 20:09:02 +0000";
layers = (
{
background = {
shapes = (
{
closed = 1;
nodes = (
(409,750,o),
(448,789,o),
(448,836,cs),
(448,883,o),
(409,922,o),
(362,922,cs),
(314,922,o),
(276,883,o),
(276,836,cs),
(276,789,o),
(314,750,o),
(362,750,cs)
);
},
{
closed = 1;
nodes = (
(108,0,l),
(643,0,l),
(643,90,l),
(108,90,l)
);
},
{
closed = 1;
nodes = (
(333,0,l),
(418,0,l),
(418,600,l),
(333,600,l)
);
},
{
closed = 1;
nodes = (
(167,510,l),
(386,510,l),
(386,600,l),
(167,600,l)
);
}
);
};
layerId = m01;
shapes = (
{
closed = 1;
nodes = (
(409,750,o),
(448,789,o),
(448,836,cs),
(448,883,o),
(409,922,o),
(362,922,cs),
(314,922,o),
(276,883,o),
(276,836,cs),
(276,789,o),
(314,750,o),
(362,750,cs)
);
},
{
closed = 1;
nodes = (
(108,0,l),
(643,0,l),
(643,80,l),
(108,80,l)
);
},
{
closed = 1;
nodes = (
(332,0,l),
(418,0,l),
(418,600,l),
(332,600,l)
);
},
{
closed = 1;
nodes = (
(167,520,l),
(386,520,l),
(386,600,l),
(167,600,l)
);
}
);
width = 720;
}
);
metricWidth = "=H";
unicode = 105;
},
{
glyphname = idotless;
lastChange = "2024-04-29 13:44:13 +0000";
layers = (
{
layerId = m01;
shapes = (
{
closed = 1;
nodes = (
(128,0,l),
(623,0,l),
(623,90,l),
(128,90,l)
);
},
{
closed = 1;
nodes = (
(333,0,l),
(418,0,l),
(418,600,l),
(333,600,l)
);
},
{
closed = 1;
nodes = (
(187,510,l),
(386,510,l),
(386,600,l),
(187,600,l)
);
}
);
width = 720;
}
);
unicode = 305;
},
{
glyphname = j;
lastChange = "2024-05-29 20:09:51 +0000";
layers = (
{
background = {
shapes = (
{
closed = 1;
nodes = (
(446,600,l),
(360,600,l),
(360,20,ls),
(360,-56,o),
(346,-97,o),
(314,-115,cs),
(266,-143,o),
(208,-130,o),
(123,-112,c),
(110,-200,l),
(164,-211,o),
(229,-217,o),
(275,-217,cs),
(383,-217,o),
(446,-143,o),
(446,-7,cs)
);
},
{
closed = 1;
nodes = (
(174,510,l),
(413,510,l),
(413,600,l),
(174,600,l)
);
},
{
closed = 1;
nodes = (
(439,750,o),
(478,789,o),
(478,836,cs),
(478,883,o),
(439,922,o),
(392,922,cs),
(344,922,o),
(306,883,o),
(306,836,cs),
(306,789,o),
(344,750,o),
(392,750,cs)
);
},
{
closed = 1;
nodes = (
(446,600,l),
(360,600,l),
(360,20,ls),
(360,-56,o),
(346,-97,o),
(314,-115,cs),
(266,-143,o),
(208,-130,o),
(123,-112,c),
(110,-200,l),
(164,-211,o),
(229,-217,o),
(275,-217,cs),
(383,-217,o),
(446,-143,o),
(446,-7,cs)
);
},
{
closed = 1;
nodes = (
(174,510,l),
(413,510,l),
(413,600,l),
(174,600,l)
);
},
{
closed = 1;
nodes = (
(439,750,o),
(478,789,o),
(478,836,cs),
(478,883,o),
(439,922,o),
(392,922,cs),
(344,922,o),
(306,883,o),
(306,836,cs),
(306,789,o),
(344,750,o),
(392,750,cs)
);
},
{
closed = 1;
nodes = (
(196,510,l),
(435,510,l),
(435,600,l),
(196,600,l)
);
},
{
closed = 1;
nodes = (
(461,750,o),
(500,789,o),
(500,836,cs),
(500,883,o),
(461,922,o),
(414,922,cs),
(366,922,o),
(328,883,o),
(328,836,cs),
(328,789,o),
(366,750,o),
(414,750,cs)
);
},
{
closed = 1;
nodes = (
(382,-84,o),
(344,-127,o),
(267,-127,cs),
(201,-127,o),
(154,-76,o),
(154,42,c),
(68,42,l),
(68,-117,o),
(134,-217,o),
(266,-217,cs),
(388,-217,o),
(468,-145,o),
(468,-12,cs),
(468,600,l),
(382,600,l),
(382,31,ls)
);
}
);
};
layerId = m01;
shapes = (
{
closed = 1;
nodes = (
(456,600,l),
(370,600,l),
(370,21,ls),
(370,-55,o),
(356,-102,o),
(324,-120,cs),
(271,-148,o),
(208,-130,o),
(114,-107,c),
(100,-189,l),
(159,-201,o),
(231,-217,o),
(281,-217,cs),
(393,-217,o),
(456,-143,o),
(456,-7,cs)
);
},
{
closed = 1;
nodes = (
(206,520,l),
(445,520,l),
(445,600,l),
(206,600,l)
);
},
{
closed = 1;
nodes = (
(451,750,o),
(490,789,o),
(490,836,cs),
(490,883,o),
(451,922,o),
(404,922,cs),
(356,922,o),
(318,883,o),
(318,836,cs),
(318,789,o),
(356,750,o),
(404,750,cs)
);
}
);
width = 720;
}
);
metricWidth = "=H";
unicode = 106;
},
{
glyphname = jdotless;
lastChange = "2024-05-11 02:50:03 +0000";
layers = (
{
anchors = (
{
name = bottom;
pos = (360,-200);
},
{
name = top;
pos = (360,600);
}
);
layerId = m01;
shapes = (
{
closed = 1;
nodes = (
(196,510,l),
(435,510,l),
(435,600,l),
(196,600,l)
);
},
{
closed = 1;
nodes = (
(382,-82,o),
(342,-127,o),
(268,-127,cs),
(194,-127,o),
(145,-79,o),
(145,49,c),
(59,49,l),
(59,-120,o),
(126,-217,o),
(267,-217,cs),
(386,-217,o),
(468,-143,o),
(468,-7,cs),
(468,600,l),
(382,600,l),
(382,37,ls)
);
}
);
width = 720;
}
);
unicode = 567;
},
{
glyphname = k;
lastChange = "2024-05-29 20:14:00 +0000";
layers = (
{
layerId = m01;
shapes = (
{
closed = 1;
nodes = (
(78,750,l),
(196,750,l),
(196,830,l),
(78,830,l)
);
},
{
closed = 1;
nodes = (
(157,830,l),
(157,0,l),
(245,0,l),
(245,830,l)
);
},
{
closed = 1;
nodes = (
(77,0,l),
(323,0,l),
(323,80,l),
(77,80,l)
);
},
{
closed = 1;
nodes = (
(370,520,l),
(616,520,l),
(616,600,l),
(370,600,l)
);
},
{
closed = 1;
nodes = (
(324,267,ls),
(360,267,o),
(377,259,o),
(399,211,cs),
(423,159,o),
(452,88,o),
(468,53,cs),
(487,13,o),
(519,0,o),
(550,0,cs),
(651,0,l),
(651,80,l),
(578,80,ls),
(550,80,o),
(537,100,o),
(526,123,cs),
(510,157,o),
(496,187,o),
(476,239,cs),
(454,293,o),
(432,346,o),
(346,346,c),
(267,273,l),
(391,273,o),
(423,312,o),
(474,392,cs),
(573,546,l),
(481,559,l),
(383,410,ls),
(353,365,o),
(338,349,o),
(297,349,cs),
(178,349,l),
(178,267,l)
);
}
);
width = 720;
}
);
metricWidth = "=H";
unicode = 107;
},
{
glyphname = l;
lastChange = "2024-05-29 20:13:01 +0000";
layers = (
{
anchors = (
{
name = bottom;
pos = (360,0);
},
{
name = center;
pos = (360,300);
},
{
name = top;
pos = (360,830);
},
{
name = topright;
pos = (700,830);
}
);
layerId = m01;
shapes = (
{
closed = 1;
nodes = (
(108,0,l),
(643,0,l),
(643,80,l),
(108,80,l)
);
},
{
closed = 1;
nodes = (
(333,0,l),
(418,0,l),
(418,830,l),
(333,830,l)
);
},
{
closed = 1;
nodes = (
(167,750,l),
(386,750,l),
(386,830,l),
(167,830,l)
);
}
);
width = 720;
}
);
metricWidth = "=H";
unicode = 108;
},
{
glyphname = lslash;
lastChange = "2024-04-29 15:16:34 +0000";
layers = (
{
layerId = m01;
shapes = (
{
ref = l;
},
{
closed = 1;
nodes = (
(567,506,l),
(210,368,l),
(210,282,l),
(567,420,l)
);
}
);
width = 720;
}
);
unicode = 322;
},
{
glyphname = m;
lastChange = "2024-05-29 20:14:35 +0000";
layers = (
{
layerId = m01;
shapes = (
{
closed = 1;
nodes = (
(400,521,o),
(384,616,o),
(309,616,cs),
(213,616,o),
(191,504,o),
(169,365,c),
(205,195,l),
(205,271,o),
(200,528,o),
(280,528,cs),
(316,528,o),
(314,419,o),
(314,378,cs),
(314,0,l),
(400,0,l),
(400,385,ls)
);
},
{
closed = 1;
nodes = (
(37,520,l),
(155,520,l),
(155,600,l),
(37,600,l)
);
},
{
closed = 1;
nodes = (
(119,600,l),
(119,0,l),
(205,0,l),
(205,600,l)
);
},
{
closed = 1;
nodes = (
(36,0,l),
(271,0,l),
(271,80,l),
(36,80,l)
);
},
{
closed = 1;
nodes = (
(323,0,l),
(479,0,l),
(479,80,l),
(323,80,l)
);
},
{
closed = 1;
nodes = (
(609,520,o),
(597,616,o),
(506,616,cs),
(416,616,o),
(383,505,o),
(365,366,c),
(401,194,l),
(401,267,o),
(387,527,o),
(477,527,cs),
(518,527,o),
(523,451,o),
(523,377,cs),
(523,0,l),
(609,0,l),
(609,384,ls)
);
},
{
closed = 1;
nodes = (
(521,0,l),
(684,0,l),
(684,80,l),
(521,80,l)
);
}
);
width = 720;
}
);
metricWidth = "=H";
unicode = 109;
},
{
glyphname = n;
lastChange = "2024-06-03 01:49:49 +0000";
layers = (
{
background = {
shapes = (
{
closed = 1;
nodes = (
(74,510,l),
(192,510,l),
(192,600,l),
(74,600,l)
);
},
{
closed = 1;
nodes = (
(153,600,l),
(153,0,l),
(239,0,l),
(239,600,l)
);
},
{
closed = 1;
nodes = (
(73,0,l),
(319,0,l),
(319,90,l),
(73,90,l)
);
},
{
closed = 1;
nodes = (
(421,0,l),
(667,0,l),
(667,90,l),
(421,90,l)
);
},
{
closed = 1;
nodes = (
(587,424,ls),
(587,548,o),
(532,615,o),
(436,615,cs),
(367,615,o),
(279,568,o),
(186,470,c),
(239,417,l),
(309,490,o),
(372,532,o),
(422,532,cs),
(480,532,o),
(501,490,o),
(501,392,cs),
(501,70,l),
(587,70,l)
);
}
);
};
layerId = m01;
shapes = (
{
closed = 1;
nodes = (
(74,520,l),
(192,520,l),
(192,600,l),
(74,600,l)
);
},
{
closed = 1;
nodes = (
(153,600,l),
(153,0,l),
(239,0,l),
(239,600,l)
);
},
{
closed = 1;
nodes = (
(73,0,l),
(319,0,l),
(319,80,l),
(73,80,l)
);
},
{
closed = 1;
nodes = (
(421,0,l),
(667,0,l),
(667,80,l),
(421,80,l)
);
},
{
closed = 1;
nodes = (
(587,424,ls),
(587,548,o),
(532,615,o),
(436,615,cs),
(367,615,o),
(279,561,o),
(193,463,c),
(239,417,l),
(309,490,o),
(372,533,o),
(422,533,cs),
(480,533,o),
(501,490,o),
(501,392,cs),
(501,60,l),
(587,60,l)
);
}
);
width = 720;
}
);
metricWidth = "=H";
unicode = 110;
},
{
glyphname = o;
lastChange = "2024-05-29 19:57:45 +0000";
layers = (
{
layerId = m01;
shapes = (
{
closed = 1;
nodes = (
(521,-16,o),
(635,112,o),
(635,301,cs),
(635,485,o),
(521,616,o),
(360,616,cs),
(199,616,o),
(86,485,o),
(86,301,cs),
(86,112,o),
(199,-16,o),
(360,-16,cs)
);
},
{
closed = 1;
nodes = (
(232,66,o),
(178,165,o),
(178,301,cs),
(178,433,o),
(232,534,o),
(360,534,cs),
(488,534,o),
(542,433,o),
(542,301,cs),
(542,165,o),
(488,66,o),
(360,66,cs)
);
}
);
width = 720;
}
);
metricWidth = "=H";
unicode = 111;
},
{
glyphname = oslash;
lastChange = "2024-04-29 14:59:01 +0000";
layers = (
{
layerId = m01;
shapes = (
{
ref = o;
},
{
closed = 1;
nodes = (
(263,77,l),
(543,539,l),
(452,539,l),
(172,77,l)
);
}
);
width = 720;
}
);
unicode = 248;
},
{
glyphname = oe;
lastChange = "2024-06-02 23:35:46 +0000";
layers = (
{
layerId = m01;
shapes = (
{
closed = 1;
nodes = (
(363,-16,o),
(399,112,o),
(399,301,cs),
(399,485,o),
(364,616,o),
(217,616,cs),
(70,616,o),
(35,485,o),
(35,301,cs),
(35,112,o),
(71,-16,o),
(217,-16,cs)
);
},
{
closed = 1;
nodes = (
(139,64,o),
(125,165,o),
(125,301,cs),
(125,433,o),
(130,536,o),
(219,536,cs),
(308,536,o),
(312,433,o),
(312,301,cs),
(312,165,o),
(299,64,o),
(219,64,cs)
);
},
{
closed = 1;
nodes = (
(696,469,o),
(656,613,o),
(519,613,cs),
(381,613,o),
(313,482,o),
(313,298,cs),
(313,109,o),
(393,-16,o),
(528,-16,cs),
(588,-16,o),
(615,-8,o),
(656,6,c),
(641,82,l),
(607,66,o),
(568,63,o),
(528,63,cs),
(438,63,o),
(410,162,o),
(410,298,cs),
(410,430,o),
(425,533,o),
(508,533,cs),
(592,533,o),
(596,468,o),
(596,315,c),
(633,358,l),
(362,358,l),
(362,278,l),
(682,278,l)
);
}
);
width = 720;
}
);
unicode = 339;
},
{
glyphname = p;
lastChange = "2024-05-29 20:17:54 +0000";
layers = (
{
background = {
shapes = (
{
closed = 1;
nodes = (
(54,-199,l),
(359,-199,l),
(359,-111,l),
(54,-111,l)
);
},
{
closed = 1;
nodes = (
(141,-197,l),
(227,-197,l),
(227,600,l),
(141,600,l)
);
},
{
closed = 1;
nodes = (
(63,510,l),
(181,510,l),
(181,600,l),
(63,600,l)
);
},
{
closed = 1;
nodes = (
(227,260,l),
(227,453,o),
(316,524,o),
(405,524,cs),
(516,524,o),
(562,421,o),
(562,307,cs),
(562,137,o),
(467,74,o),
(383,74,cs),
(318,74,o),
(257,90,o),
(212,105,c),
(143,37,l),
(203,18,o),
(288,-16,o),
(401,-16,cs),
(580,-16,o),
(654,130,o),
(654,310,cs),
(654,486,o),
(563,618,o),
(409,618,cs),
(260,618,o),
(160,485,o),
(154,333,c)
);
}
);
};
layerId = m01;
shapes = (
{
closed = 1;
nodes = (
(286,616,o),
(209,541,o),
(174,318,c),
(227,431,l),
(227,600,l),
(63,601,l),
(63,521,l),
(141,521,l),
(141,-120,l),
(55,-120,l),
(55,-200,l),
(334,-200,l),
(334,-120,l),
(227,-120,l),
(227,267,ls),
(227,471,o),
(315,529,o),
(403,529,cs),
(514,529,o),
(560,419,o),
(560,305,cs),
(560,135,o),
(483,64,o),
(381,64,cs),
(316,64,o),
(255,76,o),
(210,103,c),
(150,43,l),
(225,0,o),
(286,-18,o),
(379,-18,cs),
(578,-18,o),
(652,128,o),
(652,308,cs),
(652,484,o),
(561,616,o),
(407,616,cs)
);
}
);
width = 720;
}
);
metricWidth = "=H";
unicode = 112;
},
{
glyphname = thorn;
lastChange = "2024-05-09 22:41:32 +0000";
layers = (
{
layerId = m01;
shapes = (
{
closed = 1;
nodes = (
(565,-13,o),
(652,112,o),
(652,301,cs),
(652,485,o),
(565,616,o),
(404,616,cs),
(262,616,o),
(158,475,o),
(158,301,cs),
(158,122,o),
(262,-13,o),
(404,-13,cs)
);
},
{
closed = 1;
nodes = (
(298,80,o),
(226,165,o),
(226,301,cs),
(226,433,o),
(306,525,o),
(405,524,cs),
(512,523,o),
(559,433,o),
(559,301,cs),
(559,165,o),
(512,80,o),
(404,80,cs)
);
},
{
closed = 1;
nodes = (
(49,-197,l),
(306,-197,l),
(306,-107,l),
(49,-107,l)
);
},
{
closed = 1;
nodes = (
(136,-197,l),
(222,-197,l),
(222,760,l),
(136,760,l)
);
},
{
closed = 1;
nodes = (
(58,670,l),
(176,670,l),
(176,760,l),
(58,760,l)
);
}
);
width = 720;
}
);
unicode = 254;
},
{
glyphname = q;
lastChange = "2024-05-29 20:23:19 +0000";
layers = (
{
background = {
shapes = (
{
closed = 1;
nodes = (
(552,531,o),
(472,616,o),
(333,616,cs),
(179,616,o),
(85,484,o),
(85,308,cs),
(85,119,o),
(173,-16,o),
(337,-16,cs),
(434,-16,o),
(522,34,o),
(581,73,c),
(518,137,l),
(480,110,o),
(431,73,o),
(365,73,cs),
(224,73,o),
(177,164,o),
(177,305,cs),
(177,419,o),
(236,522,o),
(347,522,cs),
(439,522,o),
(503,434,o),
(508,324,c),
(558,374,l)
);
},
{
closed = 1;
nodes = (
(376,-112,l),
(376,-200,l),
(681,-200,l),
(681,-112,l)
);
},
{
closed = 1;
nodes = (
(508,-200,l),
(594,-200,l),
(594,600,l),
(508,600,l)
);
}
);
};
layerId = m01;
shapes = (
{
closed = 1;
nodes = (
(466,530,o),
(413,539,o),
(357,539,cs),
(255,539,o),
(178,468,o),
(178,298,cs),
(178,184,o),
(224,74,o),
(335,74,cs),
(423,74,o),
(511,132,o),
(513,336,c),
(564,285,l),
(529,62,o),
(452,-13,o),
(331,-13,cs),
(177,-13,o),
(86,119,o),
(86,295,cs),
(86,475,o),
(160,621,o),
(359,621,cs),
(452,621,o),
(519,599,o),
(594,556,c),
(594,-120,l),
(681,-120,l),
(681,-200,l),
(376,-200,l),
(376,-120,l),
(508,-120,l),
(508,511,l)
);
}
);
width = 720;
}
);
metricWidth = "=H";
unicode = 113;
},
{
glyphname = r;
lastChange = "2024-07-12 05:37:00 +0000";
layers = (
{
background = {
shapes = (
{
closed = 1;
nodes = (
(131,520,l),
(249,520,l),
(249,600,l),
(131,600,l)
);
},
{
closed = 1;
nodes = (
(210,600,l),
(210,0,l),
(296,0,l),
(296,600,l)
);
},
{
closed = 1;
nodes = (
(130,0,l),
(376,0,l),
(376,80,l),
(130,80,l)
);
},
{
closed = 1;
nodes = (
(478,0,l),
(724,0,l),
(724,80,l),
(478,80,l)
);
},
{
closed = 1;
nodes = (
(644,424,ls),
(644,548,o),
(589,615,o),
(493,615,cs),
(424,615,o),
(336,561,o),
(250,463,c),
(296,417,l),
(366,490,o),
(429,532,o),
(479,532,cs),
(537,532,o),
(558,490,o),
(558,392,cs),
(558,60,l),
(644,60,l)
);
}
);
};
layerId = m01;
shapes = (
{
closed = 1;
nodes = (
(131,520,l),
(249,520,l),
(249,600,l),
(131,600,l)
);
},
{
closed = 1;
nodes = (
(210,600,l),
(210,0,l),
(296,0,l),
(296,600,l)
);
},
{
closed = 1;
nodes = (
(130,0,l),
(454,0,l),
(454,80,l),
(130,80,l)
);
},
{
closed = 1;
nodes = (
(644,353,l),
(644,424,ls),
(644,548,o),
(589,615,o),
(493,615,cs),
(424,615,o),
(350,571,o),
(250,463,c),
(296,417,l),
(361,485,o),
(429,532,o),
(479,532,cs),
(537,532,o),
(558,490,o),
(558,392,cs),
(558,363,l)
);
}
);
width = 720;
}
);
metricWidth = "=H";
unicode = 114;
},
{
glyphname = s;
lastChange = "2024-07-12 05:38:52 +0000";
layers = (
{
background = {
shapes = (
{
closed = 1;
nodes = (
(486,473,o),
(442,529,o),
(362,529,cs),
(281,529,o),
(247,490,o),
(247,446,cs),
(247,387,o),
(302,372,o),
(392,348,cs),
(492,321,o),
(613,282,o),
(613,151,cs),
(613,41,o),
(529,-16,o),
(401,-16,cs),
(292,-16,o),
(205,32,o),
(169,113,c),
(209,211,l),
(239,104,o),
(333,72,o),
(398,72,cs),
(473,72,o),
(525,95,o),
(525,157,cs),
(525,217,o),
(457,240,o),
(378,259,cs),
(292,280,o),
(164,293,o),
(164,442,cs),
(164,563,o),
(263,617,o),
(376,617,cs),
(484,617,o),
(541,534,o),
(573,469,c),
(509,418,l)
);
},
{
closed = 1;
nodes = (
(212,-8,l),
(130,-8,l),
(130,211,l),
(212,211,l)
);
},
{
closed = 1;
nodes = (
(591,418,l),
(509,418,l),
(509,607,l),
(591,607,l)
);
}
);
};
layerId = m01;
shapes = (
{
closed = 1;
nodes = (
(207,33,o),
(315,-16,o),
(402,-16,cs),
(526,-16,o),
(602,50,o),
(602,151,cs),
(602,285,o),
(480,322,o),
(380,347,cs),
(290,369,o),
(218,394,o),
(218,456,cs),
(218,500,o),
(258,534,o),
(332,534,cs),
(430,534,o),
(459,493,o),
(482,438,c),
(564,438,l),
(564,607,l),
(482,607,l),
(482,466,l),
(530,479,l),
(507,554,o),
(443,616,o),
(330,616,cs),
(229,616,o),
(135,567,o),
(135,452,cs),
(135,314,o),
(270,284,o),
(355,263,cs),
(443,241,o),
(510,214,o),
(510,149,cs),
(510,92,o),
(469,66,o),
(394,66,cs),
(330,66,o),
(253,102,o),
(200,201,c),
(117,201,l),
(117,-8,l),
(200,-8,l),
(200,147,l),
(168,142,l)
);
}
);
width = 720;
}
);
metricWidth = "=H";
unicode = 115;
},
{
glyphname = t;
lastChange = "2024-06-02 23:04:03 +0000";
layers = (
{
anchors = (
{
name = bottom;
pos = (360,0);
},
{
name = center;
pos = (360,300);
},
{
name = top;
pos = (360,750);
},
{
name = topright;
pos = (700,830);
}
);
background = {
shapes = (
{
closed = 1;
nodes = (
(511,600,l),
(97,600,l),
(97,510,l),
(511,510,l)
);
},
{
closed = 1;
nodes = (
(305,750,l),
(219,750,l),
(219,195,ls),
(219,58,o),
(301,-16,o),
(426,-16,cs),
(561,-16,o),
(628,86,o),
(628,250,c),
(542,250,l),
(542,127,o),
(493,74,o),
(425,74,cs),
(345,74,o),
(305,119,o),
(305,238,cs)
);
}
);
};
layerId = m01;
shapes = (
{
closed = 1;
nodes = (
(545,600,l),
(131,600,l),
(131,520,l),
(545,520,l)
);
},
{
closed = 1;
nodes = (
(576,81,l),
(518,70,o),
(428,55,o),
(385,81,cs),
(354,100,o),
(339,146,o),
(339,222,cs),
(339,750,l),
(253,750,l),
(253,195,ls),
(253,59,o),
(316,-15,o),
(425,-15,cs),
(471,-15,o),
(545,-10,o),
(590,0,c)
);
}
);
width = 720;
}
);
metricWidth = "=H";
unicode = 116;
},
{
glyphname = u;
lastChange = "2024-06-02 23:05:51 +0000";
layers = (
{
background = {
shapes = (
{
closed = 1;
nodes = (
(603,599,l),
(437,599,l),
(437,511,l),
(517,511,l),
(517,140,ls),
(517,36,o),
(555,0,o),
(637,0,cs),
(685,0,l),
(685,90,l),
(645,90,ls),
(619,90,o),
(603,104,o),
(603,130,cs)
);
},
{
closed = 1;
nodes = (
(255,599,l),
(89,599,l),
(89,511,l),
(169,511,l),
(169,175,ls),
(169,51,o),
(224,-16,o),
(340,-16,cs),
(417,-16,o),
(482,21,o),
(570,99,c),
(517,152,l),
(447,90,o),
(394,67,o),
(344,67,cs),
(276,67,o),
(255,119,o),
(255,217,cs)
);
}
);
};
layerId = m01;
shapes = (
{
closed = 1;
nodes = (
(226,600,l),
(76,600,l),
(76,520,l),
(140,520,l),
(140,176,ls),
(140,52,o),
(195,-15,o),
(291,-15,cs),
(360,-15,o),
(448,39,o),
(534,137,c),
(488,183,l),
(418,110,o),
(355,68,o),
(305,68,cs),
(247,68,o),
(226,110,o),
(226,208,cs)
);
},
{
closed = 1;
nodes = (
(574,599,l),
(408,599,l),
(408,519,l),
(488,519,l),
(488,140,ls),
(488,36,o),
(526,0,o),
(608,0,cs),
(656,0,l),
(656,80,l),
(610,80,ls),
(584,80,o),
(574,104,o),
(574,130,cs)
);
}
);
width = 720;
}
);
metricWidth = "=H";
unicode = 117;
},
{
glyphname = v;
lastChange = "2024-05-29 20:35:06 +0000";
layers = (
{
background = {
shapes = (
{
closed = 1;
nodes = (
(93,512,l),
(339,512,l),
(339,600,l),
(93,600,l)
);
},
{
closed = 1;
nodes = (
(441,512,l),
(687,512,l),
(687,600,l),
(441,600,l)
);
},
{
closed = 1;
nodes = (
(349,0,l),
(433,0,l),
(217,569,l),
(133,569,l)
);
},
{
closed = 1;
nodes = (
(565,569,l),
(349,0,l),
(433,0,l),
(649,569,l)
);
}
);
};
layerId = m01;
shapes = (
{
closed = 1;
nodes = (
(53,520,l),
(299,520,l),
(299,600,l),
(53,600,l)
);
},
{
closed = 1;
nodes = (
(401,520,l),
(647,520,l),
(647,600,l),
(401,600,l)
);
},
{
closed = 1;
nodes = (
(103,570,l),
(299,0,l),
(383,0,l),
(599,569,l),
(509,571,l),
(323,85,l),
(359,86,l),
(195,570,l)
);
}
);
width = 720;
}
);
metricWidth = "=H";
unicode = 118;
},
{
glyphname = w;
lastChange = "2024-05-29 20:35:21 +0000";
layers = (
{
background = {
shapes = (
{
closed = 1;
nodes = (
(486,512,l),
(732,512,l),
(732,600,l),
(486,600,l)
);
},
{
closed = 1;
nodes = (
(600,569,l),
(492,0,l),
(576,0,l),
(684,569,l)
);
},
{
closed = 1;
nodes = (
(48,600,l),
(48,512,l),
(294,512,l),
(294,600,l)
);
},
{
closed = 1;
nodes = (
(204,0,l),
(288,0,l),
(180,569,l),
(96,569,l)
);
},
{
closed = 1;
nodes = (
(350,404,l),
(204,0,l),
(288,0,l),
(431,404,l)
);
},
{
closed = 1;
nodes = (
(492,0,l),
(576,0,l),
(431,404,l),
(350,404,l)
);
}
);
};
layerId = m01;
shapes = (
{
closed = 1;
nodes = (
(436,522,l),
(674,522,l),
(674,600,l),
(436,600,l)
);
},
{
closed = 1;
nodes = (
(46,600,l),
(46,522,l),
(284,522,l),
(284,600,l)
);
},
{
closed = 1;
nodes = (
(179,0,l),
(263,0,l),
(382,334,l),
(350,334,l),
(472,0,l),
(555,0,l),
(627,569,l),
(536,569,l),
(488,106,l),
(518,106,l),
(407,404,l),
(326,404,l),
(218,106,l),
(246,106,l),
(187,569,l),
(99,569,l)
);
}
);
width = 720;
}
);
metricWidth = "=H";
unicode = 119;
},
{
glyphname = x;
lastChange = "2024-05-29 20:35:39 +0000";
layers = (
{
background = {
shapes = (
{
closed = 1;
nodes = (
(438,600,l),
(438,512,l),
(679,512,l),
(679,600,l)
);
},
{
closed = 1;
nodes = (
(450,325,l),
(627,569,l),
(523,569,l),
(400,397,l)
);
},
{
closed = 1;
nodes = (
(100,88,l),
(100,0,l),
(341,0,l),
(341,88,l)
);
},
{
closed = 1;
nodes = (
(100,512,l),
(341,512,l),
(341,600,l),
(100,600,l)
);
},
{
closed = 1;
nodes = (
(566,-1,l),
(630,45,l),
(256,569,l),
(152,569,l)
);
},
{
closed = 1;
nodes = (
(438,0,l),
(679,0,l),
(679,88,l),
(438,88,l)
);
},
{
closed = 1;
nodes = (
(400,397,l),
(149,45,l),
(213,-1,l),
(450,325,l)
);
}
);
};
layerId = m01;
shapes = (
{
closed = 1;
nodes = (
(408,600,l),
(408,520,l),
(649,520,l),
(649,600,l)
);
},
{
closed = 1;
nodes = (
(394,306,l),
(597,569,l),
(499,563,l),
(350,372,l)
);
},
{
closed = 1;
nodes = (
(70,80,l),
(70,0,l),
(311,0,l),
(311,80,l)
);
},
{
closed = 1;
nodes = (
(70,520,l),
(311,520,l),
(311,600,l),
(70,600,l)
);
},
{
closed = 1;
nodes = (
(536,-1,l),
(600,45,l),
(226,569,l),
(122,569,l)
);
},
{
closed = 1;
nodes = (
(408,0,l),
(649,0,l),
(649,80,l),
(408,80,l)
);
},
{
closed = 1;
nodes = (
(330,323,l),
(119,45,l),
(180,5,l),
(377,257,l)
);
}
);
width = 720;
}
);
metricWidth = "=H";
unicode = 120;
},
{
glyphname = y;
lastChange = "2024-05-29 20:36:39 +0000";
layers = (
{
layerId = m01;
shapes = (
{
closed = 1;
nodes = (
(63,522,l),
(309,522,l),
(309,600,l),
(63,600,l)
);
},
{
closed = 1;
nodes = (
(411,522,l),
(657,522,l),
(657,600,l),
(411,600,l)
);
},
{
closed = 1;
nodes = (
(319,40,l),
(377,129,l),
(204,569,l),
(112,569,l)
);
},
{
closed = 1;
nodes = (
(601,569,l),
(510,569,l),
(295,-16,ls),
(261,-110,o),
(175,-116,o),
(94,-116,c),
(115,-199,l),
(232,-199,o),
(338,-163,o),
(379,-28,c)
);
}
);
width = 720;
}
);
metricWidth = "=H";
unicode = 121;
},
{
glyphname = z;
lastChange = "2024-05-29 20:36:12 +0000";
layers = (
{
layerId = m01;
shapes = (
{
closed = 1;
nodes = (
(119,600,l),
(119,419,l),
(199,419,l),
(199,520,l),
(479,520,l),
(110,90,l),
(110,0,l),
(610,0,l),
(610,186,l),
(530,186,l),
(530,80,l),
(209,80,l),
(588,520,l),
(588,600,l)
);
}
);
width = 720;
}
);
metricWidth = "=H";
unicode = 122;
},
{
glyphname = s.CH;
lastChange = "2024-07-09 19:54:42 +0000";
layers = (
{
background = {
shapes = (
{
closed = 0;
nodes = (
(518,352,l)
);
},
{
closed = 1;
nodes = (
(226,28,o),
(320,-16,o),
(402,-16,cs),
(509,-16,o),
(602,50,o),
(602,151,cs),
(602,282,o),
(472,321,o),
(372,348,cs),
(282,372,o),
(221,387,o),
(221,446,cs),
(221,490,o),
(261,534,o),
(332,534,cs),
(422,534,o),
(451,493,o),
(474,438,c),
(556,438,l),
(556,607,l),
(474,607,l),
(474,466,l),
(525,499,l),
(502,554,o),
(425,616,o),
(330,616,cs),
(232,616,o),
(138,557,o),
(138,442,cs),
(138,301,o),
(273,283,o),
(358,259,cs),
(437,237,o),
(510,209,o),
(510,149,cs),
(510,105,o),
(469,66,o),
(394,66,cs),
(330,66,o),
(253,102,o),
(200,201,c),
(117,201,l),
(117,-8,l),
(200,-8,l),
(200,147,l),
(168,128,l)
);
}
);
};
layerId = m01;
shapes = (
{
closed = 1;
nodes = (
(207,33,o),
(315,-16,o),
(402,-16,cs),
(526,-16,o),
(602,50,o),
(602,151,cs),
(602,285,o),
(480,322,o),
(380,347,cs),
(290,369,o),
(218,394,o),
(218,456,cs),
(218,500,o),
(258,534,o),
(332,534,cs),
(430,534,o),
(459,493,o),
(482,438,c),
(564,438,l),
(564,607,l),
(482,607,l),
(482,466,l),
(530,479,l),
(507,554,o),
(443,616,o),
(330,616,cs),
(229,616,o),
(135,567,o),
(135,452,cs),
(135,314,o),
(270,284,o),
(355,263,cs),
(443,241,o),
(510,214,o),
(510,149,cs),
(510,92,o),
(469,66,o),
(394,66,cs),
(330,66,o),
(253,102,o),
(200,201,c),
(117,201,l),
(117,-8,l),
(200,-8,l),
(200,147,l),
(168,142,l)
);
}
);
width = 720;
}
);
metricWidth = "=H";
},
{
glyphname = fi;
lastChange = "2024-06-02 23:22:56 +0000";
layers = (
{
layerId = m01;
shapes = (
{
closed = 1;
nodes = (
(456,839,o),
(297,860,o),
(233,830,cs),
(187,809,o),
(148,775,o),
(148,639,cs),
(148,0,l),
(233,0,l),
(233,612,ls),
(233,688,o),
(244,732,o),
(275,750,cs),
(324,778,o),
(421,759,o),
(498,745,c),
(514,829,l)
);
},
{
closed = 1;
nodes = (
(55,80,l),
(55,0,l),
(665,0,l),
(665,80,l)
);
},
{
closed = 1;
nodes = (
(503,0,l),
(588,0,l),
(588,600,l),
(503,600,l)
);
},
{
closed = 1;
nodes = (
(55,510,l),
(566,510,l),
(566,600,l),
(55,600,l)
);
}
);
width = 720;
}
);
unicode = 64257;
},
{
glyphname = fl;
lastChange = "2024-06-02 23:21:57 +0000";
layers = (
{
layerId = m01;
shapes = (
{
closed = 1;
nodes = (
(53,600,l),
(53,510,l),
(387,510,l),
(387,600,l)
);
},
{
closed = 1;
nodes = (
(452,839,o),
(313,860,o),
(249,830,cs),
(203,809,o),
(164,775,o),
(164,639,cs),
(164,0,l),
(249,0,l),
(249,612,ls),
(249,688,o),
(260,733,o),
(291,751,cs),
(340,779,o),
(430,760,o),
(494,746,c),
(475,778,l),
(475,0,l),
(563,0,l),
(563,819,l),
(510,829,ls)
);
},
{
closed = 1;
nodes = (
(53,80,l),
(53,0,l),
(665,0,l),
(665,80,l)
);
}
);
width = 720;
}
);
unicode = 64258;
},
{
glyphname = ordmasculine;
lastChange = "2024-06-02 23:44:42 +0000";
layers = (
{
layerId = m01;
shapes = (
{
closed = 1;
nodes = (
(480,80,l),
(606,80,l),
(606,0,l),
(400,0,l),
(400,203,l),
(488,203,o),
(542,308,o),
(542,431,cs),
(542,583,o),
(488,696,o),
(360,696,cs),
(232,696,o),
(178,583,o),
(178,431,cs),
(178,309,o),
(234,203,o),
(319,203,c),
(319,0,l),
(113,0,l),
(113,80,l),
(239,80,l),
(239,178,l),
(297,131,l),
(168,131,o),
(86,272,o),
(86,431,cs),
(86,665,o),
(185,776,o),
(360,776,cs),
(535,776,o),
(635,665,o),
(635,431,cs),
(635,269,o),
(560,130,o),
(422,130,c),
(480,178,l)
);
}
);
width = 720;
}
);
unicode = 186;
},
{
glyphname = Lambda;
lastChange = "2024-05-09 22:41:57 +0000";
layers = (
{
layerId = m01;
shapes = (
{
closed = 1;
nodes = (
(313,0,l),
(313,88,l),
(40,88,l),
(40,0,l)
);
},
{
closed = 1;
nodes = (
(328,760,l),
(546,0,l),
(641,0,l),
(423,760,l)
);
},
{
closed = 1;
nodes = (
(680,0,l),
(680,89,l),
(407,89,l),
(407,0,l)
);
},
{
closed = 1;
nodes = (
(288,760,l),
(79,0,l),
(174,0,l),
(383,760,l)
);
}
);
width = 720;
}
);
unicode = 923;
},
{
glyphname = Omega;
lastChange = "2024-06-02 23:45:43 +0000";
layers = (
{
layerId = m01;
shapes = (
{
closed = 1;
nodes = (
(480,80,l),
(606,80,l),
(606,0,l),
(400,0,l),
(400,203,l),
(488,203,o),
(542,308,o),
(542,431,cs),
(542,583,o),
(488,696,o),
(360,696,cs),
(232,696,o),
(178,583,o),
(178,431,cs),
(178,309,o),
(234,203,o),
(319,203,c),
(319,0,l),
(113,0,l),
(113,80,l),
(239,80,l),
(239,178,l),
(297,131,l),
(168,131,o),
(86,272,o),
(86,431,cs),
(86,665,o),
(185,776,o),
(360,776,cs),
(535,776,o),
(635,665,o),
(635,431,cs),
(635,269,o),
(560,130,o),
(422,130,c),
(480,178,l)
);
}
);
width = 720;
}
);
unicode = 937;
},
{
glyphname = pi;
lastChange = "2024-06-02 23:47:17 +0000";
layers = (
{
layerId = m01;
shapes = (
{
closed = 1;
nodes = (
(149,599,l),
(149,0,l),
(244,0,l),
(244,599,l)
);
},
{
closed = 1;
nodes = (
(30,520,l),
(690,520,l),
(690,600,l),
(30,600,l)
);
},
{
closed = 1;
nodes = (
(654,65,l),
(637,67,o),
(620,71,o),
(607,78,cs),
(576,94,o),
(561,131,o),
(561,200,cs),
(561,600,l),
(467,600,l),
(467,195,ls),
(467,59,o),
(530,-15,o),
(639,-15,cs),
(644,-15,o),
(649,-15,o),
(654,-15,c)
);
}
);
width = 720;
}
);
unicode = 960;
},
{
glyphname = zero;
lastChange = "2024-05-29 19:44:46 +0000";
layers = (
{
layerId = m01;
shapes = (
{
closed = 1;
nodes = (
(538,-16,o),
(626,147,o),
(626,381,cs),
(626,620,o),
(538,776,o),
(360,776,cs),
(182,776,o),
(94,610,o),
(94,381,cs),
(94,147,o),
(182,-16,o),
(360,-16,cs)
);
},
{
closed = 1;
nodes = (
(235,66,o),
(186,199,o),
(186,381,cs),
(186,559,o),
(235,694,o),
(360,694,cs),
(485,694,o),
(534,559,o),
(534,381,cs),
(534,199,o),
(485,66,o),
(360,66,cs)
);
},
{
closed = 1;
nodes = (
(407,292,o),
(446,331,o),
(446,378,cs),
(446,425,o),
(407,464,o),
(360,464,cs),
(313,464,o),
(274,425,o),
(274,378,cs),
(274,331,o),
(313,292,o),
(360,292,cs)
);
}
);
width = 720;
}
);
unicode = 48;
},
{
glyphname = one;
lastChange = "2024-05-29 19:04:55 +0000";
layers = (
{
hints = (
{
horizontal = 1;
place = (720,30);
type = Stem;
}
);
layerId = m01;
shapes = (
{
closed = 1;
nodes = (
(120,0,l),
(670,0,l),
(670,82,l),
(120,82,l)
);
},
{
closed = 1;
nodes = (
(351,0,l),
(441,0,l),
(441,760,l),
(351,760,l)
);
},
{
closed = 1;
nodes = (
(186,477,l),
(300,491,o),
(404,587,o),
(432,691,c),
(348,760,l),
(348,652,o),
(279,578,o),
(159,553,c)
);
}
);
width = 720;
}
);
unicode = 49;
},
{
glyphname = two;
lastChange = "2024-07-12 05:38:59 +0000";
layers = (
{
background = {
shapes = (
{
closed = 1;
nodes = (
(127,0,l),
(627,0,l),
(627,88,l),
(209,88,l),
(215,56,l),
(409,255,ls),
(502,350,o),
(619,451,o),
(619,556,cs),
(619,682,o),
(526,767,o),
(402,767,cs),
(328,767,o),
(234,723,o),
(143,670,c),
(171,586,l),
(254,631,o),
(326,678,o),
(389,678,cs),
(465,678,o),
(525,638,o),
(525,561,cs),
(525,476,o),
(429,404,o),
(352,324,cs),
(127,88,l)
);
}
);
};
layerId = m01;
shapes = (
{
closed = 1;
nodes = (
(627,0,l),
(627,82,l),
(180,82,l),
(190,35,l),
(444,298,ls),
(568,426,o),
(621,485,o),
(619,595,cs),
(617,682,o),
(549,767,o),
(412,767,cs),
(304,767,o),
(203,727,o),
(125,662,c),
(171,597,l),
(248,651,o),
(322,684,o),
(405,684,cs),
(473,684,o),
(526,657,o),
(526,586,cs),
(526,505,o),
(475,454,o),
(385,359,cs),
(127,88,l),
(127,0,l)
);
}
);
width = 720;
}
);
unicode = 50;
},
{
glyphname = three;
lastChange = "2024-07-12 05:39:03 +0000";
layers = (
{
background = {
shapes = (
{
closed = 1;
nodes = (
(379,437,o),
(473,476,o),
(473,561,cs),
(473,635,o),
(421,686,o),
(354,686,cs),
(279,686,o),
(228,660,o),
(172,578,c),
(94,639,l),
(162,730,o),
(234,776,o),
(340,776,cs),
(468,776,o),
(575,695,o),
(575,561,cs),
(575,462,o),
(513,351,o),
(285,351,c),
(285,437,l)
);
},
{
closed = 1;
nodes = (
(285,436,l),
(520,436,o),
(597,317,o),
(597,218,cs),
(597,54,o),
(468,-16,o),
(340,-16,cs),
(193,-16,o),
(122,65,o),
(64,163,c),
(141,214,l),
(187,122,o),
(250,74,o),
(340,74,cs),
(413,74,o),
(493,115,o),
(493,211,cs),
(493,295,o),
(415,350,o),
(285,350,c)
);
}
);
};
layerId = m01;
shapes = (
{
closed = 1;
nodes = (
(578,710,o),
(485,776,o),
(367,776,cs),
(273,776,o),
(183,737,o),
(124,688,c),
(174,623,l),
(243,676,o),
(301,694,o),
(360,694,cs),
(432,694,o),
(487,653,o),
(487,583,cs),
(487,481.007,o),
(418,437,o),
(312,436,cs),
(250,435,l),
(251,353,l),
(313,353,ls),
(442,353,o),
(533,306,o),
(533,211,cs),
(533,123,o),
(471,66,o),
(364,66,cs),
(271,66,o),
(214,80,o),
(121,123,c),
(84,47,l),
(166,1,o),
(263,-16,o),
(365,-16,cs),
(544,-16,o),
(625,81,o),
(625,207,cs),
(625,311,o),
(547,386,o),
(439,410,c),
(436,393,l),
(526,427,o),
(578,491,o),
(578,593,cs)
);
}
);
width = 720;
}
);
unicode = 51;
},
{
glyphname = four;
lastChange = "2024-05-29 19:05:59 +0000";
layers = (
{
layerId = m01;
shapes = (
{
closed = 1;
nodes = (
(217,0,l),
(627,0,l),
(627,82,l),
(217,82,l)
);
},
{
closed = 1;
nodes = (
(378,0,l),
(468,1,l),
(468,761,l),
(378,760,l)
);
},
{
closed = 1;
nodes = (
(168,684,l),
(45,243,l),
(633,243,l),
(633,325,l),
(161,325,l),
(250,659,l)
);
}
);
width = 720;
}
);
unicode = 52;
},
{
glyphname = five;
lastChange = "2024-05-29 19:47:15 +0000";
layers = (
{
background = {
shapes = (
{
closed = 1;
nodes = (
(155,436,l),
(250,471,o),
(329,488,o),
(392,488,cs),
(552,488,o),
(657,393,o),
(657,238,cs),
(657,74,o),
(538,-16,o),
(400,-16,cs),
(253,-16,o),
(162,65,o),
(104,163,c),
(181,214,l),
(227,122,o),
(310,74,o),
(400,74,cs),
(483,74,o),
(553,135,o),
(553,231,cs),
(553,329,o),
(501,407,o),
(375,407,cs),
(292,407,o),
(244,382,o),
(155,331,c)
);
},
{
closed = 1;
nodes = (
(599,760,l),
(599,672,l),
(250,672,l),
(250,407,l),
(155,358,l),
(155,760,l)
);
}
);
};
layerId = m01;
shapes = (
{
closed = 1;
nodes = (
(150,691,l),
(240,691,l),
(240,394,l),
(159,420,l),
(231,450,o),
(290,465,o),
(373,465,cs),
(533,465,o),
(636,358,o),
(636,233,cs),
(636,72,o),
(527,-16,o),
(375,-16,cs),
(293,-16,o),
(191,6,o),
(96,44,c),
(125,122,l),
(212,80,o),
(294,66,o),
(362,66,cs),
(465,66,o),
(544,117,o),
(544,229,cs),
(544,312,o),
(482,382,o),
(348,383,cs),
(289,383,o),
(221,365,o),
(149,326,c)
);
},
{
closed = 1;
nodes = (
(568,760,l),
(568,678,l),
(150,678,l),
(150,760,l)
);
}
);
width = 720;
}
);
unicode = 53;
},
{
glyphname = six;
lastChange = "2024-05-29 19:47:31 +0000";
layers = (
{
layerId = m01;
shapes = (
{
closed = 1;
nodes = (
(536,652,l),
(495,672,o),
(449,681,o),
(413,681,cs),
(261,681,o),
(191,557,o),
(191,334,cs),
(191,152,o),
(270,66,o),
(370,66,cs),
(480,66,o),
(541,138,o),
(541,238,cs),
(541,328,o),
(481,396,o),
(363,396,cs),
(308,396,o),
(233,380,o),
(183,323,c),
(133,378,l),
(203,449,o),
(278,478,o),
(361,478,cs),
(544,478,o),
(633,360,o),
(633,245,cs),
(633,80,o),
(520,-16,o),
(381,-16,cs),
(228,-16,o),
(100,79,o),
(100,354,cs),
(100,626,o),
(229,762,o),
(407,762,cs),
(459,762,o),
(504,755,o),
(562,732,c)
);
}
);
width = 720;
}
);
unicode = 54;
},
{
glyphname = seven;
lastChange = "2024-05-29 19:51:07 +0000";
layers = (
{
layerId = m01;
shapes = (
{
closed = 1;
nodes = (
(118,678,l),
(118,760,l),
(601,760,l),
(601,678,l),
(333,1,l),
(238,1,l),
(531,740,l),
(585,678,l)
);
}
);
width = 720;
}
);
unicode = 55;
},
{
glyphname = eight;
lastChange = "2024-05-29 19:49:31 +0000";
layers = (
{
background = {
shapes = (
{
closed = 1;
nodes = (
(454,419,o),
(523,476,o),
(523,561,cs),
(523,635,o),
(471,686,o),
(394,686,cs),
(319,686,o),
(258,660,o),
(202,578,c),
(124,639,l),
(192,730,o),
(274,776,o),
(380,776,cs),
(518,776,o),
(625,695,o),
(625,561,cs),
(625,462,o),
(543,351,o),
(315,351,c),
(315,419,l)
);
},
{
closed = 1;
nodes = (
(315,419,l),
(549,419,o),
(627,317,o),
(627,218,cs),
(627,54,o),
(508,-16,o),
(370,-16,cs),
(223,-16,o),
(152,65,o),
(94,163,c),
(171,214,l),
(217,122,o),
(280,74,o),
(370,74,cs),
(453,74,o),
(523,115,o),
(523,211,cs),
(523,282,o),
(488,351,o),
(315,351,c)
);
}
);
};
layerId = m01;
shapes = (
{
closed = 1;
nodes = (
(505,360,o),
(595,439,o),
(595,568,cs),
(595,695,o),
(501,778,o),
(360,778,cs),
(219,778,o),
(125,695,o),
(125,568,cs),
(125,439,o),
(215,360,o),
(360,360,cs)
);
},
{
closed = 1;
nodes = (
(262,442,o),
(215,502,o),
(215,568,cs),
(215,639,o),
(270,696,o),
(360,696,cs),
(450,696,o),
(505,639,o),
(505,568,cs),
(505,502,o),
(458,442,o),
(360,442,cs)
);
},
{
closed = 1;
nodes = (
(488,-16,o),
(625,45,o),
(625,216,cs),
(625,352,o),
(505,442,o),
(360,442,cs),
(215,442,o),
(95,352,o),
(95,216,cs),
(95,45,o),
(232,-16,o),
(360,-16,cs)
);
},
{
closed = 1;
nodes = (
(250,66,o),
(187,124,o),
(187,217,cs),
(187,287,o),
(240,360,o),
(360,360,cs),
(480,360,o),
(533,287,o),
(533,217,cs),
(533,124,o),
(470,66,o),
(360,66,cs)
);
}
);
width = 720;
}
);
unicode = 56;
},
{
glyphname = two.CH;
lastChange = "2024-07-09 19:54:47 +0000";
layers = (
{
background = {
shapes = (
{
closed = 1;
nodes = (
(627,0,l),
(627,82,l),
(180,82,l),
(190,35,l),
(412,262,ls),
(560,413,o),
(624,470,o),
(622,575,cs),
(620,682,o),
(553,767,o),
(416,767,cs),
(308,767,o),
(207,723,o),
(125,660,c),
(171,596,l),
(251,649,o),
(326,684,o),
(409,684,cs),
(465,684,o),
(530,655,o),
(530,572,cs),
(530,491,o),
(472,450,o),
(352,324,cs),
(127,88,l),
(127,0,l)
);
}
);
};
layerId = m01;
shapes = (
{
closed = 1;
nodes = (
(627,0,l),
(627,82,l),
(180,82,l),
(190,35,l),
(444,298,ls),
(568,426,o),
(621,485,o),
(619,595,cs),
(617,682,o),
(549,767,o),
(412,767,cs),
(304,767,o),
(203,727,o),
(125,662,c),
(171,597,l),
(248,651,o),
(322,684,o),
(405,684,cs),
(473,684,o),
(526,657,o),
(526,586,cs),
(526,505,o),
(475,454,o),
(385,359,cs),
(127,88,l),
(127,0,l)
);
}
);
width = 720;
}
);
},
{
glyphname = three.CH;
lastChange = "2024-07-09 19:54:52 +0000";
layers = (
{
background = {
shapes = (
{
closed = 1;
nodes = (
(578,698,o),
(484,776,o),
(355,776,cs),
(282,776,o),
(204,740,o),
(136,691,c),
(174,620,l),
(243,673,o),
(301,694,o),
(360,694,cs),
(432,694,o),
(487,653,o),
(487,566,cs),
(487,474,o),
(394,431,o),
(250,435,c),
(251,353,l),
(433,356,o),
(506,301,o),
(506,211,cs),
(506,123,o),
(444,66,o),
(344,66,cs),
(271,66,o),
(216,80,o),
(123,123,c),
(96,44,l),
(191,4,o),
(273,-16,o),
(355,-16,cs),
(497,-16,o),
(598,81,o),
(598,208,cs),
(598,338,o),
(491,438,o),
(256,435,c),
(256,353,l),
(484,348,o),
(578,452,o),
(578,571,cs)
);
}
);
};
layerId = m01;
shapes = (
{
closed = 1;
nodes = (
(578,710,o),
(485,776,o),
(367,776,cs),
(273,776,o),
(183,737,o),
(124,688,c),
(174,623,l),
(243,676,o),
(301,694,o),
(360,694,cs),
(432,694,o),
(487,653,o),
(487,583,cs),
(487,481.007,o),
(418,437,o),
(312,436,cs),
(250,435,l),
(251,353,l),
(313,353,ls),
(442,353,o),
(533,306,o),
(533,211,cs),
(533,123,o),
(471,66,o),
(364,66,cs),
(271,66,o),
(214,80,o),
(121,123,c),
(84,47,l),
(166,1,o),
(263,-16,o),
(365,-16,cs),
(544,-16,o),
(625,81,o),
(625,207,cs),
(625,311,o),
(547,386,o),
(439,410,c),
(436,393,l),
(526,427,o),
(578,491,o),
(578,593,cs)
);
}
);
width = 720;
}
);
},
{
glyphname = zero.dnom;
lastChange = "2024-04-29 16:01:55 +0000";
layers = (
{
background = {
shapes = (
{
closed = 1;
nodes = (
(297,429,o),
(358,500,o),
(358,603,cs),
(358,707,o),
(297,776,o),
(196,776,cs),
(95,776,o),
(34,703,o),
(34,603,cs),
(34,500,o),
(95,429,o),
(196,429,cs)
);
},
{
closed = 1;
nodes = (
(140,509,o),
(118,547,o),
(118,603,cs),
(118,657,o),
(140,696,o),
(196,696,cs),
(253,696,o),
(274,657,o),
(274,603,cs),
(274,547,o),
(253,509,o),
(196,509,cs)
);
},
{
closed = 1;
nodes = (
(686,494,l),
(653,568,l),
(53,281,l),
(87,207,l)
);
},
{
closed = 1;
nodes = (
(625,-12,o),
(686,59,o),
(686,162,cs),
(686,266,o),
(625,335,o),
(524,335,cs),
(423,335,o),
(362,262,o),
(362,162,cs),
(362,59,o),
(423,-12,o),
(524,-12,cs)
);
},
{
closed = 1;
nodes = (
(468,68,o),
(446,106,o),
(446,162,cs),
(446,216,o),
(468,255,o),
(524,255,cs),
(581,255,o),
(602,216,o),
(602,162,cs),
(602,106,o),
(581,68,o),
(524,68,cs)
);
}
);
};
layerId = m01;
shapes = (
{
closed = 1;
nodes = (
(297,429,o),
(358,500,o),
(358,603,cs),
(358,707,o),
(297,776,o),
(196,776,cs),
(95,776,o),
(34,703,o),
(34,603,cs),
(34,500,o),
(95,429,o),
(196,429,cs)
);
},
{
closed = 1;
nodes = (
(140,509,o),
(118,547,o),
(118,603,cs),
(118,657,o),
(140,696,o),
(196,696,cs),
(253,696,o),
(274,657,o),
(274,603,cs),
(274,547,o),
(253,509,o),
(196,509,cs)
);
}
);
width = 720;
}
);
},
{
glyphname = one.dnom;
lastChange = "2024-04-29 16:59:28 +0000";
layers = (
{
background = {
guides = (
{
pos = (196,429);
}
);
shapes = (
{
closed = 1;
nodes = (
(297,429,o),
(358,500,o),
(358,603,cs),
(358,707,o),
(297,776,o),
(196,776,cs),
(95,776,o),
(34,703,o),
(34,603,cs),
(34,500,o),
(95,429,o),
(196,429,cs)
);
},
{
closed = 1;
nodes = (
(140,509,o),
(118,547,o),
(118,603,cs),
(118,657,o),
(140,696,o),
(196,696,cs),
(253,696,o),
(274,657,o),
(274,603,cs),
(274,547,o),
(253,509,o),
(196,509,cs)
);
},
{
closed = 1;
nodes = (
(686,494,l),
(653,568,l),
(53,281,l),
(87,207,l)
);
},
{
closed = 1;
nodes = (
(625,-12,o),
(686,59,o),
(686,162,cs),
(686,266,o),
(625,335,o),
(524,335,cs),
(423,335,o),
(362,262,o),
(362,162,cs),
(362,59,o),
(423,-12,o),
(524,-12,cs)
);
},
{
closed = 1;
nodes = (
(468,68,o),
(446,106,o),
(446,162,cs),
(446,216,o),
(468,255,o),
(524,255,cs),
(581,255,o),
(602,216,o),
(602,162,cs),
(602,106,o),
(581,68,o),
(524,68,cs)
);
}
);
};
hints = (
{
horizontal = 1;
origin = (0,0);
target = (1,0);
type = Stem;
},
{
horizontal = 1;
origin = (1,0);
target = (0,0);
type = Stem;
},
{
horizontal = 1;
origin = (0,1);
target = up;
type = BottomGhost;
}
);
layerId = m01;
shapes = (
{
closed = 1;
nodes = (
(61,439,l),
(336,439,l),
(336,513,l),
(61,513,l)
);
},
{
closed = 1;
nodes = (
(170,439,l),
(244,439,l),
(244,760,l),
(170,760,l)
);
},
{
closed = 1;
nodes = (
(69,595,l),
(157,595,o),
(213,662,o),
(213,710,c),
(170,760,l),
(170,704,o),
(126,664,o),
(69,664,c)
);
}
);
width = 720;
}
);
},
{
glyphname = two.dnom;
lastChange = "2024-04-29 16:00:54 +0000";
layers = (
{
background = {
shapes = (
{
closed = 1;
nodes = (
(297,429,o),
(358,500,o),
(358,603,cs),
(358,707,o),
(297,776,o),
(196,776,cs),
(95,776,o),
(34,703,o),
(34,603,cs),
(34,500,o),
(95,429,o),
(196,429,cs)
);
},
{
closed = 1;
nodes = (
(140,509,o),
(118,547,o),
(118,603,cs),
(118,657,o),
(140,696,o),
(196,696,cs),
(253,696,o),
(274,657,o),
(274,603,cs),
(274,547,o),
(253,509,o),
(196,509,cs)
);
},
{
closed = 1;
nodes = (
(686,494,l),
(653,568,l),
(53,281,l),
(87,207,l)
);
},
{
closed = 1;
nodes = (
(625,-12,o),
(686,59,o),
(686,162,cs),
(686,266,o),
(625,335,o),
(524,335,cs),
(423,335,o),
(362,262,o),
(362,162,cs),
(362,59,o),
(423,-12,o),
(524,-12,cs)
);
},
{
closed = 1;
nodes = (
(468,68,o),
(446,106,o),
(446,162,cs),
(446,216,o),
(468,255,o),
(524,255,cs),
(581,255,o),
(602,216,o),
(602,162,cs),
(602,106,o),
(581,68,o),
(524,68,cs)
);
}
);
};
layerId = m01;
shapes = (
{
closed = 1;
nodes = (
(131,442,l),
(142,453,o),
(202,509,o),
(257,556,cs),
(296,589,o),
(315,632,o),
(315,671,cs),
(315,727,o),
(274,776,o),
(196,776,cs),
(135,776,o),
(101,741,o),
(76,698,c),
(139,665,l),
(151,694,o),
(177,708,o),
(200,708,cs),
(222,708,o),
(241,695,o),
(241,669,cs),
(241,643,o),
(227,630,o),
(192,597,cs),
(140,549,o),
(114,529,o),
(89,513,c)
);
},
{
closed = 1;
nodes = (
(89,439,l),
(321,439,l),
(321,513,l),
(89,513,l)
);
}
);
width = 720;
}
);
},
{
glyphname = three.dnom;
lastChange = "2024-05-08 00:18:36 +0000";
layers = (
{
background = {
shapes = (
{
closed = 1;
nodes = (
(210,638,o),
(229,653,o),
(229,677,cs),
(229,696,o),
(214,708,o),
(194,708,cs),
(174,708,o),
(158,702,o),
(143,680,c),
(71,713,l),
(105,755,o),
(141,776,o),
(194,776,cs),
(259,776,o),
(314,738,o),
(314,677,cs),
(314,630,o),
(263,579,o),
(161,576,c),
(161,638,l)
);
},
{
closed = 1;
nodes = (
(161,637,l),
(270,637,o),
(331,587,o),
(331,530,cs),
(331,462,o),
(261,429,o),
(194,429,cs),
(119,429,o),
(82,467,o),
(50,513,c),
(134,539,l),
(147,513,o),
(164,503,o),
(189,503,cs),
(211,503,o),
(233,512,o),
(233,537,cs),
(233,559,o),
(214,575,o),
(161,575,c)
);
}
);
};
layerId = m01;
shapes = (
{
closed = 1;
nodes = (
(214,575,o),
(233,559,o),
(233,537,cs),
(233,512,o),
(211,503,o),
(189,503,cs),
(164,503,o),
(147,513,o),
(134,539,c),
(50,513,l),
(82,467,o),
(119,429,o),
(194,429,cs),
(261,429,o),
(331,462,o),
(331,530,cs),
(331,587,o),
(271,628,o),
(162,628,c),
(162,585,l),
(264,588,o),
(314,629,o),
(314,676,cs),
(314,737,o),
(259,775,o),
(194,775,cs),
(141,775,o),
(105,754,o),
(71,712,c),
(143,679,l),
(158,701,o),
(174,707,o),
(194,707,cs),
(214,707,o),
(229,695,o),
(229,676,cs),
(229,652,o),
(210,637,o),
(161,637,c),
(161,575,l)
);
}
);
width = 720;
}
);
},
{
glyphname = four.dnom;
lastChange = "2024-04-29 16:45:26 +0000";
layers = (
{
background = {
shapes = (
{
closed = 1;
nodes = (
(297,429,o),
(358,500,o),
(358,603,cs),
(358,707,o),
(297,776,o),
(196,776,cs),
(95,776,o),
(34,703,o),
(34,603,cs),
(34,500,o),
(95,429,o),
(196,429,cs)
);
},
{
closed = 1;
nodes = (
(140,509,o),
(118,547,o),
(118,603,cs),
(118,657,o),
(140,696,o),
(196,696,cs),
(253,696,o),
(274,657,o),
(274,603,cs),
(274,547,o),
(253,509,o),
(196,509,cs)
);
},
{
closed = 1;
nodes = (
(686,494,l),
(653,568,l),
(53,281,l),
(87,207,l)
);
},
{
closed = 1;
nodes = (
(625,-12,o),
(686,59,o),
(686,162,cs),
(686,266,o),
(625,335,o),
(524,335,cs),
(423,335,o),
(362,262,o),
(362,162,cs),
(362,59,o),
(423,-12,o),
(524,-12,cs)
);
},
{
closed = 1;
nodes = (
(468,68,o),
(446,106,o),
(446,162,cs),
(446,216,o),
(468,255,o),
(524,255,cs),
(581,255,o),
(602,216,o),
(602,162,cs),
(602,106,o),
(581,68,o),
(524,68,cs)
);
}
);
};
layerId = m01;
shapes = (
{
closed = 1;
nodes = (
(127,439,l),
(315,439,l),
(315,506,l),
(127,506,l)
);
},
{
closed = 1;
nodes = (
(181,439,l),
(255,439,l),
(255,760,l),
(181,760,l)
);
},
{
closed = 1;
nodes = (
(79,738,l),
(22,551,l),
(306,551,l),
(306,620,l),
(116,620,l),
(152,727,l)
);
}
);
width = 720;
}
);
},
{
glyphname = five.dnom;
lastChange = "2024-04-29 17:12:34 +0000";
layers = (
{
background = {
shapes = (
{
closed = 1;
nodes = (
(297,429,o),
(358,500,o),
(358,603,cs),
(358,707,o),
(297,776,o),
(196,776,cs),
(95,776,o),
(34,703,o),
(34,603,cs),
(34,500,o),
(95,429,o),
(196,429,cs)
);
},
{
closed = 1;
nodes = (
(140,509,o),
(118,547,o),
(118,603,cs),
(118,657,o),
(140,696,o),
(196,696,cs),
(253,696,o),
(274,657,o),
(274,603,cs),
(274,547,o),
(253,509,o),
(196,509,cs)
);
},
{
closed = 1;
nodes = (
(686,494,l),
(653,568,l),
(53,281,l),
(87,207,l)
);
},
{
closed = 1;
nodes = (
(625,-12,o),
(686,59,o),
(686,162,cs),
(686,266,o),
(625,335,o),
(524,335,cs),
(423,335,o),
(362,262,o),
(362,162,cs),
(362,59,o),
(423,-12,o),
(524,-12,cs)
);
},
{
closed = 1;
nodes = (
(468,68,o),
(446,106,o),
(446,162,cs),
(446,216,o),
(468,255,o),
(524,255,cs),
(581,255,o),
(602,216,o),
(602,162,cs),
(602,106,o),
(581,68,o),
(524,68,cs)
);
}
);
};
layerId = m01;
shapes = (
{
closed = 1;
nodes = (
(100,623,l),
(210,674,o),
(314,626,o),
(314,538,cs),
(314,464,o),
(269,429,o),
(201,429,cs),
(142,429,o),
(104,459,o),
(79,501,c),
(143,535,l),
(155,511,o),
(176,499,o),
(197,499,cs),
(226,499,o),
(239,516,o),
(239,540,cs),
(239,578,o),
(162,593,o),
(100,550,c)
);
},
{
closed = 1;
nodes = (
(172,730,l),
(172,611,l),
(100,623,l),
(101,730,l)
);
},
{
closed = 1;
nodes = (
(289,760,l),
(289,687,l),
(101,687,l),
(101,760,l)
);
}
);
width = 720;
}
);
},
{
glyphname = six.dnom;
lastChange = "2024-04-29 17:13:00 +0000";
layers = (
{
background = {
shapes = (
{
closed = 1;
nodes = (
(297,429,o),
(358,500,o),
(358,603,cs),
(358,707,o),
(297,776,o),
(196,776,cs),
(95,776,o),
(34,703,o),
(34,603,cs),
(34,500,o),
(95,429,o),
(196,429,cs)
);
},
{
closed = 1;
nodes = (
(140,509,o),
(118,547,o),
(118,603,cs),
(118,657,o),
(140,696,o),
(196,696,cs),
(253,696,o),
(274,657,o),
(274,603,cs),
(274,547,o),
(253,509,o),
(196,509,cs)
);
},
{
closed = 1;
nodes = (
(686,494,l),
(653,568,l),
(53,281,l),
(87,207,l)
);
},
{
closed = 1;
nodes = (
(625,-12,o),
(686,59,o),
(686,162,cs),
(686,266,o),
(625,335,o),
(524,335,cs),
(423,335,o),
(362,262,o),
(362,162,cs),
(362,59,o),
(423,-12,o),
(524,-12,cs)
);
},
{
closed = 1;
nodes = (
(468,68,o),
(446,106,o),
(446,162,cs),
(446,216,o),
(468,255,o),
(524,255,cs),
(581,255,o),
(602,216,o),
(602,162,cs),
(602,106,o),
(581,68,o),
(524,68,cs)
);
}
);
};
layerId = m01;
shapes = (
{
closed = 1;
nodes = (
(259,695,l),
(250,699,o),
(233,713,o),
(204,713,cs),
(170,713,o),
(132,695,o),
(132,595,cs),
(132,529,o),
(167,504,o),
(197,504,cs),
(222,504,o),
(246,523,o),
(246,550,cs),
(246,576,o),
(226,591,o),
(197,591,cs),
(173,591,o),
(141,583,o),
(128,544,c),
(95,613,l),
(116,642,o),
(155,660,o),
(202,660,cs),
(279,660,o),
(318,604,o),
(318,545,cs),
(318,487,o),
(279,429,o),
(199,429,cs),
(118,429,o),
(59,495,o),
(59,593,cs),
(59,703,o),
(116,777,o),
(201,777,cs),
(229,777,o),
(267,767,o),
(287,753,c)
);
}
);
width = 720;
}
);
},
{
glyphname = seven.dnom;
lastChange = "2024-04-29 17:07:27 +0000";
layers = (
{
background = {
shapes = (
{
closed = 1;
nodes = (
(297,429,o),
(358,500,o),
(358,603,cs),
(358,707,o),
(297,776,o),
(196,776,cs),
(95,776,o),
(34,703,o),
(34,603,cs),
(34,500,o),
(95,429,o),
(196,429,cs)
);
},
{
closed = 1;
nodes = (
(140,509,o),
(118,547,o),
(118,603,cs),
(118,657,o),
(140,696,o),
(196,696,cs),
(253,696,o),
(274,657,o),
(274,603,cs),
(274,547,o),
(253,509,o),
(196,509,cs)
);
},
{
closed = 1;
nodes = (
(686,494,l),
(653,568,l),
(53,281,l),
(87,207,l)
);
},
{
closed = 1;
nodes = (
(625,-12,o),
(686,59,o),
(686,162,cs),
(686,266,o),
(625,335,o),
(524,335,cs),
(423,335,o),
(362,262,o),
(362,162,cs),
(362,59,o),
(423,-12,o),
(524,-12,cs)
);
},
{
closed = 1;
nodes = (
(468,68,o),
(446,106,o),
(446,162,cs),
(446,216,o),
(468,255,o),
(524,255,cs),
(581,255,o),
(602,216,o),
(602,162,cs),
(602,106,o),
(581,68,o),
(524,68,cs)
);
}
);
};
layerId = m01;
shapes = (
{
closed = 1;
nodes = (
(305,760,l),
(305,707,l),
(297,686,l),
(88,686,l),
(88,760,l)
);
},
{
closed = 1;
nodes = (
(305,707,l),
(202,439,l),
(121,439,l),
(245,752,l)
);
}
);
width = 720;
}
);
},
{
glyphname = eight.dnom;
lastChange = "2024-04-29 17:19:44 +0000";
layers = (
{
background = {
shapes = (
{
closed = 1;
nodes = (
(297,429,o),
(358,500,o),
(358,603,cs),
(358,707,o),
(297,776,o),
(196,776,cs),
(95,776,o),
(34,703,o),
(34,603,cs),
(34,500,o),
(95,429,o),
(196,429,cs)
);
},
{
closed = 1;
nodes = (
(140,509,o),
(118,547,o),
(118,603,cs),
(118,657,o),
(140,696,o),
(196,696,cs),
(253,696,o),
(274,657,o),
(274,603,cs),
(274,547,o),
(253,509,o),
(196,509,cs)
);
},
{
closed = 1;
nodes = (
(686,494,l),
(653,568,l),
(53,281,l),
(87,207,l)
);
},
{
closed = 1;
nodes = (
(625,-12,o),
(686,59,o),
(686,162,cs),
(686,266,o),
(625,335,o),
(524,335,cs),
(423,335,o),
(362,262,o),
(362,162,cs),
(362,59,o),
(423,-12,o),
(524,-12,cs)
);
},
{
closed = 1;
nodes = (
(468,68,o),
(446,106,o),
(446,162,cs),
(446,216,o),
(468,255,o),
(524,255,cs),
(581,255,o),
(602,216,o),
(602,162,cs),
(602,106,o),
(581,68,o),
(524,68,cs)
);
}
);
};
layerId = m01;
shapes = (
{
closed = 1;
nodes = (
(259,582,o),
(308,616,o),
(308,679,cs),
(308,735,o),
(259,776,o),
(187,776,cs),
(116,776,o),
(65,735,o),
(65,679,cs),
(65,616,o),
(116,582,o),
(187,582,cs)
);
},
{
closed = 1;
nodes = (
(155,647,o),
(140,661,o),
(140,679,cs),
(140,696,o),
(155,709,o),
(187,709,cs),
(221,709,o),
(236,696,o),
(236,679,cs),
(236,661,o),
(221,647,o),
(187,647,cs)
);
},
{
closed = 1;
nodes = (
(259,429,o),
(322,455,o),
(322,529,cs),
(322,587,o),
(259,623,o),
(187,623,cs),
(116,623,o),
(53,587,o),
(53,529,cs),
(53,455,o),
(116,429,o),
(187,429,cs)
);
},
{
closed = 1;
nodes = (
(156,492,o),
(135,504,o),
(135,528,cs),
(135,546,o),
(157,562,o),
(187,562,cs),
(218,562,o),
(239,546,o),
(239,528,cs),
(239,504,o),
(220,492,o),
(187,492,cs)
);
}
);
width = 720;
}
);
},
{
glyphname = nine.dnom;
lastChange = "2024-04-29 17:10:47 +0000";
layers = (
{
background = {
shapes = (
{
closed = 1;
nodes = (
(297,429,o),
(358,500,o),
(358,603,cs),
(358,707,o),
(297,776,o),
(196,776,cs),
(95,776,o),
(34,703,o),
(34,603,cs),
(34,500,o),
(95,429,o),
(196,429,cs)
);
},
{
closed = 1;
nodes = (
(140,509,o),
(118,547,o),
(118,603,cs),
(118,657,o),
(140,696,o),
(196,696,cs),
(253,696,o),
(274,657,o),
(274,603,cs),
(274,547,o),
(253,509,o),
(196,509,cs)
);
},
{
closed = 1;
nodes = (
(686,494,l),
(653,568,l),
(53,281,l),
(87,207,l)
);
},
{
closed = 1;
nodes = (
(625,-12,o),
(686,59,o),
(686,162,cs),
(686,266,o),
(625,335,o),
(524,335,cs),
(423,335,o),
(362,262,o),
(362,162,cs),
(362,59,o),
(423,-12,o),
(524,-12,cs)
);
},
{
closed = 1;
nodes = (
(468,68,o),
(446,106,o),
(446,162,cs),
(446,216,o),
(468,255,o),
(524,255,cs),
(581,255,o),
(602,216,o),
(602,162,cs),
(602,106,o),
(581,68,o),
(524,68,cs)
);
}
);
};
layerId = m01;
shapes = (
{
closed = 1;
nodes = (
(115,519,l),
(127,511,o),
(146,501,o),
(173,501,cs),
(208,501,o),
(245,511,o),
(245,611,cs),
(245,677,o),
(212,702,o),
(180,702,cs),
(153,702,o),
(129,683,o),
(129,656,cs),
(129,630,o),
(149,615,o),
(180,615,cs),
(205,615,o),
(236,635,o),
(250,674,c),
(284,605,l),
(262,576,o),
(224,546,o),
(175,546,cs),
(94,546,o),
(53,602,o),
(53,661,cs),
(53,719,o),
(94,777,o),
(178,777,cs),
(263,777,o),
(325,711,o),
(325,613,cs),
(325,503,o),
(265,429,o),
(176,429,cs),
(146,429,o),
(106,439,o),
(85,453,c)
);
}
);
width = 720;
}
);
},
{
glyphname = zero.numr;
lastChange = "2024-04-29 17:17:12 +0000";
layers = (
{
background = {
shapes = (
{
closed = 1;
nodes = (
(297,429,o),
(358,500,o),
(358,603,cs),
(358,707,o),
(297,776,o),
(196,776,cs),
(95,776,o),
(34,703,o),
(34,603,cs),
(34,500,o),
(95,429,o),
(196,429,cs)
);
},
{
closed = 1;
nodes = (
(140,509,o),
(118,547,o),
(118,603,cs),
(118,657,o),
(140,696,o),
(196,696,cs),
(253,696,o),
(274,657,o),
(274,603,cs),
(274,547,o),
(253,509,o),
(196,509,cs)
);
},
{
closed = 1;
nodes = (
(686,494,l),
(653,568,l),
(53,281,l),
(87,207,l)
);
},
{
closed = 1;
nodes = (
(625,-12,o),
(686,59,o),
(686,162,cs),
(686,266,o),
(625,335,o),
(524,335,cs),
(423,335,o),
(362,262,o),
(362,162,cs),
(362,59,o),
(423,-12,o),
(524,-12,cs)
);
},
{
closed = 1;
nodes = (
(468,68,o),
(446,106,o),
(446,162,cs),
(446,216,o),
(468,255,o),
(524,255,cs),
(581,255,o),
(602,216,o),
(602,162,cs),
(602,106,o),
(581,68,o),
(524,68,cs)
);
}
);
};
layerId = m01;
shapes = (
{
closed = 1;
nodes = (
(625,-12,o),
(686,59,o),
(686,162,cs),
(686,266,o),
(625,335,o),
(524,335,cs),
(423,335,o),
(362,262,o),
(362,162,cs),
(362,59,o),
(423,-12,o),
(524,-12,cs)
);
},
{
closed = 1;
nodes = (
(468,68,o),
(446,106,o),
(446,162,cs),
(446,216,o),
(468,255,o),
(524,255,cs),
(581,255,o),
(602,216,o),
(602,162,cs),
(602,106,o),
(581,68,o),
(524,68,cs)
);
}
);
width = 720;
}
);
},
{
glyphname = one.numr;
lastChange = "2024-04-29 17:15:43 +0000";
layers = (
{
background = {
shapes = (
{
closed = 1;
nodes = (
(297,429,o),
(358,500,o),
(358,603,cs),
(358,707,o),
(297,776,o),
(196,776,cs),
(95,776,o),
(34,703,o),
(34,603,cs),
(34,500,o),
(95,429,o),
(196,429,cs)
);
},
{
closed = 1;
nodes = (
(140,509,o),
(118,547,o),
(118,603,cs),
(118,657,o),
(140,696,o),
(196,696,cs),
(253,696,o),
(274,657,o),
(274,603,cs),
(274,547,o),
(253,509,o),
(196,509,cs)
);
},
{
closed = 1;
nodes = (
(686,494,l),
(653,568,l),
(53,281,l),
(87,207,l)
);
},
{
closed = 1;
nodes = (
(625,-12,o),
(686,59,o),
(686,162,cs),
(686,266,o),
(625,335,o),
(524,335,cs),
(423,335,o),
(362,262,o),
(362,162,cs),
(362,59,o),
(423,-12,o),
(524,-12,cs)
);
},
{
closed = 1;
nodes = (
(468,68,o),
(446,106,o),
(446,162,cs),
(446,216,o),
(468,255,o),
(524,255,cs),
(581,255,o),
(602,216,o),
(602,162,cs),
(602,106,o),
(581,68,o),
(524,68,cs)
);
}
);
};
layerId = m01;
shapes = (
{
closed = 1;
nodes = (
(381,0,l),
(656,0,l),
(656,74,l),
(381,74,l)
);
},
{
closed = 1;
nodes = (
(490,0,l),
(564,0,l),
(564,321,l),
(490,321,l)
);
},
{
closed = 1;
nodes = (
(389,156,l),
(477,156,o),
(533,223,o),
(533,271,c),
(490,321,l),
(490,265,o),
(446,225,o),
(389,225,c)
);
}
);
width = 720;
}
);
},
{
glyphname = two.numr;
lastChange = "2024-04-29 17:16:07 +0000";
layers = (
{
background = {
shapes = (
{
closed = 1;
nodes = (
(297,429,o),
(358,500,o),
(358,603,cs),
(358,707,o),
(297,776,o),
(196,776,cs),
(95,776,o),
(34,703,o),
(34,603,cs),
(34,500,o),
(95,429,o),
(196,429,cs)
);
},
{
closed = 1;
nodes = (
(140,509,o),
(118,547,o),
(118,603,cs),
(118,657,o),
(140,696,o),
(196,696,cs),
(253,696,o),
(274,657,o),
(274,603,cs),
(274,547,o),
(253,509,o),
(196,509,cs)
);
},
{
closed = 1;
nodes = (
(686,494,l),
(653,568,l),
(53,281,l),
(87,207,l)
);
},
{
closed = 1;
nodes = (
(625,-12,o),
(686,59,o),
(686,162,cs),
(686,266,o),
(625,335,o),
(524,335,cs),
(423,335,o),
(362,262,o),
(362,162,cs),
(362,59,o),
(423,-12,o),
(524,-12,cs)
);
},
{
closed = 1;
nodes = (
(468,68,o),
(446,106,o),
(446,162,cs),
(446,216,o),
(468,255,o),
(524,255,cs),
(581,255,o),
(602,216,o),
(602,162,cs),
(602,106,o),
(581,68,o),
(524,68,cs)
);
}
);
};
layerId = m01;
shapes = (
{
closed = 1;
nodes = (
(457,3,l),
(468,14,o),
(528,70,o),
(583,117,cs),
(622,150,o),
(641,193,o),
(641,232,cs),
(641,288,o),
(600,336,o),
(522,336,cs),
(461,336,o),
(427,302,o),
(402,259,c),
(465,226,l),
(477,255,o),
(503,269,o),
(526,269,cs),
(548,269,o),
(567,256,o),
(567,230,cs),
(567,204,o),
(553,191,o),
(518,158,cs),
(466,110,o),
(440,90,o),
(415,74,c)
);
},
{
closed = 1;
nodes = (
(415,0,l),
(647,0,l),
(647,74,l),
(415,74,l)
);
}
);
width = 720;
}
);
},
{
glyphname = three.numr;
lastChange = "2024-05-08 00:18:11 +0000";
layers = (
{
background = {
shapes = (
{
closed = 1;
nodes = (
(542,197,o),
(561,212,o),
(561,236,cs),
(561,255,o),
(546,267,o),
(526,267,cs),
(506,267,o),
(490,261,o),
(475,239,c),
(403,272,l),
(437,314,o),
(473,335,o),
(526,335,cs),
(591,335,o),
(646,297,o),
(646,236,cs),
(646,189,o),
(595,139,o),
(493,136,c),
(493,197,l)
);
},
{
closed = 1;
nodes = (
(493,196,l),
(602,196,o),
(663,146,o),
(663,89,cs),
(663,21,o),
(593,-12,o),
(526,-12,cs),
(451,-12,o),
(414,26,o),
(382,72,c),
(466,98,l),
(479,72,o),
(496,62,o),
(521,62,cs),
(543,62,o),
(565,71,o),
(565,96,cs),
(565,118,o),
(546,134,o),
(493,134,c)
);
}
);
};
layerId = m01;
shapes = (
{
closed = 1;
nodes = (
(546,135,o),
(565,119,o),
(565,97,cs),
(565,72,o),
(543,63,o),
(521,63,cs),
(496,63,o),
(479,73,o),
(466,99,c),
(382,73,l),
(414,27,o),
(451,-11,o),
(526,-11,cs),
(593,-11,o),
(663,22,o),
(663,90,cs),
(663,147,o),
(603,188,o),
(494,188,c),
(494,145,l),
(596,148,o),
(646,189,o),
(646,236,cs),
(646,297,o),
(591,335,o),
(526,335,cs),
(473,335,o),
(437,314,o),
(403,272,c),
(475,239,l),
(490,261,o),
(506,267,o),
(526,267,cs),
(546,267,o),
(561,255,o),
(561,236,cs),
(561,212,o),
(542,197,o),
(493,197,c),
(493,135,l)
);
}
);
width = 720;
}
);
},
{
glyphname = four.numr;
lastChange = "2024-04-29 17:17:35 +0000";
layers = (
{
background = {
shapes = (
{
closed = 1;
nodes = (
(297,429,o),
(358,500,o),
(358,603,cs),
(358,707,o),
(297,776,o),
(196,776,cs),
(95,776,o),
(34,703,o),
(34,603,cs),
(34,500,o),
(95,429,o),
(196,429,cs)
);
},
{
closed = 1;
nodes = (
(140,509,o),
(118,547,o),
(118,603,cs),
(118,657,o),
(140,696,o),
(196,696,cs),
(253,696,o),
(274,657,o),
(274,603,cs),
(274,547,o),
(253,509,o),
(196,509,cs)
);
},
{
closed = 1;
nodes = (
(686,494,l),
(653,568,l),
(53,281,l),
(87,207,l)
);
},
{
closed = 1;
nodes = (
(625,-12,o),
(686,59,o),
(686,162,cs),
(686,266,o),
(625,335,o),
(524,335,cs),
(423,335,o),
(362,262,o),
(362,162,cs),
(362,59,o),
(423,-12,o),
(524,-12,cs)
);
},
{
closed = 1;
nodes = (
(468,68,o),
(446,106,o),
(446,162,cs),
(446,216,o),
(468,255,o),
(524,255,cs),
(581,255,o),
(602,216,o),
(602,162,cs),
(602,106,o),
(581,68,o),
(524,68,cs)
);
}
);
};
layerId = m01;
shapes = (
{
closed = 1;
nodes = (
(474,0,l),
(662,0,l),
(662,67,l),
(474,67,l)
);
},
{
closed = 1;
nodes = (
(528,0,l),
(602,0,l),
(602,321,l),
(528,321,l)
);
},
{
closed = 1;
nodes = (
(426,299,l),
(369,112,l),
(653,112,l),
(653,181,l),
(463,181,l),
(499,288,l)
);
}
);
width = 720;
}
);
},
{
glyphname = five.numr;
lastChange = "2024-04-29 17:17:58 +0000";
layers = (
{
background = {
shapes = (
{
closed = 1;
nodes = (
(297,429,o),
(358,500,o),
(358,603,cs),
(358,707,o),
(297,776,o),
(196,776,cs),
(95,776,o),
(34,703,o),
(34,603,cs),
(34,500,o),
(95,429,o),
(196,429,cs)
);
},
{
closed = 1;
nodes = (
(140,509,o),
(118,547,o),
(118,603,cs),
(118,657,o),
(140,696,o),
(196,696,cs),
(253,696,o),
(274,657,o),
(274,603,cs),
(274,547,o),
(253,509,o),
(196,509,cs)
);
},
{
closed = 1;
nodes = (
(686,494,l),
(653,568,l),
(53,281,l),
(87,207,l)
);
},
{
closed = 1;
nodes = (
(625,-12,o),
(686,59,o),
(686,162,cs),
(686,266,o),
(625,335,o),
(524,335,cs),
(423,335,o),
(362,262,o),
(362,162,cs),
(362,59,o),
(423,-12,o),
(524,-12,cs)
);
},
{
closed = 1;
nodes = (
(468,68,o),
(446,106,o),
(446,162,cs),
(446,216,o),
(468,255,o),
(524,255,cs),
(581,255,o),
(602,216,o),
(602,162,cs),
(602,106,o),
(581,68,o),
(524,68,cs)
);
}
);
};
layerId = m01;
shapes = (
{
closed = 1;
nodes = (
(433,182,l),
(543,233,o),
(647,185,o),
(647,97,cs),
(647,23,o),
(602,-12,o),
(534,-12,cs),
(475,-12,o),
(437,18,o),
(412,60,c),
(476,94,l),
(488,70,o),
(509,58,o),
(530,58,cs),
(559,58,o),
(572,75,o),
(572,99,cs),
(572,137,o),
(495,152,o),
(433,109,c)
);
},
{
closed = 1;
nodes = (
(505,289,l),
(505,170,l),
(433,182,l),
(434,289,l)
);
},
{
closed = 1;
nodes = (
(622,319,l),
(622,246,l),
(434,246,l),
(434,319,l)
);
}
);
width = 720;
}
);
},
{
glyphname = six.numr;
lastChange = "2024-04-29 17:18:23 +0000";
layers = (
{
background = {
shapes = (
{
closed = 1;
nodes = (
(297,429,o),
(358,500,o),
(358,603,cs),
(358,707,o),
(297,776,o),
(196,776,cs),
(95,776,o),
(34,703,o),
(34,603,cs),
(34,500,o),
(95,429,o),
(196,429,cs)
);
},
{
closed = 1;
nodes = (
(140,509,o),
(118,547,o),
(118,603,cs),
(118,657,o),
(140,696,o),
(196,696,cs),
(253,696,o),
(274,657,o),
(274,603,cs),
(274,547,o),
(253,509,o),
(196,509,cs)
);
},
{
closed = 1;
nodes = (
(686,494,l),
(653,568,l),
(53,281,l),
(87,207,l)
);
},
{
closed = 1;
nodes = (
(625,-12,o),
(686,59,o),
(686,162,cs),
(686,266,o),
(625,335,o),
(524,335,cs),
(423,335,o),
(362,262,o),
(362,162,cs),
(362,59,o),
(423,-12,o),
(524,-12,cs)
);
},
{
closed = 1;
nodes = (
(468,68,o),
(446,106,o),
(446,162,cs),
(446,216,o),
(468,255,o),
(524,255,cs),
(581,255,o),
(602,216,o),
(602,162,cs),
(602,106,o),
(581,68,o),
(524,68,cs)
);
}
);
};
layerId = m01;
shapes = (
{
closed = 1;
nodes = (
(585,254,l),
(576,258,o),
(559,272,o),
(530,272,cs),
(496,272,o),
(458,254,o),
(458,154,cs),
(458,88,o),
(493,63,o),
(523,63,cs),
(548,63,o),
(572,82,o),
(572,109,cs),
(572,135,o),
(552,150,o),
(523,150,cs),
(499,150,o),
(467,142,o),
(454,103,c),
(421,172,l),
(442,201,o),
(481,219,o),
(528,219,cs),
(605,219,o),
(644,163,o),
(644,104,cs),
(644,46,o),
(605,-12,o),
(525,-12,cs),
(444,-12,o),
(385,54,o),
(385,152,cs),
(385,262,o),
(442,336,o),
(527,336,cs),
(555,336,o),
(593,326,o),
(613,312,c)
);
}
);
width = 720;
}
);
},
{
glyphname = seven.numr;
lastChange = "2024-04-29 17:19:06 +0000";
layers = (
{
background = {
shapes = (
{
closed = 1;
nodes = (
(297,429,o),
(358,500,o),
(358,603,cs),
(358,707,o),
(297,776,o),
(196,776,cs),
(95,776,o),
(34,703,o),
(34,603,cs),
(34,500,o),
(95,429,o),
(196,429,cs)
);
},
{
closed = 1;
nodes = (
(140,509,o),
(118,547,o),
(118,603,cs),
(118,657,o),
(140,696,o),
(196,696,cs),
(253,696,o),
(274,657,o),
(274,603,cs),
(274,547,o),
(253,509,o),
(196,509,cs)
);
},
{
closed = 1;
nodes = (
(686,494,l),
(653,568,l),
(53,281,l),
(87,207,l)
);
},
{
closed = 1;
nodes = (
(625,-12,o),
(686,59,o),
(686,162,cs),
(686,266,o),
(625,335,o),
(524,335,cs),
(423,335,o),
(362,262,o),
(362,162,cs),
(362,59,o),
(423,-12,o),
(524,-12,cs)
);
},
{
closed = 1;
nodes = (
(468,68,o),
(446,106,o),
(446,162,cs),
(446,216,o),
(468,255,o),
(524,255,cs),
(581,255,o),
(602,216,o),
(602,162,cs),
(602,106,o),
(581,68,o),
(524,68,cs)
);
}
);
};
layerId = m01;
shapes = (
{
closed = 1;
nodes = (
(635,321,l),
(635,268,l),
(627,247,l),
(418,247,l),
(418,321,l)
);
},
{
closed = 1;
nodes = (
(635,268,l),
(532,0,l),
(451,0,l),
(575,313,l)
);
}
);
width = 720;
}
);
},
{
glyphname = eight.numr;
lastChange = "2024-04-29 17:20:09 +0000";
layers = (
{
background = {
shapes = (
{
closed = 1;
nodes = (
(297,429,o),
(358,500,o),
(358,603,cs),
(358,707,o),
(297,776,o),
(196,776,cs),
(95,776,o),
(34,703,o),
(34,603,cs),
(34,500,o),
(95,429,o),
(196,429,cs)
);
},
{
closed = 1;
nodes = (
(140,509,o),
(118,547,o),
(118,603,cs),
(118,657,o),
(140,696,o),
(196,696,cs),
(253,696,o),
(274,657,o),
(274,603,cs),
(274,547,o),
(253,509,o),
(196,509,cs)
);
},
{
closed = 1;
nodes = (
(686,494,l),
(653,568,l),
(53,281,l),
(87,207,l)
);
},
{
closed = 1;
nodes = (
(625,-12,o),
(686,59,o),
(686,162,cs),
(686,266,o),
(625,335,o),
(524,335,cs),
(423,335,o),
(362,262,o),
(362,162,cs),
(362,59,o),
(423,-12,o),
(524,-12,cs)
);
},
{
closed = 1;
nodes = (
(468,68,o),
(446,106,o),
(446,162,cs),
(446,216,o),
(468,255,o),
(524,255,cs),
(581,255,o),
(602,216,o),
(602,162,cs),
(602,106,o),
(581,68,o),
(524,68,cs)
);
}
);
};
layerId = m01;
shapes = (
{
closed = 1;
nodes = (
(595,141,o),
(644,175,o),
(644,238,cs),
(644,294,o),
(595,335,o),
(523,335,cs),
(452,335,o),
(401,294,o),
(401,238,cs),
(401,175,o),
(452,141,o),
(523,141,cs)
);
},
{
closed = 1;
nodes = (
(491,206,o),
(476,220,o),
(476,238,cs),
(476,255,o),
(491,268,o),
(523,268,cs),
(557,268,o),
(572,255,o),
(572,238,cs),
(572,220,o),
(557,206,o),
(523,206,cs)
);
},
{
closed = 1;
nodes = (
(595,-12,o),
(658,14,o),
(658,88,cs),
(658,146,o),
(595,182,o),
(523,182,cs),
(452,182,o),
(389,146,o),
(389,88,cs),
(389,14,o),
(452,-12,o),
(523,-12,cs)
);
},
{
closed = 1;
nodes = (
(492,51,o),
(471,63,o),
(471,87,cs),
(471,105,o),
(493,121,o),
(523,121,cs),
(554,121,o),
(575,105,o),
(575,87,cs),
(575,63,o),
(556,51,o),
(523,51,cs)
);
}
);
width = 720;
}
);
},
{
glyphname = nine.numr;
lastChange = "2024-04-29 17:20:31 +0000";
layers = (
{
background = {
shapes = (
{
closed = 1;
nodes = (
(297,429,o),
(358,500,o),
(358,603,cs),
(358,707,o),
(297,776,o),
(196,776,cs),
(95,776,o),
(34,703,o),
(34,603,cs),
(34,500,o),
(95,429,o),
(196,429,cs)
);
},
{
closed = 1;
nodes = (
(140,509,o),
(118,547,o),
(118,603,cs),
(118,657,o),
(140,696,o),
(196,696,cs),
(253,696,o),
(274,657,o),
(274,603,cs),
(274,547,o),
(253,509,o),
(196,509,cs)
);
},
{
closed = 1;
nodes = (
(686,494,l),
(653,568,l),
(53,281,l),
(87,207,l)
);
},
{
closed = 1;
nodes = (
(625,-12,o),
(686,59,o),
(686,162,cs),
(686,266,o),
(625,335,o),
(524,335,cs),
(423,335,o),
(362,262,o),
(362,162,cs),
(362,59,o),
(423,-12,o),
(524,-12,cs)
);
},
{
closed = 1;
nodes = (
(468,68,o),
(446,106,o),
(446,162,cs),
(446,216,o),
(468,255,o),
(524,255,cs),
(581,255,o),
(602,216,o),
(602,162,cs),
(602,106,o),
(581,68,o),
(524,68,cs)
);
}
);
};
layerId = m01;
shapes = (
{
closed = 1;
nodes = (
(458,78,l),
(470,70,o),
(489,60,o),
(516,60,cs),
(551,60,o),
(588,70,o),
(588,170,cs),
(588,236,o),
(555,261,o),
(523,261,cs),
(496,261,o),
(472,242,o),
(472,215,cs),
(472,189,o),
(492,174,o),
(523,174,cs),
(548,174,o),
(579,194,o),
(593,233,c),
(627,164,l),
(605,135,o),
(567,105,o),
(518,105,cs),
(437,105,o),
(396,161,o),
(396,220,cs),
(396,278,o),
(437,336,o),
(521,336,cs),
(606,336,o),
(668,270,o),
(668,172,cs),
(668,62,o),
(608,-12,o),
(519,-12,cs),
(489,-12,o),
(449,-2,o),
(428,12,c)
);
}
);
width = 720;
}
);
},
{
glyphname = fraction;
lastChange = "2024-06-02 23:47:29 +0000";
layers = (
{
layerId = m01;
shapes = (
{
closed = 1;
nodes = (
(656,530,l),
(611,596,l),
(70,210,l),
(116,144,l)
);
}
);
width = 720;
}
);
unicode = 8260;
},
{
glyphname = onehalf;
lastChange = "2024-04-29 17:23:46 +0000";
layers = (
{
layerId = m01;
shapes = (
{
closed = 1;
nodes = (
(61,439,l),
(336,439,l),
(336,513,l),
(61,513,l)
);
},
{
closed = 1;
nodes = (
(170,439,l),
(244,439,l),
(244,760,l),
(170,760,l)
);
},
{
closed = 1;
nodes = (
(69,595,l),
(157,595,o),
(213,662,o),
(213,710,c),
(170,760,l),
(170,704,o),
(126,664,o),
(69,664,c)
);
},
{
closed = 1;
nodes = (
(657,529,l),
(611,596,l),
(70,210,l),
(117,143,l)
);
},
{
closed = 1;
nodes = (
(457,3,l),
(468,14,o),
(528,70,o),
(583,117,cs),
(622,150,o),
(641,193,o),
(641,232,cs),
(641,288,o),
(600,336,o),
(522,336,cs),
(461,336,o),
(427,302,o),
(402,259,c),
(465,226,l),
(477,255,o),
(503,269,o),
(526,269,cs),
(548,269,o),
(567,256,o),
(567,230,cs),
(567,204,o),
(553,191,o),
(518,158,cs),
(466,110,o),
(440,90,o),
(415,74,c)
);
},
{
closed = 1;
nodes = (
(415,0,l),
(647,0,l),
(647,74,l),
(415,74,l)
);
}
);
width = 720;
}
);
unicode = 189;
},
{
glyphname = onequarter;
lastChange = "2024-04-29 17:25:50 +0000";
layers = (
{
layerId = m01;
shapes = (
{
closed = 1;
nodes = (
(657,529,l),
(611,596,l),
(70,210,l),
(117,143,l)
);
},
{
ref = four.numr;
},
{
ref = one.dnom;
}
);
width = 720;
}
);
unicode = 188;
},
{
glyphname = threequarters;
lastChange = "2024-04-29 17:29:57 +0000";
layers = (
{
layerId = m01;
shapes = (
{
closed = 1;
nodes = (
(657,529,l),
(611,596,l),
(70,210,l),
(117,143,l)
);
},
{
ref = three.dnom;
},
{
ref = four.numr;
}
);
width = 720;
}
);
unicode = 190;
},
{
glyphname = oneeighth;
lastChange = "2024-04-29 17:29:48 +0000";
layers = (
{
layerId = m01;
shapes = (
{
closed = 1;
nodes = (
(657,529,l),
(611,596,l),
(70,210,l),
(117,143,l)
);
},
{
ref = one.dnom;
},
{
ref = eight.numr;
}
);
width = 720;
}
);
unicode = 8539;
},
{
glyphname = threeeighths;
lastChange = "2024-04-29 17:29:41 +0000";
layers = (
{
layerId = m01;
shapes = (
{
closed = 1;
nodes = (
(657,529,l),
(611,596,l),
(70,210,l),
(117,143,l)
);
},
{
ref = three.dnom;
},
{
ref = eight.numr;
}
);
width = 720;
}
);
unicode = 8540;
},
{
glyphname = fiveeighths;
lastChange = "2024-04-29 17:29:32 +0000";
layers = (
{
layerId = m01;
shapes = (
{
closed = 1;
nodes = (
(657,529,l),
(611,596,l),
(70,210,l),
(117,143,l)
);
},
{
ref = five.dnom;
},
{
ref = eight.numr;
}
);
width = 720;
}
);
unicode = 8541;
},
{
glyphname = seveneighths;
lastChange = "2024-04-29 17:29:06 +0000";
layers = (
{
layerId = m01;
shapes = (
{
closed = 1;
nodes = (
(657,529,l),
(611,596,l),
(70,210,l),
(117,143,l)
);
},
{
ref = seven.dnom;
},
{
ref = eight.numr;
}
);
width = 720;
}
);
unicode = 8542;
},
{
glyphname = .notdef;
lastChange = "2024-06-02 23:46:25 +0000";
layers = (
{
layerId = m01;
shapes = (
{
closed = 1;
nodes = (
(100,-260,l),
(620,-260,l),
(620,890,l),
(100,890,l)
);
},
{
closed = 1;
nodes = (
(195,810,l),
(525,810,l),
(525,-180,l),
(195,-180,l)
);
}
);
width = 720;
}
);
},
{
glyphname = period;
lastChange = "2024-04-27 03:10:30 +0000";
layers = (
{
layerId = m01;
shapes = (
{
closed = 1;
nodes = (
(421,-16,o),
(471,34,o),
(471,95,cs),
(471,156,o),
(421,206,o),
(360,206,cs),
(299,206,o),
(249,156,o),
(249,95,cs),
(249,34,o),
(299,-16,o),
(360,-16,cs)
);
}
);
width = 720;
}
);
unicode = 46;
},
{
glyphname = comma;
lastChange = "2024-04-27 03:11:43 +0000";
layers = (
{
layerId = m01;
shapes = (
{
closed = 1;
nodes = (
(338,-195,l),
(265,-195,l),
(292,123,l),
(459,123,l)
);
}
);
width = 720;
}
);
unicode = 44;
},
{
glyphname = colon;
lastChange = "2024-04-27 03:10:34 +0000";
layers = (
{
layerId = m01;
shapes = (
{
closed = 1;
nodes = (
(422,-16,o),
(472,34,o),
(472,95,cs),
(472,156,o),
(422,206,o),
(361,206,cs),
(300,206,o),
(250,156,o),
(250,95,cs),
(250,34,o),
(300,-16,o),
(361,-16,cs)
);
},
{
closed = 1;
nodes = (
(420,394,o),
(470,444,o),
(470,505,cs),
(470,566,o),
(420,616,o),
(359,616,cs),
(298,616,o),
(248,566,o),
(248,505,cs),
(248,444,o),
(298,394,o),
(359,394,cs)
);
}
);
width = 720;
}
);
unicode = 58;
},
{
glyphname = semicolon;
lastChange = "2024-04-27 03:10:36 +0000";
layers = (
{
layerId = m01;
shapes = (
{
closed = 1;
nodes = (
(411,394,o),
(461,444,o),
(461,505,cs),
(461,566,o),
(411,616,o),
(350,616,cs),
(289,616,o),
(239,566,o),
(239,505,cs),
(239,444,o),
(289,394,o),
(350,394,cs)
);
},
{
closed = 1;
nodes = (
(338,-195,l),
(265,-195,l),
(292,123,l),
(459,123,l)
);
}
);
width = 720;
}
);
unicode = 59;
},
{
glyphname = exclam;
lastChange = "2024-04-27 03:10:50 +0000";
layers = (
{
background = {
shapes = (
{
closed = 1;
nodes = (
(457,750,o),
(496,789,o),
(496,836,cs),
(496,883,o),
(457,922,o),
(410,922,cs),
(363,922,o),
(324,883,o),
(324,836,cs),
(324,789,o),
(363,750,o),
(410,750,cs)
);
},
{
closed = 1;
nodes = (
(150,0,l),
(700,0,l),
(700,88,l),
(150,88,l)
);
},
{
closed = 1;
nodes = (
(378,0,l),
(473,0,l),
(473,600,l),
(378,600,l)
);
},
{
closed = 1;
nodes = (
(216,512,l),
(437,512,l),
(437,600,l),
(216,600,l)
);
}
);
};
layerId = m01;
shapes = (
{
closed = 1;
nodes = (
(410,282,l),
(311,282,l),
(295,760,l),
(425,760,l)
);
},
{
closed = 1;
nodes = (
(407,-16,o),
(446,23,o),
(446,70,cs),
(446,117,o),
(407,156,o),
(360,156,cs),
(313,156,o),
(274,117,o),
(274,70,cs),
(274,23,o),
(313,-16,o),
(360,-16,cs)
);
}
);
width = 720;
}
);
unicode = 33;
},
{
glyphname = question;
lastChange = "2024-04-27 03:10:57 +0000";
layers = (
{
layerId = m01;
shapes = (
{
closed = 1;
nodes = (
(423,-16,o),
(462,23,o),
(462,70,cs),
(462,117,o),
(423,156,o),
(376,156,cs),
(329,156,o),
(290,117,o),
(290,70,cs),
(290,23,o),
(329,-16,o),
(376,-16,cs)
);
},
{
closed = 1;
nodes = (
(416,281,o),
(416,269,o),
(416,294,cs),
(416,371,o),
(617,447,o),
(617,573,cs),
(617,695,o),
(518,776,o),
(381,776,cs),
(288,776,o),
(184,729,o),
(106,597,c),
(183,542,l),
(226,641,o),
(309,680,o),
(383,680,cs),
(459,680,o),
(520,642,o),
(520,580,cs),
(520,474,o),
(321,441,o),
(321,294,cs),
(321,266,o),
(321,279,o),
(321,245,c),
(416,245,l)
);
}
);
width = 720;
}
);
unicode = 63;
},
{
glyphname = periodcentered;
lastChange = "2024-04-27 03:10:59 +0000";
layers = (
{
layerId = m01;
shapes = (
{
closed = 1;
nodes = (
(421,188,o),
(471,238,o),
(471,299,cs),
(471,360,o),
(421,410,o),
(360,410,cs),
(299,410,o),
(249,360,o),
(249,299,cs),
(249,238,o),
(299,188,o),
(360,188,cs)
);
}
);
width = 720;
}
);
unicode = 183;
},
{
glyphname = bullet;
lastChange = "2024-04-27 03:11:02 +0000";
layers = (
{
layerId = m01;
shapes = (
{
closed = 1;
nodes = (
(437,141,o),
(500,204,o),
(500,281,cs),
(500,358,o),
(437,421,o),
(360,421,cs),
(283,421,o),
(220,358,o),
(220,281,cs),
(220,204,o),
(283,141,o),
(360,141,cs)
);
}
);
width = 720;
}
);
unicode = 8226;
},
{
glyphname = asterisk;
lastChange = "2024-04-27 03:11:07 +0000";
layers = (
{
layerId = m01;
shapes = (
{
closed = 1;
nodes = (
(154,339,l),
(318,455,l),
(300,254,l),
(420,254,l),
(402,456,l),
(566,339,l),
(626,442,l),
(443,527,l),
(626,612,l),
(566,715,l),
(402,598,l),
(420,800,l),
(300,800,l),
(318,599,l),
(154,715,l),
(94,612,l),
(278,527,l),
(94,442,l)
);
}
);
width = 720;
}
);
unicode = 42;
},
{
glyphname = numbersign;
lastChange = "2024-06-02 23:49:10 +0000";
layers = (
{
layerId = m01;
shapes = (
{
closed = 1;
nodes = (
(90,520,l),
(630,520,l),
(630,600,l),
(90,600,l)
);
},
{
closed = 1;
nodes = (
(90,239,l),
(630,239,l),
(630,319,l),
(90,319,l)
);
},
{
closed = 1;
nodes = (
(211,0,l),
(306,0,l),
(306,830,l),
(211,830,l)
);
},
{
closed = 1;
nodes = (
(423,0,l),
(518,0,l),
(518,830,l),
(423,830,l)
);
}
);
width = 720;
}
);
unicode = 35;
},
{
glyphname = slash;
lastChange = "2024-06-02 23:50:07 +0000";
layers = (
{
layerId = m01;
shapes = (
{
closed = 1;
nodes = (
(165,-118,l),
(242,-140,l),
(536,849,l),
(459,870,l)
);
}
);
width = 720;
}
);
unicode = 47;
},
{
glyphname = hyphen;
lastChange = "2024-06-02 23:50:36 +0000";
layers = (
{
layerId = m01;
shapes = (
{
closed = 1;
nodes = (
(110,396,l),
(610,396,l),
(610,476,l),
(110,476,l)
);
}
);
width = 720;
}
);
unicode = 45;
},
{
glyphname = parenleft;
lastChange = "2024-06-02 23:50:59 +0000";
layers = (
{
layerId = m01;
shapes = (
{
closed = 1;
nodes = (
(515,-144,l),
(363,-40,o),
(258,135,o),
(258,308,cs),
(258,482,o),
(363,666,o),
(515,776,c),
(468,830,l),
(285,710,o),
(161,530,o),
(161,308,cs),
(161,80,o),
(285,-80,o),
(468,-200,c)
);
},
{
closed = 0;
nodes = (
(638,346,l)
);
}
);
width = 720;
}
);
unicode = 40;
},
{
glyphname = braceleft;
lastChange = "2024-06-02 23:52:07 +0000";
layers = (
{
background = {
shapes = (
{
closed = 1;
nodes = (
(545,-154,l),
(393,-30,o),
(328,135,o),
(328,308,cs),
(328,482,o),
(393,656,o),
(545,786,c),
(498,830,l),
(315,690,o),
(221,530,o),
(221,308,cs),
(221,80,o),
(315,-60,o),
(498,-200,c)
);
},
{
closed = 0;
nodes = (
(668,346,l)
);
}
);
};
layerId = m01;
shapes = (
{
closed = 1;
nodes = (
(161,376,l),
(207,376,ls),
(281,376,o),
(322,390,o),
(322,427,cs),
(322,504,o),
(199,512,o),
(199,643,cs),
(199,763,o),
(347,830,o),
(465,830,c),
(469,750,l),
(380,750,o),
(296,703,o),
(296,646,cs),
(296,569,o),
(424,555,o),
(424,435,cs),
(424,348,o),
(292,316,o),
(244,316,c),
(244,336,l),
(292,336,o),
(424,304,o),
(424,217,cs),
(424,97,o),
(296,83,o),
(296,6,cs),
(296,-51,o),
(380,-97,o),
(469,-97,c),
(465,-177,l),
(347,-177,o),
(199,-111,o),
(199,9,cs),
(199,140,o),
(322,148,o),
(322,225,cs),
(322,262,o),
(281,276,o),
(207,276,cs),
(161,276,l)
);
}
);
width = 720;
}
);
unicode = 123;
},
{
glyphname = bracketleft;
lastChange = "2024-06-02 23:52:40 +0000";
layers = (
{
background = {
shapes = (
{
closed = 1;
nodes = (
(545,-154,l),
(393,-30,o),
(328,135,o),
(328,308,cs),
(328,482,o),
(393,656,o),
(545,786,c),
(498,830,l),
(315,690,o),
(221,530,o),
(221,308,cs),
(221,80,o),
(315,-60,o),
(498,-200,c)
);
},
{
closed = 0;
nodes = (
(668,346,l)
);
}
);
};
layerId = m01;
shapes = (
{
closed = 1;
nodes = (
(203,-200,l),
(570,-200,l),
(570,-120,l),
(203,-120,l)
);
},
{
closed = 1;
nodes = (
(203,-200,l),
(298,-200,l),
(298,830,l),
(203,830,l)
);
},
{
closed = 1;
nodes = (
(203,750,l),
(570,750,l),
(570,830,l),
(203,830,l)
);
}
);
width = 720;
}
);
unicode = 91;
},
{
glyphname = quoteleft;
lastChange = "2024-04-27 03:11:31 +0000";
layers = (
{
layerId = m01;
shapes = (
{
closed = 1;
nodes = (
(325,522,l),
(395,522,l),
(425,830,l),
(295,830,l)
);
}
);
width = 720;
}
);
unicode = 8216;
},
{
glyphname = guilsinglleft;
lastChange = "2024-04-27 19:56:44 +0000";
layers = (
{
layerId = m01;
shapes = (
{
closed = 1;
nodes = (
(412,600,l),
(469,536,l),
(255,326,l),
(255,371,l),
(469,157,l),
(409,96,l),
(193,314,l),
(193,384,l)
);
}
);
width = 720;
}
);
unicode = 8249;
},
{
glyphname = florin;
lastChange = "2024-06-02 23:53:42 +0000";
layers = (
{
layerId = m01;
shapes = (
{
closed = 1;
nodes = (
(136,600,l),
(136,520,l),
(542,520,l),
(542,600,l)
);
},
{
closed = 1;
nodes = (
(129,-154,l),
(137,-155,o),
(166,-155,o),
(174,-155,cs),
(282,-155,o),
(345,-81,o),
(345,55,c),
(344,612,ls),
(344,688,o),
(353,738,o),
(384,756,cs),
(415,774,o),
(491,766,o),
(555,752,c),
(573,830,l),
(515,840,o),
(408,860,o),
(344,830,cs),
(298,809,o),
(259,775,o),
(259,639,cs),
(259,76,ls),
(259,0,o),
(247,-47,o),
(215,-65,cs),
(196,-76,o),
(154,-75,o),
(132,-75,c)
);
}
);
width = 720;
}
);
unicode = 402;
},
{
glyphname = at;
lastChange = "2024-06-02 23:56:05 +0000";
layers = (
{
layerId = m01;
shapes = (
{
closed = 1;
nodes = (
(442,553,l),
(357,553,l),
(357,128,ls),
(347,-51,o),
(430,-80,o),
(497,-80,cs),
(594,-80,o),
(641,-14,o),
(641,140,cs),
(641,212,o),
(641,347,o),
(641,476,cs),
(641,613,o),
(596,774,o),
(354,774,cs),
(261,774,o),
(173,757,o),
(81,676,c),
(134,616,l),
(194,669,o),
(256,694,o),
(328,694,cs),
(442,694,o),
(550,652,o),
(550,484,cs),
(550,398,o),
(550,193,o),
(550,95,cs),
(550,44,o),
(542,0,o),
(497,0,cs),
(447,0,o),
(441,50,o),
(442,100,cs)
);
},
{
closed = 1;
nodes = (
(348,-16,o),
(389,65,o),
(389,262,cs),
(389,437,o),
(371,546,o),
(250,546,cs),
(123,546,o),
(52,435,o),
(52,261,cs),
(52,93,o),
(103,-16,o),
(240,-16,cs)
);
},
{
closed = 1;
nodes = (
(173,64,o),
(144,146,o),
(144,261,cs),
(144,383,o),
(172,466,o),
(249,466,cs),
(341,466,o),
(357,383,o),
(357,261,cs),
(357,146,o),
(327,64,o),
(250,64,cs)
);
}
);
width = 720;
}
);
unicode = 64;
},
{
glyphname = ampersand;
lastChange = "2024-06-02 23:58:30 +0000";
layers = (
{
background = {
shapes = (
{
closed = 1;
nodes = (
(237,440,l),
(159,408,o),
(41,340,o),
(41,199,cs),
(41,81,o),
(133,-17,o),
(278,-17,cs),
(417,-17,o),
(494,47,o),
(567,186,cs),
(600,250,o),
(643,382,o),
(643,382,c),
(554,408,l),
(554,408,o),
(520,297,o),
(494,245,cs),
(437,131,o),
(372,73,o),
(288,73,cs),
(179,73,o),
(145,139,o),
(145,198,cs),
(145,283,o),
(203,321,o),
(307,360,c)
);
},
{
closed = 1;
nodes = (
(504,733,o),
(424,775,o),
(345,775,cs),
(236,775,o),
(129,696,o),
(129,586,cs),
(129,540,o),
(148,488,o),
(194,434,c),
(554,0,l),
(688,0,l),
(688,86,l),
(599,86,l),
(478,226,o),
(312,426,o),
(271,476,cs),
(237,518,o),
(223,555,o),
(223,587,cs),
(223,650,o),
(278,690,o),
(337,690,cs),
(387,690,o),
(440,662,o),
(468,597,c),
(546,631,l)
);
}
);
};
layerId = m01;
shapes = (
{
closed = 1;
nodes = (
(255,434,l),
(164,408,o),
(41,340,o),
(41,199,cs),
(41,81,o),
(119,-17,o),
(278,-17,cs),
(431,-17,o),
(494,47,o),
(567,186,cs),
(600,250,o),
(640,383,o),
(640,383,c),
(554,408,l),
(554,408,o),
(523,296,o),
(497,244,cs),
(440,130,o),
(372,63,o),
(288,63,cs),
(179,63,o),
(138,130,o),
(138,196,cs),
(138,292,o),
(203,333,o),
(307,360,c)
);
},
{
closed = 1;
nodes = (
(212,565,o),
(218,607,cs),
(227,673,o),
(270,703,o),
(332,703,cs),
(382,703,o),
(457,683,o),
(497,661,c),
(530,736,l),
(475,764,o),
(403,781,o),
(336,781,cs),
(214,781,o),
(137,713,o),
(126,610,cs),
(119,540,o),
(156,479,o),
(194,434,c),
(554,0,l),
(688,0,l),
(688,80,l),
(599,80,l),
(478,220,o),
(311,426,o),
(271,476,cs),
(238,516,o)
);
}
);
width = 720;
}
);
unicode = 38;
},
{
glyphname = paragraph;
lastChange = "2024-06-02 23:58:43 +0000";
layers = (
{
layerId = m01;
shapes = (
{
closed = 1;
nodes = (
(290,760,ls),
(116,760,o),
(34,663,o),
(34,549,cs),
(34,435,o),
(116,338,o),
(290,338,c),
(290,-140,l),
(385,-140,l),
(385,680,l),
(505,680,l),
(505,-141,l),
(600,-141,l),
(600,760,l)
);
}
);
width = 720;
}
);
unicode = 182;
},
{
glyphname = section;
lastChange = "2024-06-03 00:02:03 +0000";
layers = (
{
layerId = m01;
shapes = (
{
closed = 1;
nodes = (
(192,95,l),
(261,46,o),
(336,41,o),
(366,41,cs),
(436,41,o),
(473,63,o),
(473,113,cs),
(473,173,o),
(426,194,o),
(353,214,cs),
(275,236,o),
(185,269,o),
(185,371,cs),
(185,435,o),
(237,489,o),
(311,505,c),
(374,451,l),
(300,445,o),
(272,406,o),
(272,376,cs),
(272,350,o),
(284,317,o),
(367,295,cs),
(458,271,o),
(561,230,o),
(561,115,cs),
(561,12,o),
(486,-37,o),
(373,-37,cs),
(320,-37,o),
(229,-29,o),
(147,29,c)
);
},
{
closed = 1;
nodes = (
(520,674,l),
(480,693,o),
(439,699,o),
(386,696,cs),
(322,692,o),
(291,656,o),
(291,622,cs),
(291,585,o),
(310,544,o),
(393,522,cs),
(484,498,o),
(594,451,o),
(594,352,cs),
(594,282,o),
(549,248,o),
(491,222,c),
(403,266,l),
(473,282,o),
(507,313,o),
(507,349,cs),
(507,405,o),
(427,431,o),
(354,450,cs),
(276,472,o),
(208,516,o),
(208,617,cs),
(208,728,o),
(304,777,o),
(399,776,cs),
(464,775,o),
(504,764,o),
(547,740,c)
);
}
);
width = 720;
}
);
unicode = 167;
},
{
glyphname = copyright;
lastChange = "2024-06-03 00:03:16 +0000";
layers = (
{
layerId = m01;
shapes = (
{
closed = 1;
nodes = (
(560,123,o),
(675,262,o),
(675,464,cs),
(675,662,o),
(560,790,o),
(360,790,cs),
(160,790,o),
(46,662,o),
(46,464,cs),
(46,262,o),
(160,123,o),
(360,123,cs)
);
},
{
closed = 1;
nodes = (
(200,192,o),
(119,307,o),
(119,465,cs),
(119,619,o),
(200,721,o),
(360,721,cs),
(520,721,o),
(601,619,o),
(601,465,cs),
(601,307,o),
(520,192,o),
(360,192,cs)
);
},
{
closed = 1;
nodes = (
(441,249,o),
(480,268,o),
(507,323,c),
(444,348,l),
(426,322,o),
(410,316,o),
(372,316,cs),
(281,316,o),
(264,369,o),
(264,459,cs),
(264,562,o),
(301,601,o),
(365,601,cs),
(412,601,o),
(431,585,o),
(440,557,c),
(508,579,l),
(493,634,o),
(440,670,o),
(365,670,cs),
(260,670,o),
(184,608,o),
(184,458,cs),
(184,331,o),
(245,249,o),
(372,249,cs)
);
}
);
width = 720;
}
);
unicode = 169;
},
{
glyphname = registered;
lastChange = "2024-06-03 00:03:50 +0000";
layers = (
{
layerId = m01;
shapes = (
{
closed = 1;
nodes = (
(519,226,o),
(628,341,o),
(628,514,cs),
(628,668,o),
(519,790,o),
(361,790,cs),
(202,790,o),
(83,668,o),
(83,514,cs),
(83,341,o),
(202,226,o),
(361,226,cs)
);
},
{
closed = 1;
nodes = (
(230,294,o),
(151,389,o),
(151,514,cs),
(151,621,o),
(230,722,o),
(361,722,cs),
(490,722,o),
(560,621,o),
(560,514,cs),
(560,389,o),
(490,294,o),
(361,294,cs)
);
},
{
closed = 1;
nodes = (
(256,361,l),
(322,361,l),
(322,639,l),
(256,639,l)
);
},
{
closed = 1;
nodes = (
(256,665,l),
(256,600,l),
(323,600,ls),
(333,600,o),
(343,600,o),
(354,600,cs),
(387,599,o),
(404,588,o),
(404,562,cs),
(404,529,o),
(387,521,o),
(354,521,cs),
(263,521,l),
(263,455,l),
(358,455,ls),
(435,455,o),
(472,489,o),
(472,556,cs),
(472,632,o),
(420,665,o),
(323,665,cs)
);
},
{
closed = 1;
nodes = (
(406,361,l),
(476,361,l),
(396,501,l),
(327,501,l)
);
}
);
width = 720;
}
);
unicode = 174;
},
{
glyphname = trademark;
lastChange = "2024-04-28 20:58:24 +0000";
layers = (
{
layerId = m01;
shapes = (
{
closed = 1;
nodes = (
(314,759,l),
(58,759,l),
(58,693,l),
(157,693,l),
(157,369,l),
(223,369,l),
(223,693,l),
(314,693,l)
);
},
{
closed = 1;
nodes = (
(537,407,l),
(596,669,l),
(596,654,o),
(596,618,o),
(596,369,l),
(662,369,l),
(662,759,l),
(556,759,l),
(505,508,l),
(454,759,l),
(348,759,l),
(348,369,l),
(414,369,l),
(414,618,o),
(414,654,o),
(414,669,l),
(473,407,l)
);
}
);
width = 720;
}
);
unicode = 8482;
},
{
glyphname = degree;
lastChange = "2024-06-03 00:04:27 +0000";
layers = (
{
layerId = m01;
shapes = (
{
closed = 1;
nodes = (
(389,469,o),
(454,534,o),
(454,631,cs),
(454,724,o),
(389,790,o),
(296,790,cs),
(203,790,o),
(139,724,o),
(139,631,cs),
(139,534,o),
(203,469,o),
(296,469,cs)
);
},
{
closed = 1;
nodes = (
(250,549,o),
(227,583,o),
(227,631,cs),
(227,676,o),
(250,710,o),
(296,710,cs),
(342,710,o),
(365,676,o),
(365,631,cs),
(365,583,o),
(342,549,o),
(296,549,cs)
);
}
);
width = 720;
}
);
unicode = 176;
},
{
glyphname = bar;
lastChange = "2024-06-03 00:04:37 +0000";
layers = (
{
layerId = m01;
shapes = (
{
closed = 1;
nodes = (
(316,-140,l),
(406,-140,l),
(406,870,l),
(316,870,l)
);
}
);
width = 720;
}
);
unicode = 124;
},
{
glyphname = brokenbar;
lastChange = "2024-06-03 00:04:43 +0000";
layers = (
{
layerId = m01;
shapes = (
{
closed = 1;
nodes = (
(406,448,l),
(406,870,l),
(316,870,l),
(316,448,l)
);
},
{
closed = 1;
nodes = (
(316,286,l),
(316,-140,l),
(406,-140,l),
(406,286,l)
);
}
);
width = 720;
}
);
unicode = 166;
},
{
glyphname = dagger;
lastChange = "2024-06-03 00:04:59 +0000";
layers = (
{
layerId = m01;
shapes = (
{
closed = 1;
nodes = (
(110,488,l),
(610,488,l),
(610,568,l),
(110,568,l)
);
},
{
closed = 1;
nodes = (
(315,738,l),
(315,0,l),
(405,0,l),
(405,738,l)
);
}
);
width = 720;
}
);
unicode = 8224;
},
{
glyphname = daggerdbl;
lastChange = "2024-06-03 00:05:11 +0000";
layers = (
{
layerId = m01;
shapes = (
{
ref = dagger;
},
{
closed = 1;
nodes = (
(110,160,l),
(610,160,l),
(610,240,l),
(110,240,l)
);
}
);
width = 720;
}
);
unicode = 8225;
},
{
glyphname = cent;
lastChange = "2024-06-03 00:05:34 +0000";
layers = (
{
layerId = m01;
shapes = (
{
closed = 1;
nodes = (
(564,102,l),
(522,78,o),
(474,74,o),
(429,74,cs),
(311,74,o),
(237,152,o),
(237,298,cs),
(237,440,o),
(301,511,o),
(419,523,cs),
(464,528,o),
(507,518,o),
(546,490,c),
(600,560,l),
(564,593,o),
(507,616,o),
(429,616,cs),
(258,616,o),
(145,492,o),
(145,298,cs),
(145,99,o),
(268,-16,o),
(429,-16,cs),
(504,-16,o),
(550,-7,o),
(601,19,c)
);
},
{
closed = 1;
nodes = (
(355,-160,l),
(445,-160,l),
(445,41,l),
(355,41,l)
);
},
{
closed = 1;
nodes = (
(445,780,l),
(355,780,l),
(355,577,l),
(445,577,l)
);
}
);
width = 720;
}
);
unicode = 162;
},
{
glyphname = currency;
lastChange = "2024-06-03 00:06:06 +0000";
layers = (
{
background = {
shapes = (
{
closed = 1;
nodes = (
(135,554,l),
(523,166,l),
(585,228,l),
(197,616,l)
);
},
{
closed = 1;
nodes = (
(523,617,l),
(134,228,l),
(197,165,l),
(586,554,l)
);
}
);
};
layerId = m01;
shapes = (
{
closed = 1;
nodes = (
(501,139,o),
(601,243,o),
(601,391,cs),
(601,535,o),
(501,641,o),
(360,641,cs),
(218,641,o),
(120,535,o),
(120,391,cs),
(120,243,o),
(218,139,o),
(360,139,cs)
);
},
{
closed = 1;
nodes = (
(247,219,o),
(211,295,o),
(211,391,cs),
(211,482,o),
(247,561,o),
(360,561,cs),
(472,561,o),
(510,482,o),
(510,391,cs),
(510,295,o),
(472,219,o),
(360,219,cs)
);
},
{
closed = 1;
nodes = (
(256,557,l),
(117,696,l),
(55,634,l),
(194,495,l)
);
},
{
closed = 1;
nodes = (
(514,482,l),
(666,634,l),
(603,697,l),
(452,546,l)
);
},
{
closed = 1;
nodes = (
(464,225,l),
(603,86,l),
(665,148,l),
(526,287,l)
);
},
{
closed = 1;
nodes = (
(202,296,l),
(54,148,l),
(117,85,l),
(264,232,l)
);
}
);
width = 720;
}
);
unicode = 164;
},
{
glyphname = dollar;
lastChange = "2024-06-03 00:12:29 +0000";
layers = (
{
background = {
shapes = (
{
closed = 1;
nodes = (
(522,653,o),
(471,693,o),
(375,693,cs),
(261,693,o),
(225,610,o),
(225,560,cs),
(225,500,o),
(251,465,o),
(366,435,cs),
(494,401,o),
(635,375,o),
(635,191,cs),
(635,54,o),
(523,-17,o),
(378,-17,cs),
(239,-17,o),
(114,37,o),
(87,200,c),
(178,223,l),
(192,128,o),
(256,64,o),
(358,64,cs),
(489,64,o),
(541,119,o),
(541,199,cs),
(541,304,o),
(449,313,o),
(349,337,cs),
(238,363,o),
(131,401,o),
(131,556,cs),
(131,707,o),
(256,775,o),
(395,775,cs),
(513,775,o),
(599,706,o),
(643,623,c),
(570,572,l)
);
},
{
closed = 1;
nodes = (
(422,-140,l),
(334,-140,l),
(334,892,l),
(422,892,l)
);
}
);
};
layerId = m01;
shapes = (
{
closed = 1;
nodes = (
(422,-140,l),
(334,-140,l),
(334,892,l),
(422,892,l)
);
},
{
closed = 1;
nodes = (
(139,130,l),
(201,88,o),
(301,62,o),
(363,63,cs),
(501,65,o),
(562,109,o),
(564,175,cs),
(566,297,o),
(452,313,o),
(350,337,cs),
(237,361,o),
(105,398,o),
(108,561,cs),
(111,706,o),
(252,772,o),
(410,776,cs),
(497,777,o),
(584,741,o),
(628,710,c),
(587,638,l),
(544,667,o),
(466,696,o),
(388,694,cs),
(260,692,o),
(204,642,o),
(202,573,cs),
(201,490,o),
(247,463,o),
(365,435,cs),
(496,403,o),
(661,368,o),
(658,176,cs),
(655,41,o),
(530,-19,o),
(371,-17,cs),
(266,-16,o),
(168,15,o),
(105,58,c)
);
}
);
width = 720;
}
);
unicode = 36;
},
{
glyphname = euro;
lastChange = "2024-06-03 00:14:29 +0000";
layers = (
{
layerId = m01;
shapes = (
{
closed = 1;
nodes = (
(638,723,l),
(601,756,o),
(550,776,o),
(475,776,cs),
(237,776,o),
(145,610,o),
(145,381,cs),
(145,147,o),
(237,-16,o),
(475,-16,cs),
(562,-16,o),
(612,-5,o),
(661,20,c),
(631,97,l),
(588,77,o),
(533,64,o),
(475,64,cs),
(310,64,o),
(242,199,o),
(242,381,cs),
(242,559,o),
(310,696,o),
(475,696,cs),
(517,696,o),
(561,682,o),
(590,658,c)
);
},
{
closed = 1;
nodes = (
(68,425,l),
(556,425,l),
(556,505,l),
(68,505,l)
);
},
{
closed = 1;
nodes = (
(68,261,l),
(556,261,l),
(556,341,l),
(68,341,l)
);
}
);
width = 720;
}
);
unicode = 8364;
},
{
glyphname = sterling;
lastChange = "2024-06-03 00:16:02 +0000";
layers = (
{
background = {
shapes = (
{
closed = 1;
nodes = (
(96,450,l),
(96,360,l),
(572,360,l),
(572,450,l)
);
},
{
closed = 1;
nodes = (
(497,769,o),
(368,790,o),
(304,760,cs),
(258,739,o),
(219,705,o),
(219,569,cs),
(219,271,ls),
(219,183,o),
(205,149,o),
(96,88,c),
(211,88,l),
(286,117,o),
(304,194,o),
(304,271,cs),
(304,542,ls),
(304,618,o),
(315,662,o),
(346,680,cs),
(395,708,o),
(475,689,o),
(539,675,c),
(555,759,l)
);
},
{
closed = 1;
nodes = (
(96,88,l),
(96,0,l),
(602,0,l),
(602,88,l)
);
}
);
};
layerId = m01;
shapes = (
{
closed = 1;
nodes = (
(354,440,l),
(354,542,ls),
(354,637,o),
(375,694,o),
(460,694,cs),
(502,694,o),
(541,675,o),
(568,634,c),
(618,695,l),
(586,740,o),
(538,774,o),
(456,774,cs),
(316,774,o),
(269,688,o),
(269,569,cs),
(269,440,l),
(126,440,l),
(126,360,l),
(269,360,l),
(269,303,ls),
(269,215,o),
(255,141,o),
(146,80,c),
(146,0,l),
(662,0,l),
(662,80,l),
(241,80,l),
(327,102,o),
(354,226,o),
(354,303,cs),
(354,360,l),
(602,360,l),
(602,440,l)
);
}
);
width = 720;
}
);
unicode = 163;
},
{
glyphname = yen;
lastChange = "2024-06-03 00:17:12 +0000";
layers = (
{
layerId = m01;
shapes = (
{
closed = 1;
nodes = (
(166,760,l),
(59,760,l),
(314,360,l),
(313,0,l),
(408,0,l),
(408,360,l),
(661,759,l),
(557,759,l),
(334,397,l),
(389,408,l)
);
},
{
closed = 1;
nodes = (
(117,279,l),
(604,279,l),
(604,359,l),
(117,359,l)
);
},
{
closed = 1;
nodes = (
(117,116,l),
(604,116,l),
(604,196,l),
(117,196,l)
);
}
);
width = 720;
}
);
unicode = 165;
},
{
glyphname = plus;
lastChange = "2024-06-03 00:17:26 +0000";
layers = (
{
layerId = m01;
shapes = (
{
closed = 1;
nodes = (
(110,396,l),
(610,396,l),
(610,476,l),
(110,476,l)
);
},
{
closed = 1;
nodes = (
(316,696,l),
(316,176,l),
(404,176,l),
(404,696,l)
);
}
);
width = 720;
}
);
unicode = 43;
},
{
glyphname = minus;
lastChange = "2024-06-03 00:17:33 +0000";
layers = (
{
layerId = m01;
shapes = (
{
closed = 1;
nodes = (
(110,400,l),
(610,400,l),
(610,480,l),
(110,480,l)
);
}
);
width = 720;
}
);
unicode = 8722;
},
{
glyphname = multiply;
lastChange = "2024-06-03 00:17:44 +0000";
layers = (
{
layerId = m01;
shapes = (
{
closed = 1;
nodes = (
(135,601,l),
(523,213,l),
(585,275,l),
(197,663,l)
);
},
{
closed = 1;
nodes = (
(523,664,l),
(134,275,l),
(197,212,l),
(586,601,l)
);
}
);
width = 720;
}
);
unicode = 215;
},
{
glyphname = divide;
lastChange = "2024-06-03 00:18:04 +0000";
layers = (
{
layerId = m01;
shapes = (
{
closed = 1;
nodes = (
(110,391,l),
(610,391,l),
(610,471,l),
(110,471,l)
);
},
{
closed = 1;
nodes = (
(412,577,o),
(451,616,o),
(451,664,cs),
(451,710,o),
(412,749,o),
(365,749,cs),
(318,749,o),
(279,710,o),
(279,664,cs),
(279,616,o),
(318,577,o),
(365,577,cs)
);
},
{
closed = 1;
nodes = (
(412,107,o),
(451,146,o),
(451,194,cs),
(451,240,o),
(412,279,o),
(365,279,cs),
(318,279,o),
(279,240,o),
(279,194,cs),
(279,146,o),
(318,107,o),
(365,107,cs)
);
}
);
width = 720;
}
);
unicode = 247;
},
{
glyphname = equal;
lastChange = "2024-06-03 00:18:44 +0000";
layers = (
{
layerId = m01;
shapes = (
{
closed = 1;
nodes = (
(110,520,l),
(610,520,l),
(610,600,l),
(110,600,l)
);
},
{
closed = 1;
nodes = (
(110,296,l),
(610,296,l),
(610,377,l),
(110,377,l)
);
}
);
width = 720;
}
);
unicode = 61;
},
{
glyphname = notequal;
lastChange = "2024-06-03 00:18:53 +0000";
layers = (
{
layerId = m01;
shapes = (
{
ref = equal;
},
{
closed = 1;
nodes = (
(148,99,l),
(224,64,l),
(545,754,l),
(470,789,l)
);
}
);
width = 720;
}
);
unicode = 8800;
},
{
glyphname = greater;
lastChange = "2024-06-03 00:21:53 +0000";
layers = (
{
layerId = m01;
shapes = (
{
closed = 1;
nodes = (
(114,135,l),
(77,213,l),
(615,462,l),
(613,379,l),
(77,626,l),
(114,703,l),
(646,459,l),
(646,379,l)
);
}
);
width = 720;
}
);
unicode = 62;
},
{
glyphname = greaterequal;
lastChange = "2024-06-03 00:24:40 +0000";
layers = (
{
background = {
shapes = (
{
closed = 1;
nodes = (
(77,612,l),
(646,412,l),
(646,506,l),
(114,703,l)
);
},
{
closed = 1;
nodes = (
(646,412,l),
(646,506,l),
(77,306,l),
(114,215,l)
);
},
{
closed = 1;
nodes = (
(87,71,l),
(633,71,l),
(633,159,l),
(87,159,l)
);
}
);
};
layerId = m01;
shapes = (
{
closed = 1;
nodes = (
(87,79,l),
(633,79,l),
(633,159,l),
(87,159,l)
);
},
{
closed = 1;
nodes = (
(114,210,l),
(85,290,l),
(615,495,l),
(615,418,l),
(84,623,l),
(114,703,l),
(646,497,l),
(646,416,l)
);
}
);
width = 720;
}
);
unicode = 8805;
},
{
glyphname = plusminus;
lastChange = "2024-06-03 00:25:03 +0000";
layers = (
{
layerId = m01;
shapes = (
{
closed = 1;
nodes = (
(110,446,l),
(610,446,l),
(610,526,l),
(110,526,l)
);
},
{
closed = 1;
nodes = (
(316,696,l),
(316,276,l),
(404,276,l),
(404,696,l)
);
},
{
closed = 1;
nodes = (
(110,121,l),
(610,121,l),
(610,201,l),
(110,201,l)
);
}
);
width = 720;
}
);
unicode = 177;
},
{
glyphname = logicalnot;
lastChange = "2024-06-03 00:25:28 +0000";
layers = (
{
layerId = m01;
shapes = (
{
closed = 1;
nodes = (
(660,380,l),
(50,380,l),
(50,300,l),
(570,300,l),
(570,0,l),
(660,0,l)
);
}
);
width = 720;
}
);
unicode = 172;
},
{
glyphname = asciitilde;
lastChange = "2024-04-28 22:19:43 +0000";
layers = (
{
layerId = m01;
shapes = (
{
closed = 1;
nodes = (
(55,366,o),
(55,383,o),
(55,411,cs),
(55,540,o),
(138,616,o),
(243,616,cs),
(332,616,o),
(358,564,o),
(421,494,cs),
(443,469,o),
(468,444,o),
(510,444,cs),
(548,444,o),
(586,487,o),
(586,581,c),
(679,581,l),
(679,432,o),
(600,356,o),
(504,356,cs),
(441,356,o),
(400,381,o),
(371,412,cs),
(325,461,o),
(292,530,o),
(228,524,cs),
(166,518,o),
(139,473,o),
(139,407,cs),
(139,393,o),
(139,379,o),
(139,366,c),
(55,366,l)
);
}
);
width = 720;
}
);
unicode = 126;
},
{
glyphname = asciicircum;
lastChange = "2024-06-03 00:26:34 +0000";
layers = (
{
layerId = m01;
shapes = (
{
closed = 1;
nodes = (
(154,193,l),
(76,228,l),
(313,760,l),
(407,760,l),
(644,228,l),
(566,193,l),
(324,740,l),
(394,736,l)
);
}
);
width = 720;
}
);
unicode = 94;
},
{
glyphname = infinity;
lastChange = "2024-06-03 00:27:13 +0000";
layers = (
{
layerId = m01;
shapes = (
{
closed = 1;
nodes = (
(680,249,o),
(598,182,o),
(506,182,cs),
(415,182,o),
(371,250,o),
(339,331,cs),
(303,423,o),
(279,536,o),
(213,536,cs),
(151,536,o),
(124,473,o),
(124,407,cs),
(124,306,o),
(154,258,o),
(215,258,cs),
(276,258,o),
(305,360,o),
(330,465,c),
(371,366,l),
(350,281,o),
(308,178,o),
(216,178,cs),
(117,178,o),
(40,256,o),
(40,411,cs),
(40,566,o),
(122,616,o),
(214,616,cs),
(315,616,o),
(357,531,o),
(387,451,cs),
(420,365,o),
(440,262,o),
(507,262,cs),
(569,262,o),
(596,305,o),
(596,390,cs),
(596,475,o),
(579,536,o),
(516,536,cs),
(462,536,o),
(430,447,o),
(410,348,c),
(363,457,l),
(388,536,o),
(426,616,o),
(514,616,cs),
(625,616,o),
(680,541,o),
(680,386,cs)
);
}
);
width = 720;
}
);
unicode = 8734;
},
{
glyphname = integral;
lastChange = "2024-06-03 00:27:28 +0000";
layers = (
{
background = {
shapes = (
{
closed = 1;
nodes = (
(189,-140,l),
(280,-140,l),
(580,870,l),
(489,870,l)
);
}
);
};
layerId = m01;
shapes = (
{
closed = 1;
nodes = (
(400,632,ls),
(400,709,o),
(415,757,o),
(446,775,cs),
(495,803,o),
(579,786,o),
(637,775,c),
(651,854,l),
(606,864,o),
(532,869,o),
(486,869,cs),
(377,869,o),
(314,797,o),
(314,659,cs),
(315,337,l),
(315,97,ls),
(315,20,o),
(300,-28,o),
(269,-46,cs),
(220,-74,o),
(136,-57,o),
(78,-46,c),
(64,-125,l),
(109,-135,o),
(183,-140,o),
(229,-140,cs),
(338,-140,o),
(401,-68,o),
(401,70,cs),
(401,337,l)
);
}
);
width = 720;
}
);
unicode = 8747;
},
{
glyphname = increment;
lastChange = "2024-06-03 00:29:36 +0000";
layers = (
{
layerId = m01;
shapes = (
{
closed = 1;
nodes = (
(581,0,l),
(581,1,l),
(641,1,l),
(423,760,l),
(288,760,l),
(79,0,l)
);
},
{
closed = 1;
nodes = (
(189,80,l),
(354,691,l),
(530,80,l)
);
}
);
width = 720;
}
);
unicode = 8710;
},
{
glyphname = product;
lastChange = "2024-06-03 00:30:01 +0000";
layers = (
{
layerId = m01;
shapes = (
{
closed = 1;
nodes = (
(139,760,l),
(139,0,l),
(234,0,l),
(234,760,l)
);
},
{
closed = 1;
nodes = (
(30,680,l),
(690,680,l),
(690,760,l),
(30,760,l)
);
},
{
closed = 1;
nodes = (
(486,760,l),
(486,-1,l),
(581,-1,l),
(581,760,l)
);
}
);
width = 720;
}
);
unicode = 8719;
},
{
glyphname = summation;
lastChange = "2024-06-03 00:30:52 +0000";
layers = (
{
layerId = m01;
shapes = (
{
closed = 1;
nodes = (
(141,760,l),
(141,644,l),
(443,367,l),
(141,120,l),
(141,0,l),
(618,0,l),
(618,80,l),
(224,80,l),
(537,333,l),
(537,396,l),
(228,680,l),
(618,680,l),
(618,760,l)
);
}
);
width = 720;
}
);
unicode = 8721;
},
{
glyphname = radical;
lastChange = "2024-06-03 00:31:32 +0000";
layers = (
{
layerId = m01;
shapes = (
{
closed = 1;
nodes = (
(323,85,l),
(359,86,l),
(212,551,l),
(129,525,l),
(299,0,l),
(389,0,l),
(631,778,l),
(573,740,l),
(848,740,l),
(848,820,l),
(552,820,l)
);
}
);
width = 720;
}
);
unicode = 8730;
},
{
glyphname = partialdiff;
lastChange = "2024-06-02 23:31:09 +0000";
layers = (
{
layerId = m01;
shapes = (
{
closed = 1;
nodes = (
(268,768,l),
(469,709,o),
(628,547,o),
(628,295,cs),
(628,76,o),
(508,-16,o),
(371,-16,cs),
(191,-16,o),
(112,112,o),
(112,237,cs),
(112,355,o),
(191,471,o),
(356,471,cs),
(462,471,o),
(543,419,o),
(590,331,c),
(558,279,l),
(497,363,o),
(428,379,o),
(353,379,cs),
(253,379,o),
(204,308,o),
(204,234,cs),
(204,155,o),
(247,64,o),
(373,64,cs),
(467,64,o),
(539,138,o),
(539,304,cs),
(539,490,o),
(419,631,o),
(236,685,c)
);
}
);
width = 720;
}
);
unicode = 8706;
},
{
glyphname = micro;
lastChange = "2024-06-03 00:33:16 +0000";
layers = (
{
layerId = m01;
shapes = (
{
closed = 1;
nodes = (
(140,-200,l),
(226,-200,l),
(226,371,l),
(140,371,l)
);
},
{
ref = u;
}
);
width = 720;
}
);
unicode = 181;
},
{
glyphname = percent;
lastChange = "2024-06-03 00:33:45 +0000";
layers = (
{
layerId = m01;
shapes = (
{
closed = 1;
nodes = (
(100,42,l),
(171,0,l),
(608,723,l),
(534,760,l)
);
},
{
closed = 1;
nodes = (
(277,412,o),
(324,506,o),
(324,595,cs),
(324,704,o),
(277,776,o),
(174,776,cs),
(71,776,o),
(24,694,o),
(24,595,cs),
(24,496,o),
(71,412,o),
(174,412,cs)
);
},
{
closed = 1;
nodes = (
(123,488,o),
(104,540,o),
(104,595,cs),
(104,657,o),
(123,700,o),
(174,700,cs),
(225,700,o),
(244,657,o),
(244,595,cs),
(244,540,o),
(225,488,o),
(174,488,cs)
);
},
{
closed = 1;
nodes = (
(647,-16,o),
(694,78,o),
(694,167,cs),
(694,276,o),
(647,348,o),
(544,348,cs),
(441,348,o),
(394,266,o),
(394,167,cs),
(394,68,o),
(441,-16,o),
(544,-16,cs)
);
},
{
closed = 1;
nodes = (
(493,60,o),
(474,112,o),
(474,167,cs),
(474,229,o),
(493,272,o),
(544,272,cs),
(595,272,o),
(614,229,o),
(614,167,cs),
(614,112,o),
(595,60,o),
(544,60,cs)
);
}
);
width = 720;
}
);
unicode = 37;
},
{
glyphname = perthousand;
lastChange = "2024-04-29 15:34:49 +0000";
layers = (
{
layerId = m01;
shapes = (
{
closed = 1;
nodes = (
(297,464,o),
(347,545,o),
(347,621,cs),
(347,714,o),
(297,776,o),
(209,776,cs),
(120,776,o),
(70,706,o),
(70,621,cs),
(70,536,o),
(120,464,o),
(209,464,cs)
);
},
{
closed = 1;
nodes = (
(170,538,o),
(143,579,o),
(143,621,cs),
(143,669,o),
(170,703,o),
(209,703,cs),
(246,703,o),
(274,669,o),
(274,621,cs),
(274,579,o),
(246,538,o),
(209,538,cs)
);
},
{
closed = 1;
nodes = (
(42,290,l),
(696,517,l),
(672,590,l),
(20,364,l)
);
},
{
closed = 1;
nodes = (
(297,-16,o),
(347,65,o),
(347,141,cs),
(347,234,o),
(297,296,o),
(209,296,cs),
(120,296,o),
(70,226,o),
(70,141,cs),
(70,56,o),
(120,-16,o),
(209,-16,cs)
);
},
{
closed = 1;
nodes = (
(170,58,o),
(143,99,o),
(143,141,cs),
(143,189,o),
(170,223,o),
(209,223,cs),
(246,223,o),
(274,189,o),
(274,141,cs),
(274,99,o),
(246,58,o),
(209,58,cs)
);
},
{
closed = 1;
nodes = (
(614,-16,o),
(664,65,o),
(664,141,cs),
(664,234,o),
(614,296,o),
(526,296,cs),
(437,296,o),
(387,226,o),
(387,141,cs),
(387,56,o),
(437,-16,o),
(526,-16,cs)
);
},
{
closed = 1;
nodes = (
(487,58,o),
(460,99,o),
(460,141,cs),
(460,189,o),
(487,223,o),
(526,223,cs),
(563,223,o),
(591,189,o),
(591,141,cs),
(591,99,o),
(563,58,o),
(526,58,cs)
);
}
);
width = 720;
}
);
unicode = 8240;
},
{
glyphname = upArrow;
lastChange = "2024-05-10 03:44:19 +0000";
layers = (
{
layerId = m01;
shapes = (
{
closed = 1;
nodes = (
(323,740,l),
(46,409,l),
(117,353,l),
(387,681,l),
(333,681,l),
(603,353,l),
(674,409,l),
(397,740,l)
);
},
{
closed = 1;
nodes = (
(319,676,l),
(319,31,l),
(405,31,l),
(405,676,l)
);
}
);
width = 720;
}
);
unicode = 8593;
},
{
glyphname = lozenge;
lastChange = "2024-06-03 00:34:29 +0000";
layers = (
{
layerId = m01;
shapes = (
{
closed = 1;
nodes = (
(323,760,l),
(230,760,l),
(60,374,l),
(229,0,l),
(323,0,l),
(159,374,l)
);
},
{
closed = 1;
nodes = (
(272,0,l),
(367,0,l),
(540,374,l),
(366,760,l),
(272,760,l),
(443,374,l)
);
}
);
width = 720;
}
);
unicode = 9674;
},
{
glyphname = dieresiscomb;
lastChange = "2024-04-29 13:10:20 +0000";
layers = (
{
anchors = (
{
name = _top;
pos = (360,600);
},
{
name = top;
pos = (360,817);
}
);
layerId = m01;
shapes = (
{
closed = 1;
nodes = (
(196,718,o),
(223,692,o),
(256,692,cs),
(289,692,o),
(317,718,o),
(317,751,cs),
(317,785,o),
(289,811,o),
(256,811,cs),
(223,811,o),
(196,785,o),
(196,751,cs)
);
},
{
closed = 1;
nodes = (
(403,720,o),
(431,693,o),
(464,693,cs),
(497,693,o),
(524,720,o),
(524,753,cs),
(524,787,o),
(497,813,o),
(464,813,cs),
(431,813,o),
(403,787,o),
(403,753,cs)
);
}
);
width = 720;
}
);
unicode = 776;
},
{
glyphname = dotaccentcomb;
lastChange = "2024-04-28 22:34:28 +0000";
layers = (
{
anchors = (
{
name = _top;
pos = (360,600);
},
{
name = top;
pos = (360,795);
}
);
layerId = m01;
shapes = (
{
closed = 1;
nodes = (
(288,718,o),
(321,685,o),
(360,685,cs),
(401,685,o),
(432,718,o),
(432,757,cs),
(432,798,o),
(401,829,o),
(360,829,cs),
(321,829,o),
(288,798,o),
(288,757,cs)
);
}
);
width = 720;
}
);
unicode = 775;
},
{
glyphname = gravecomb;
lastChange = "2024-04-29 13:10:47 +0000";
layers = (
{
anchors = (
{
name = _top;
pos = (374,600);
},
{
name = top;
pos = (374,830);
}
);
layerId = m01;
shapes = (
{
closed = 1;
nodes = (
(455,672,l),
(504,743,l),
(273,871,l),
(223,799,l)
);
}
);
width = 720;
}
);
unicode = 768;
},
{
glyphname = acutecomb;
lastChange = "2024-04-29 13:11:01 +0000";
layers = (
{
anchors = (
{
name = _top;
pos = (364,600);
},
{
name = top;
pos = (364,830);
}
);
layerId = m01;
shapes = (
{
closed = 1;
nodes = (
(454,871,l),
(223,743,l),
(272,672,l),
(504,799,l)
);
}
);
width = 720;
}
);
unicode = 769;
},
{
glyphname = circumflexcomb;
lastChange = "2024-04-28 22:34:39 +0000";
layers = (
{
anchors = (
{
name = _top;
pos = (359,600);
},
{
name = top;
pos = (359,838);
}
);
layerId = m01;
shapes = (
{
closed = 1;
nodes = (
(406,878,l),
(312,878,l),
(159,728,l),
(232,689,l),
(360,812,l),
(490,689,l),
(559,728,l)
);
}
);
width = 720;
}
);
unicode = 770;
},
{
glyphname = caroncomb;
lastChange = "2024-04-28 22:43:28 +0000";
layers = (
{
anchors = (
{
name = _top;
pos = (359,600);
},
{
name = top;
pos = (359,878);
}
);
layerId = m01;
shapes = (
{
closed = 1;
nodes = (
(490,878,l),
(360,755,l),
(232,878,l),
(159,839,l),
(312,689,l),
(406,689,l),
(559,839,l)
);
}
);
width = 720;
}
);
unicode = 780;
},
{
glyphname = brevecomb;
lastChange = "2024-04-29 17:42:14 +0000";
layers = (
{
anchors = (
{
name = _top;
pos = (363,600);
},
{
name = top;
pos = (363,837);
}
);
layerId = m01;
shapes = (
{
closed = 1;
nodes = (
(522,763,o),
(481,692,o),
(360,692,cs),
(242,692,o),
(203,763,o),
(203,837,c),
(293,837,l),
(293,801,o),
(307,768,o),
(360,768,cs),
(416,768,o),
(432,801,o),
(432,837,c),
(522,837,l)
);
}
);
width = 720;
}
);
unicode = 774;
},
{
glyphname = ringcomb;
lastChange = "2024-04-29 13:02:50 +0000";
layers = (
{
anchors = (
{
name = _top;
pos = (360,600);
},
{
name = top;
pos = (360,830);
}
);
layerId = m01;
shapes = (
{
closed = 1;
nodes = (
(421,673,o),
(466,716,o),
(466,784,cs),
(466,846,o),
(421,891,o),
(359,891,cs),
(297,891,o),
(253,846,o),
(253,784,cs),
(253,716,o),
(297,673,o),
(359,673,cs)
);
},
{
closed = 1;
nodes = (
(335,741,o),
(322,756,o),
(322,784,cs),
(322,808,o),
(335,824,o),
(359,824,cs),
(383,824,o),
(396,808,o),
(396,784,cs),
(396,756,o),
(383,741,o),
(359,741,cs)
);
}
);
width = 720;
}
);
unicode = 778;
},
{
glyphname = tildecomb;
lastChange = "2024-04-29 14:18:51 +0000";
layers = (
{
anchors = (
{
name = _top;
pos = (360,600);
},
{
name = top;
pos = (360,791);
}
);
layerId = m01;
shapes = (
{
closed = 1;
nodes = (
(553,823,l),
(544,752,o),
(489,704,o),
(438,704,cs),
(371,704,o),
(319,754,o),
(286,754,cs),
(255,754,o),
(241,731,o),
(234,703,c),
(166,747,l),
(182,801,o),
(228,841,o),
(277,841,cs),
(345,841,o),
(378,790,o),
(427,790,cs),
(451,790,o),
(472,811,o),
(473,841,c)
);
}
);
width = 720;
}
);
unicode = 771;
},
{
glyphname = macroncomb;
lastChange = "2024-04-29 13:08:44 +0000";
layers = (
{
anchors = (
{
name = _top;
pos = (360,600);
},
{
name = top;
pos = (360,802);
}
);
layerId = m01;
shapes = (
{
closed = 1;
nodes = (
(214,722,l),
(506,722,l),
(506,802,l),
(214,802,l)
);
}
);
width = 720;
}
);
unicode = 772;
},
{
glyphname = commaaccentcomb;
lastChange = "2024-04-29 13:59:08 +0000";
layers = (
{
anchors = (
{
name = _bottom;
pos = (365,0);
},
{
name = bottom;
pos = (365,-300);
}
);
layerId = m01;
shapes = (
{
closed = 1;
nodes = (
(360,-300,l),
(295,-300,l),
(318,-100,l),
(435,-100,l)
);
}
);
width = 720;
}
);
unicode = 806;
},
{
glyphname = cedillacomb;
lastChange = "2024-04-29 13:09:06 +0000";
layers = (
{
anchors = (
{
name = _bottom;
pos = (365,0);
},
{
name = bottom;
pos = (365,-247);
}
);
layerId = m01;
shapes = (
{
closed = 1;
nodes = (
(318,-126,l),
(374,-126,o),
(401,-131,o),
(401,-157,cs),
(401,-183,o),
(377,-192,o),
(347,-192,cs),
(317,-192,o),
(287,-184,o),
(273,-175,c),
(246,-232,l),
(270,-245,o),
(302,-257,o),
(350,-257,cs),
(420,-257,o),
(484,-229,o),
(484,-158,cs),
(484,-91,o),
(428,-68,o),
(390,-68,c),
(390,35,l),
(317,36,l)
);
}
);
width = 720;
}
);
unicode = 807;
},
{
glyphname = ogonekcomb;
lastChange = "2024-04-29 13:16:48 +0000";
layers = (
{
anchors = (
{
name = _ogonek;
pos = (401,0);
}
);
layerId = m01;
shapes = (
{
closed = 1;
nodes = (
(371,21,o),
(252,-37,o),
(252,-147,cs),
(252,-265,o),
(371,-267,o),
(473,-240,c),
(481,-168,l),
(417,-180,o),
(342,-183,o),
(342,-132,cs),
(342,-80,o),
(429,-21,o),
(488,-1,c),
(465,46,l)
);
}
);
width = 720;
}
);
unicode = 808;
},
{
glyphname = breve;
lastChange = "2024-04-29 13:02:18 +0000";
layers = (
{
layerId = m01;
shapes = (
{
closed = 1;
nodes = (
(522,763,o),
(453,692,o),
(360,692,cs),
(270,692,o),
(203,763,o),
(203,837,c),
(293,837,l),
(293,801,o),
(316,768,o),
(360,768,cs),
(407,768,o),
(432,801,o),
(432,837,c),
(522,837,l)
);
}
);
width = 720;
}
);
unicode = 728;
},
